<?xml version="1.0" encoding="utf-8"?>
<!-- Generator: Adobe Illustrator 22.1.0, SVG Export Plug-In . SVG Version: 6.00 Build 0)  -->
<svg version="1.1" id="Layer_1" xmlns="http://www.w3.org/2000/svg" xmlns:xlink="http://www.w3.org/1999/xlink" x="0px" y="0px"
	 viewBox="0 0 100 19" style="enable-background:new 0 0 100 19;" xml:space="preserve">
<style type="text/css">
	.st0{fill:#131313;}
	.st1{fill:url(#SVGID_1_);}
	.st2{fill:#F7DD00;}
	.st3{fill:#F44545;}
	.st4{fill:#31B5FF;}
	.st5{fill:#3B60B8;}
	.st6{fill:#DB0000;}
	.st7{fill:#0084FC;}
	.st8{fill:#863361;}
	.st9{fill:#9E2546;}
	.st10{fill:#FF9B03;}
	.st11{fill:#FD9203;}
	.st12{fill:#FFB002;}
	.st13{fill:#F36802;}
	.st14{fill:#E57C07;}
</style>
<g>
	<g>
		<g>
			<path class="st0" d="M32.7,5.8l-0.5,0.4c-0.3-0.4-0.7-0.7-1.1-0.9s-0.9-0.3-1.4-0.3c-0.5,0-1,0.1-1.5,0.4
				c-0.5,0.3-0.8,0.6-1.1,1.1c-0.3,0.4-0.4,0.9-0.4,1.5c0,0.8,0.3,1.5,0.9,2.1c0.6,0.6,1.3,0.8,2.1,0.8c1,0,1.7-0.4,2.4-1.1l0.5,0.4
				c-0.3,0.4-0.8,0.8-1.3,1c-0.5,0.2-1.1,0.4-1.7,0.4c-1.2,0-2.1-0.4-2.8-1.2c-0.6-0.7-0.9-1.5-0.9-2.4c0-1,0.4-1.8,1-2.5
				c0.7-0.7,1.6-1,2.6-1c0.6,0,1.2,0.1,1.7,0.4C31.9,5,32.4,5.4,32.7,5.8z"/>
			<path class="st0" d="M29.7,11.7c-1.2,0-2.2-0.4-2.9-1.2c-0.6-0.7-0.9-1.6-0.9-2.5c0-1,0.4-1.9,1.1-2.6c0.7-0.7,1.7-1.1,2.7-1.1
				c0.7,0,1.3,0.1,1.8,0.4c0.5,0.3,1,0.6,1.3,1.1l0.1,0.1l-0.8,0.6L32,6.3c-0.3-0.4-0.6-0.6-1-0.8c-0.4-0.2-0.8-0.3-1.3-0.3
				c-0.5,0-1,0.1-1.4,0.4c-0.4,0.2-0.8,0.6-1,1C27.1,7,26.9,7.5,26.9,8c0,0.8,0.3,1.4,0.8,1.9c0.5,0.5,1.2,0.8,2,0.8
				c0.9,0,1.6-0.4,2.3-1.1l0.1-0.1l0.8,0.6l-0.1,0.1c-0.4,0.5-0.8,0.8-1.3,1.1C31,11.6,30.4,11.7,29.7,11.7z M29.7,4.6
				c-1,0-1.8,0.3-2.5,1c-0.7,0.6-1,1.4-1,2.4c0,0.9,0.3,1.7,0.8,2.3c0.7,0.7,1.5,1.1,2.7,1.1c0.6,0,1.1-0.1,1.6-0.3
				c0.4-0.2,0.8-0.5,1.1-0.8L32.2,10c-0.7,0.7-1.5,1.1-2.4,1.1c-0.9,0-1.7-0.3-2.3-0.9c-0.6-0.6-0.9-1.3-0.9-2.2
				c0-0.6,0.1-1.1,0.4-1.6c0.3-0.5,0.7-0.8,1.1-1.1c0.5-0.3,1-0.4,1.6-0.4c0.5,0,1,0.1,1.4,0.3c0.4,0.2,0.7,0.5,1,0.8l0.3-0.2
				c-0.3-0.4-0.7-0.7-1.1-0.9C30.9,4.7,30.3,4.6,29.7,4.6z"/>
		</g>
		<g>
			<path class="st0" d="M38.2,4.4c1,0,1.9,0.3,2.6,1c0.7,0.7,1,1.5,1,2.5c0,1-0.4,1.8-1,2.5c-0.7,0.7-1.5,1-2.5,1s-1.9-0.3-2.5-1
				s-1-1.5-1-2.5c0-0.7,0.2-1.3,0.5-1.8c0.3-0.6,0.7-1,1.3-1.3C37,4.5,37.6,4.4,38.2,4.4z M38.2,5.1c-0.5,0-1,0.1-1.4,0.4
				S36,6.1,35.8,6.5S35.4,7.4,35.4,8c0,0.8,0.3,1.5,0.8,2c0.6,0.6,1.2,0.8,2,0.8c0.5,0,1-0.1,1.5-0.4c0.5-0.3,0.8-0.6,1.1-1.1
				C41,9,41.1,8.5,41.1,7.9s-0.1-1-0.4-1.5s-0.6-0.8-1.1-1C39.2,5.2,38.8,5.1,38.2,5.1z"/>
			<path class="st0" d="M38.3,11.7c-1.1,0-1.9-0.4-2.7-1.1C34.9,9.9,34.5,9,34.5,8c0-0.7,0.2-1.3,0.5-1.9c0.3-0.6,0.8-1,1.4-1.4
				c0.6-0.3,1.2-0.5,1.9-0.5c1.1,0,2,0.4,2.7,1.1S42,6.9,42,7.9s-0.4,1.9-1.1,2.7C40.2,11.3,39.3,11.7,38.3,11.7z M38.2,4.6
				c-0.6,0-1.2,0.2-1.7,0.5c-0.5,0.3-0.9,0.7-1.2,1.2S34.9,7.4,34.9,8c0,0.9,0.3,1.7,1,2.4c0.7,0.7,1.5,1,2.4,1c0.9,0,1.8-0.3,2.4-1
				c0.7-0.7,1-1.5,1-2.4c0-1-0.3-1.8-1-2.4C40,4.9,39.2,4.6,38.2,4.6z M38.2,11c-0.8,0-1.6-0.3-2.1-0.9S35.2,8.8,35.2,8
				c0-0.6,0.1-1.1,0.4-1.6c0.3-0.5,0.6-0.8,1.1-1.1c0.5-0.3,1-0.4,1.5-0.4c0.5,0,1.1,0.1,1.5,0.4c0.5,0.3,0.9,0.7,1.1,1.1
				c0.3,0.5,0.4,1,0.4,1.6c0,0.6-0.1,1.1-0.4,1.6c-0.3,0.5-0.6,0.8-1.1,1.1C39.3,10.9,38.8,11,38.2,11z M38.2,5.2
				c-0.5,0-0.9,0.1-1.3,0.4c-0.4,0.3-0.8,0.6-1,1C35.7,7,35.6,7.5,35.6,8c0,0.8,0.3,1.4,0.8,1.9c0.5,0.5,1.2,0.8,1.9,0.8
				c0.5,0,1-0.1,1.4-0.4c0.4-0.2,0.8-0.6,1-1C40.8,8.9,41,8.4,41,7.9c0-0.5-0.1-1-0.4-1.4c-0.2-0.4-0.6-0.7-1-1
				C39.2,5.4,38.7,5.2,38.2,5.2z"/>
		</g>
		<g>
			<path class="st0" d="M44,4.6h0.7v6.8H44V4.6z"/>
			<path class="st0" d="M44.9,11.5h-1V4.4h1V11.5z M44.2,11.2h0.3V4.7h-0.3V11.2z"/>
		</g>
		<g>
			<path class="st0" d="M47.2,11.3V4.6h0.2l4.5,5.2V4.6h0.7v6.8h-0.2l-4.5-5.1v5.1L47.2,11.3L47.2,11.3z"/>
			<path class="st0" d="M52.7,11.5h-0.4l-4.2-4.8v4.8h-1.1V4.4h0.4l4.3,4.9V4.4h1V11.5z M47.4,11.2h0.4V5.7l4.6,5.3V4.7h-0.3v5.5
				l-4.7-5.4V11.2z"/>
		</g>
		<g>
			<path class="st0" d="M61.7,5.7l-0.5,0.5c-0.4-0.4-0.8-0.7-1.2-0.9c-0.5-0.2-0.9-0.3-1.3-0.3c-0.5,0-1,0.1-1.5,0.4
				S56.2,6.1,56,6.5c-0.3,0.5-0.4,0.9-0.4,1.4c0,0.5,0.1,1,0.4,1.5c0.3,0.5,0.7,0.8,1.1,1.1c0.5,0.3,1,0.4,1.6,0.4
				c0.7,0,1.3-0.2,1.8-0.6c0.5-0.4,0.8-0.9,0.9-1.5h-2.2V8.1h2.9c0,1.1-0.3,1.9-0.9,2.5c-0.6,0.6-1.4,0.9-2.5,0.9
				c-1.3,0-2.2-0.4-3-1.3c-0.6-0.7-0.8-1.4-0.8-2.3c0-0.6,0.2-1.2,0.5-1.8s0.8-1,1.3-1.3c0.6-0.3,1.2-0.5,1.9-0.5
				c0.6,0,1.1,0.1,1.6,0.3C60.7,4.9,61.2,5.2,61.7,5.7z"/>
			<path class="st0" d="M58.7,11.7c-1.3,0-2.3-0.5-3.1-1.3C55,9.7,54.7,8.9,54.7,8c0-0.7,0.2-1.3,0.5-1.9c0.3-0.6,0.8-1,1.4-1.4
				c0.6-0.3,1.3-0.5,2-0.5c0.6,0,1.2,0.1,1.7,0.3c0.5,0.2,1,0.6,1.5,1L62,5.7l-0.8,0.7L61,6.3c-0.4-0.4-0.8-0.6-1.2-0.8
				c-1-0.4-1.9-0.4-2.7,0.1c-0.5,0.3-0.8,0.6-1.1,1c-0.3,0.4-0.4,0.9-0.4,1.3c0,0.5,0.1,0.9,0.4,1.4c0.3,0.4,0.6,0.8,1.1,1
				c0.5,0.3,1,0.4,1.5,0.4c0.7,0,1.2-0.2,1.7-0.6c0.4-0.3,0.7-0.7,0.8-1.2H59v-1h3.3v0.2c0,1.1-0.3,2-1,2.6
				C60.6,11.3,59.8,11.7,58.7,11.7z M58.6,4.6c-0.7,0-1.3,0.2-1.8,0.5c-0.5,0.3-1,0.7-1.3,1.2C55.2,6.8,55,7.3,55,7.9
				c0,0.8,0.3,1.5,0.8,2.2c0.7,0.8,1.7,1.2,2.8,1.2c1,0,1.8-0.3,2.3-0.9c0.5-0.5,0.8-1.3,0.9-2.2h-2.6v0.3h2.2l0,0.2
				c-0.1,0.7-0.4,1.2-0.9,1.6c-0.5,0.4-1.1,0.6-1.9,0.6c-0.6,0-1.2-0.1-1.7-0.4c-0.5-0.3-0.9-0.7-1.2-1.2c-0.3-0.5-0.4-1-0.4-1.5
				c0-0.5,0.1-1,0.4-1.5c0.3-0.5,0.7-0.9,1.2-1.1c0.9-0.5,1.9-0.6,3-0.1c0.4,0.2,0.8,0.4,1.2,0.8l0.3-0.3C61,5.3,60.6,5,60.2,4.9
				C59.7,4.7,59.1,4.6,58.6,4.6z"/>
		</g>
		<g>
			<path class="st0" d="M67.1,4.6l3.2,6.8h-0.7l-1.1-2.2h-2.9l-1.1,2.2h-0.8L67,4.6H67.1L67.1,4.6z M67,6l-1.2,2.5h2.3L67,6z"/>
			<path class="st0" d="M70.5,11.5h-1.1l-1.1-2.2h-2.7l-1.1,2.2h-1.2l3.4-7.1h0.4L70.5,11.5z M69.6,11.2H70l-3-6.4l-3,6.4h0.4
				l1.1-2.2h3.1L69.6,11.2z M68.5,8.6h-2.9l1.4-3L68.5,8.6z M66.1,8.3h1.8L67,6.4L66.1,8.3z"/>
		</g>
		<g>
			<path class="st0" d="M72,11.3l1-6.8H73l2.8,5.6l2.7-5.6h0.1l1,6.8h-0.7l-0.7-4.8l-2.4,4.8h-0.2l-2.4-4.9l-0.7,4.9H72z"/>
			<path class="st0" d="M79.8,11.5h-1l-0.6-4.4L76,11.5h-0.4L73.4,7l-0.6,4.5h-1l1-7.1h0.4l0.1,0.1l2.6,5.2l2.6-5.3h0.4L79.8,11.5z
				 M79.1,11.2h0.3L78.5,5l-2.7,5.5L73,5l-0.9,6.2h0.3l0.7-5.3l2.6,5.3l2.6-5.2L79.1,11.2z"/>
		</g>
		<g>
			<path class="st0" d="M81.8,4.6h0.7v6.8h-0.7V4.6z"/>
			<path class="st0" d="M82.6,11.5h-1V4.4h1V11.5z M82,11.2h0.3V4.7H82V11.2z"/>
		</g>
		<g>
			<path class="st0" d="M85,11.3V4.6h0.2l4.5,5.2V4.6h0.7v6.8h-0.2l-4.5-5.1v5.1L85,11.3L85,11.3z"/>
			<path class="st0" d="M90.5,11.5h-0.4l-4.2-4.8v4.8h-1.1V4.4h0.4l4.3,4.9V4.4h1L90.5,11.5L90.5,11.5z M85.2,11.2h0.4V5.7l4.6,5.3
				V4.7h-0.3v5.5l-4.7-5.4L85.2,11.2L85.2,11.2z"/>
		</g>
		<g>
			<path class="st0" d="M99.4,5.7l-0.5,0.5c-0.4-0.4-0.8-0.7-1.2-0.9c-0.5-0.2-0.9-0.3-1.3-0.3c-0.5,0-1,0.1-1.5,0.4
				c-0.5,0.3-0.9,0.6-1.1,1.1c-0.3,0.5-0.4,0.9-0.4,1.4c0,0.5,0.1,1,0.4,1.5c0.3,0.5,0.7,0.8,1.1,1.1c0.5,0.3,1,0.4,1.6,0.4
				c0.7,0,1.3-0.2,1.8-0.6c0.5-0.4,0.8-0.9,0.9-1.5h-2.2V8.1h2.9c0,1.1-0.3,1.9-0.9,2.5c-0.6,0.6-1.4,0.9-2.5,0.9
				c-1.3,0-2.2-0.4-3-1.3c-0.6-0.7-0.8-1.4-0.8-2.3c0-0.6,0.2-1.2,0.5-1.8s0.8-1,1.3-1.3s1.2-0.5,1.9-0.5c0.6,0,1.1,0.1,1.6,0.3
				C98.5,4.9,99,5.2,99.4,5.7z"/>
			<path class="st0" d="M96.4,11.7c-1.3,0-2.3-0.5-3.1-1.3c-0.6-0.7-0.9-1.5-0.9-2.4c0-0.7,0.2-1.3,0.5-1.9c0.3-0.6,0.8-1,1.4-1.4
				c0.6-0.3,1.3-0.5,2-0.5c0.6,0,1.2,0.1,1.7,0.3c0.5,0.2,1,0.6,1.5,1l0.1,0.1l-0.8,0.7l-0.1-0.1C98.4,6,98,5.7,97.6,5.5
				c-1-0.4-1.9-0.4-2.7,0.1c-0.5,0.3-0.8,0.6-1.1,1c-0.3,0.4-0.4,0.9-0.4,1.3c0,0.5,0.1,0.9,0.4,1.4c0.3,0.4,0.6,0.8,1.1,1
				c0.5,0.3,1,0.4,1.5,0.4c0.7,0,1.2-0.2,1.7-0.6c0.4-0.3,0.7-0.7,0.8-1.2h-2.1v-1h3.3v0.2c0,1.1-0.3,2-1,2.6
				C98.4,11.3,97.5,11.7,96.4,11.7z M96.3,4.6c-0.7,0-1.3,0.2-1.8,0.5c-0.5,0.3-1,0.7-1.3,1.2c-0.3,0.5-0.5,1.1-0.5,1.7
				c0,0.8,0.3,1.5,0.8,2.2c0.7,0.8,1.7,1.2,2.8,1.2c1,0,1.8-0.3,2.3-0.9c0.5-0.5,0.8-1.3,0.9-2.2h-2.6v0.3h2.2l0,0.2
				c-0.1,0.7-0.4,1.2-0.9,1.6c-0.5,0.4-1.1,0.6-1.9,0.6c-0.6,0-1.2-0.1-1.7-0.4c-0.5-0.3-0.9-0.7-1.2-1.2c-0.3-0.5-0.4-1-0.4-1.5
				c0-0.5,0.1-1,0.4-1.5c0.3-0.5,0.7-0.9,1.2-1.1c0.9-0.5,1.9-0.6,3-0.1c0.4,0.2,0.8,0.4,1.2,0.8l0.3-0.3c-0.4-0.4-0.9-0.7-1.3-0.8
				C97.4,4.7,96.9,4.6,96.3,4.6z"/>
		</g>
	</g>
	<g>
		<g>
			<path class="st0" d="M29.6,14.7L29.4,15c-0.2-0.2-0.3-0.3-0.5-0.4c-0.2-0.1-0.4-0.1-0.6-0.1c-0.2,0-0.4,0.1-0.6,0.2
				c-0.2,0.1-0.4,0.3-0.5,0.4c-0.1,0.2-0.2,0.4-0.2,0.6c0,0.2,0.1,0.4,0.2,0.6c0.1,0.2,0.3,0.3,0.5,0.5c0.2,0.1,0.4,0.2,0.7,0.2
				c0.3,0,0.5-0.1,0.7-0.3c0.2-0.2,0.3-0.4,0.4-0.6h-0.9v-0.3h1.2c0,0.4-0.1,0.8-0.4,1c-0.3,0.3-0.6,0.4-1,0.4
				c-0.5,0-0.9-0.2-1.2-0.5c-0.2-0.3-0.4-0.6-0.4-1c0-0.3,0.1-0.5,0.2-0.8c0.1-0.2,0.3-0.4,0.6-0.5c0.2-0.1,0.5-0.2,0.8-0.2
				c0.2,0,0.5,0,0.7,0.1C29.2,14.4,29.4,14.6,29.6,14.7z"/>
			<path class="st0" d="M28.4,17.2c-0.5,0-1-0.2-1.3-0.6c-0.2-0.3-0.4-0.6-0.4-1c0-0.3,0.1-0.5,0.2-0.8c0.1-0.2,0.3-0.4,0.6-0.6
				c0.2-0.1,0.5-0.2,0.8-0.2c0.3,0,0.5,0.1,0.7,0.1c0.2,0.1,0.4,0.2,0.6,0.4l0,0L29.4,15l0,0c-0.2-0.2-0.3-0.3-0.5-0.3
				c-0.4-0.2-0.8-0.2-1.1,0c-0.2,0.1-0.3,0.3-0.5,0.4c-0.1,0.2-0.2,0.4-0.2,0.6c0,0.2,0.1,0.4,0.2,0.6c0.1,0.2,0.3,0.3,0.5,0.4
				c0.2,0.1,0.4,0.2,0.6,0.2c0.3,0,0.5-0.1,0.7-0.2c0.2-0.1,0.3-0.3,0.3-0.5h-0.9v-0.4h1.3v0.1c0,0.5-0.1,0.8-0.4,1.1
				C29.2,17.1,28.8,17.2,28.4,17.2z M28.3,14.3c-0.3,0-0.5,0.1-0.8,0.2c-0.2,0.1-0.4,0.3-0.5,0.5c-0.1,0.2-0.2,0.5-0.2,0.7
				c0,0.4,0.1,0.7,0.3,0.9c0.3,0.3,0.7,0.5,1.2,0.5c0.4,0,0.8-0.1,1-0.4c0.2-0.2,0.4-0.6,0.4-1h-1.1V16h0.9l0,0.1
				c0,0.3-0.2,0.5-0.4,0.7S28.7,17,28.4,17c-0.3,0-0.5-0.1-0.7-0.2c-0.2-0.1-0.4-0.3-0.5-0.5c-0.1-0.2-0.2-0.4-0.2-0.6
				c0-0.2,0.1-0.4,0.2-0.6c0.1-0.2,0.3-0.4,0.5-0.5c0.4-0.2,0.8-0.2,1.2-0.1c0.2,0.1,0.4,0.2,0.5,0.3l0.1-0.1
				c-0.2-0.2-0.4-0.3-0.6-0.4C28.8,14.3,28.5,14.3,28.3,14.3z"/>
		</g>
		<g>
			<path class="st0" d="M31.5,14.3h0.6c0.3,0,0.5,0,0.6,0c0.2,0,0.3,0.1,0.4,0.3c0.1,0.1,0.2,0.3,0.2,0.5c0,0.2,0,0.3-0.1,0.4
				c-0.1,0.1-0.2,0.2-0.3,0.3c-0.1,0.1-0.3,0.1-0.6,0.1l1,1.3H33l-1-1.3h-0.2v1.3h-0.3L31.5,14.3L31.5,14.3z M31.8,14.5v1h0.5
				c0.2,0,0.3,0,0.4-0.1s0.2-0.1,0.2-0.2C33,15.2,33,15.1,33,15s0-0.2-0.1-0.3c-0.1-0.1-0.1-0.1-0.2-0.2c-0.1,0-0.2-0.1-0.4-0.1
				H31.8z"/>
			<path class="st0" d="M33.4,17.2h-0.5l0,0l-1-1.3h-0.1v1.3h-0.4v-2.9h0.6c0.3,0,0.5,0,0.7,0c0.2,0,0.3,0.1,0.4,0.3
				c0.1,0.1,0.2,0.3,0.2,0.5c0,0.2,0,0.3-0.1,0.4c-0.1,0.1-0.2,0.2-0.3,0.3c-0.1,0.1-0.3,0.1-0.5,0.1L33.4,17.2z M33,17h0.2l-1-1.3
				h0.1c0.2,0,0.4,0,0.5-0.1c0.1-0.1,0.2-0.1,0.3-0.2c0.1-0.1,0.1-0.2,0.1-0.4c0-0.2-0.1-0.3-0.2-0.4c-0.1-0.1-0.2-0.2-0.4-0.2
				c-0.1,0-0.3,0-0.6,0h-0.5V17h0.2v-1.3H32l0,0L33,17z M32.3,15.6h-0.5v-1.1h0.6c0.2,0,0.4,0,0.4,0.1c0.1,0,0.2,0.1,0.2,0.2
				C33,14.8,33,14.9,33,15c0,0.1,0,0.2-0.1,0.3c-0.1,0.1-0.1,0.2-0.2,0.2C32.6,15.5,32.5,15.6,32.3,15.6z M31.8,15.5h0.4
				c0.2,0,0.3,0,0.4-0.1c0.1,0,0.1-0.1,0.2-0.2c0.1-0.1,0.1-0.2,0.1-0.2c0-0.1,0-0.2-0.1-0.2c-0.1-0.1-0.1-0.1-0.2-0.2
				c-0.1,0-0.2-0.1-0.4-0.1h-0.4L31.8,15.5L31.8,15.5z"/>
		</g>
		<g>
			<path class="st0" d="M36.4,14.2c0.4,0,0.8,0.1,1.1,0.4s0.4,0.6,0.4,1.1c0,0.4-0.2,0.8-0.4,1.1c-0.3,0.3-0.6,0.4-1.1,0.4
				c-0.4,0-0.8-0.1-1.1-0.4c-0.3-0.3-0.4-0.6-0.4-1c0-0.3,0.1-0.5,0.2-0.8c0.1-0.2,0.3-0.4,0.5-0.6C35.9,14.3,36.1,14.2,36.4,14.2z
				 M36.4,14.5c-0.2,0-0.4,0.1-0.6,0.2c-0.2,0.1-0.3,0.3-0.4,0.4s-0.2,0.4-0.2,0.6c0,0.3,0.1,0.6,0.4,0.9c0.2,0.2,0.5,0.4,0.8,0.4
				c0.2,0,0.4-0.1,0.6-0.2c0.2-0.1,0.3-0.3,0.4-0.4c0.1-0.2,0.2-0.4,0.2-0.6s-0.1-0.4-0.2-0.6c-0.1-0.2-0.3-0.3-0.4-0.4
				C36.8,14.5,36.6,14.5,36.4,14.5z"/>
			<path class="st0" d="M36.4,17.2c-0.4,0-0.8-0.2-1.1-0.5c-0.3-0.3-0.5-0.7-0.5-1.1c0-0.3,0.1-0.5,0.2-0.8c0.1-0.2,0.3-0.4,0.6-0.6
				s0.5-0.2,0.8-0.2c0.4,0,0.8,0.2,1.1,0.5c0.3,0.3,0.5,0.7,0.5,1.1c0,0.4-0.2,0.8-0.5,1.1C37.2,17.1,36.9,17.2,36.4,17.2z
				 M36.4,14.3c-0.3,0-0.5,0.1-0.7,0.2c-0.2,0.1-0.4,0.3-0.5,0.5c-0.1,0.2-0.2,0.5-0.2,0.7c0,0.4,0.1,0.7,0.4,1
				c0.3,0.3,0.6,0.4,1,0.4c0.4,0,0.7-0.1,1-0.4c0.3-0.3,0.4-0.6,0.4-1c0-0.4-0.1-0.7-0.4-1C37.2,14.4,36.8,14.3,36.4,14.3z
				 M36.4,16.9c-0.3,0-0.6-0.1-0.9-0.4c-0.2-0.2-0.4-0.5-0.4-0.9c0-0.2,0.1-0.5,0.2-0.7c0.1-0.2,0.3-0.4,0.5-0.5
				c0.4-0.2,0.9-0.2,1.3,0c0.2,0.1,0.4,0.3,0.5,0.5c0.1,0.2,0.2,0.4,0.2,0.6c0,0.2-0.1,0.5-0.2,0.6c-0.1,0.2-0.3,0.4-0.5,0.5
				C36.9,16.9,36.6,16.9,36.4,16.9z M36.4,14.5c-0.2,0-0.4,0.1-0.6,0.2c-0.2,0.1-0.3,0.3-0.4,0.4c-0.1,0.2-0.2,0.4-0.2,0.6
				c0,0.3,0.1,0.6,0.3,0.8c0.2,0.2,0.5,0.3,0.8,0.3c0.2,0,0.4-0.1,0.6-0.2c0.2-0.1,0.3-0.2,0.4-0.4c0.1-0.2,0.2-0.4,0.2-0.6
				s-0.1-0.4-0.2-0.6c-0.1-0.2-0.2-0.3-0.4-0.4C36.8,14.6,36.6,14.5,36.4,14.5z"/>
		</g>
		<g>
			<path class="st0" d="M39.7,14.3H40V16c0,0.2,0,0.3,0,0.4c0,0.1,0.1,0.2,0.1,0.3c0.1,0.1,0.1,0.1,0.2,0.2c0.1,0.1,0.2,0.1,0.3,0.1
				c0.1,0,0.2,0,0.3-0.1c0.1,0,0.2-0.1,0.2-0.2c0.1-0.1,0.1-0.2,0.1-0.3c0-0.1,0-0.2,0-0.4v-1.7h0.3V16c0,0.3,0,0.5-0.1,0.6
				c-0.1,0.2-0.2,0.3-0.3,0.4c-0.2,0.1-0.3,0.2-0.5,0.2c-0.2,0-0.4-0.1-0.6-0.2c-0.2-0.1-0.3-0.3-0.3-0.4c0-0.1-0.1-0.3-0.1-0.6
				L39.7,14.3L39.7,14.3z"/>
			<path class="st0" d="M40.6,17.2c-0.2,0-0.5-0.1-0.6-0.2c-0.2-0.1-0.3-0.3-0.4-0.5c0-0.1-0.1-0.3-0.1-0.6v-1.8H40V16
				c0,0.3,0,0.3,0,0.4c0,0.1,0,0.2,0.1,0.3c0.1,0.1,0.1,0.1,0.2,0.2c0.2,0.1,0.4,0.1,0.5,0c0.1,0,0.2-0.1,0.2-0.2
				c0.1-0.1,0.1-0.1,0.1-0.2c0-0.1,0-0.2,0-0.4v-1.8h0.4V16c0,0.3,0,0.5-0.1,0.6c-0.1,0.2-0.2,0.3-0.3,0.4
				C41.1,17.2,40.9,17.2,40.6,17.2z M39.7,14.3V16c0,0.3,0,0.5,0.1,0.6c0.1,0.2,0.2,0.3,0.3,0.4c0.2,0.1,0.3,0.2,0.6,0.2
				c0.2,0,0.4-0.1,0.5-0.2c0.1-0.1,0.2-0.2,0.3-0.4c0.1-0.2,0.1-0.4,0.1-0.6v-1.7h-0.2V16c0,0.2,0,0.4,0,0.5c0,0.1-0.1,0.2-0.1,0.3
				c-0.1,0.1-0.1,0.1-0.2,0.2c-0.2,0.1-0.4,0.1-0.6,0c-0.1-0.1-0.2-0.1-0.3-0.2c-0.1-0.1-0.1-0.2-0.1-0.3c0-0.1,0-0.2,0-0.4v-1.7
				H39.7z"/>
		</g>
		<g>
			<path class="st0" d="M43.4,14.3H44c0.3,0,0.5,0,0.7,0c0.2,0,0.3,0.1,0.4,0.3c0.1,0.1,0.2,0.3,0.2,0.5s-0.1,0.3-0.2,0.5
				s-0.2,0.2-0.4,0.3c-0.1,0-0.4,0.1-0.7,0.1h-0.2v1.3h-0.3V14.3L43.4,14.3z M43.7,14.5v1h0.5c0.2,0,0.3,0,0.4-0.1s0.2-0.1,0.2-0.2
				c0.1-0.1,0.1-0.2,0.1-0.3s0-0.2-0.1-0.3c-0.1-0.1-0.1-0.1-0.2-0.2c-0.1,0-0.2-0.1-0.4-0.1H43.7z"/>
			<path class="st0" d="M43.8,17.2h-0.4v-2.9H44c0.3,0,0.6,0,0.7,0.1c0.2,0,0.3,0.1,0.4,0.3c0.1,0.1,0.2,0.3,0.2,0.5
				c0,0.2-0.1,0.4-0.2,0.5c-0.1,0.1-0.3,0.2-0.4,0.3c-0.1,0-0.4,0.1-0.7,0.1h-0.2L43.8,17.2L43.8,17.2z M43.5,17h0.2v-1.3h0.3
				c0.4,0,0.6,0,0.7-0.1c0.2,0,0.3-0.1,0.4-0.2c0.1-0.1,0.1-0.3,0.1-0.4c0-0.2-0.1-0.3-0.1-0.4c-0.1-0.1-0.2-0.2-0.4-0.2
				c-0.1,0-0.3,0-0.6,0h-0.5L43.5,17L43.5,17z M44.2,15.6h-0.5v-1.1h0.6c0.2,0,0.3,0,0.4,0.1c0.1,0,0.2,0.1,0.2,0.2
				c0.1,0.1,0.1,0.2,0.1,0.3c0,0.1,0,0.2-0.1,0.3c-0.1,0.1-0.1,0.2-0.2,0.2C44.5,15.5,44.4,15.6,44.2,15.6z M43.8,15.5h0.4
				c0.2,0,0.3,0,0.4-0.1c0.1,0,0.1-0.1,0.2-0.2c0.1-0.1,0.1-0.2,0.1-0.2c0-0.1,0-0.2-0.1-0.2c-0.1-0.1-0.1-0.1-0.2-0.2
				c-0.1,0-0.2-0.1-0.4-0.1h-0.5L43.8,15.5L43.8,15.5z"/>
		</g>
	</g>
</g>
<g>
	<g>
		
			<linearGradient id="SVGID_1_" gradientUnits="userSpaceOnUse" x1="10.5593" y1="1061.502" x2="22.047" y2="1085.0055" gradientTransform="matrix(1 0 0 -1 0 1082)">
			<stop  offset="0" style="stop-color:#FF9B03"/>
			<stop  offset="8.513950e-02" style="stop-color:#FE9803"/>
			<stop  offset="0.149" style="stop-color:#FC8E03"/>
			<stop  offset="0.2059" style="stop-color:#F87E02"/>
			<stop  offset="0.2588" style="stop-color:#F36702"/>
			<stop  offset="0.3089" style="stop-color:#EC4A01"/>
			<stop  offset="0.3562" style="stop-color:#E42601"/>
			<stop  offset="0.3981" style="stop-color:#DB0000"/>
			<stop  offset="0.675" style="stop-color:#54519B"/>
			<stop  offset="0.8546" style="stop-color:#0084FC"/>
		</linearGradient>
		<path class="st1" d="M22.8,9.5c0-5.2-4.2-9.5-9.5-9.5l0,0c0,0,0,0,0,0c0,0,0,0,0,0c0,0-0.1,0-0.1,0s-0.1,0-0.1,0
			c-0.2,0-0.3,0-0.5,0v2.9c0.2,0,0.5,0,0.7,0c3.6,0,6.5,3,6.5,6.6c0,2.4-1.4,4.6-3.3,5.7c-0.5,0.3-1.1,0.5-1.6,0.7
			c-0.1,0-0.2,0-0.3,0.1c0,0,0,0,0,0c-0.4,0.1-0.8,0.1-1.3,0.1c-0.3,0-0.5,0-0.7,0V19c0.2,0,0.5,0,0.7,0l0,0c0,0,0,0,0,0
			c0,0,0,0,0,0c0,0,0.1,0,0.1,0c0.1,0,0.1,0,0.2,0c0.1,0,0.1,0,0.2,0c0,0,0,0,0,0c0.1,0,0.2,0,0.3,0c0.1,0,0.2,0,0.2,0c0,0,0,0,0,0
			c1.5-0.2,2.9-0.7,4.1-1.5c0,0,0,0,0,0l0,0C21.1,15.8,22.8,12.8,22.8,9.5z"/>
		<rect x="4.4" y="16.1" class="st2" width="1.5" height="1.5"/>
		<rect x="1.5" y="14.6" class="st2" width="1.5" height="1.5"/>
		<rect x="1.5" y="14.6" class="st2" width="1.5" height="1.5"/>
		<rect y="7.3" class="st3" width="1.5" height="1.5"/>
		<rect x="2.9" y="13.2" class="st3" width="1.5" height="1.5"/>
		<rect x="10.2" y="1.5" class="st4" width="1.5" height="1.5"/>
		<rect x="10.2" class="st5" width="1.5" height="1.5"/>
		<rect x="1.5" y="10.2" class="st3" width="1.5" height="1.5"/>
		<rect x="1.5" y="8.8" class="st6" width="1.5" height="1.5"/>
		<rect x="11.7" class="st7" width="1.5" height="1.5"/>
		<rect x="8.8" class="st4" width="1.5" height="1.5"/>
		<rect x="4.4" y="1.5" class="st4" width="1.5" height="1.5"/>
		<rect x="11.7" y="1.5" class="st8" width="1.5" height="1.5"/>
		<rect x="13.2" y="1.5" class="st5" width="1.5" height="1.5"/>
		<rect x="7.3" y="2.9" class="st4" width="1.5" height="1.5"/>
		<rect x="7.3" y="1.5" class="st5" width="1.5" height="1.5"/>
		<rect x="8.8" y="1.5" class="st7" width="1.5" height="1.5"/>
		<rect x="8.8" y="2.9" class="st8" width="1.5" height="1.5"/>
		<rect x="5.9" y="1.5" class="st7" width="1.5" height="1.5"/>
		<rect x="4.4" y="4.4" class="st8" width="1.5" height="1.5"/>
		<rect x="5.9" y="2.9" class="st5" width="1.5" height="1.5"/>
		<rect x="2.9" y="7.3" class="st9" width="1.5" height="1.5"/>
		<rect x="4.4" y="7.3" class="st7" width="1.5" height="1.5"/>
		<rect x="5.9" y="4.4" class="st9" width="1.5" height="1.5"/>
		<rect x="2.9" y="5.9" class="st6" width="1.5" height="1.5"/>
		<rect x="5.9" y="5.9" class="st6" width="1.5" height="1.5"/>
		<rect x="4.4" y="5.9" class="st3" width="1.5" height="1.5"/>
		<rect x="2.9" y="8.8" class="st3" width="1.5" height="1.5"/>
		<rect x="4.4" y="8.8" class="st6" width="1.5" height="1.5"/>
		<rect x="10.2" y="16.1" class="st10" width="1.5" height="1.5"/>
		<rect x="10.2" y="17.5" class="st11" width="1.5" height="1.5"/>
		<rect x="11.7" y="17.5" class="st2" width="1.5" height="1.5"/>
		<rect x="8.8" y="17.5" class="st12" width="1.5" height="1.5"/>
		<rect x="11.7" y="16.1" class="st11" width="1.5" height="1.5"/>
		<rect x="13.2" y="16.1" class="st13" width="1.5" height="1.5"/>
		<rect x="7.3" y="14.6" class="st10" width="1.5" height="1.5"/>
		<rect x="7.3" y="16.1" class="st14" width="1.5" height="1.5"/>
		<rect x="8.8" y="16.1" class="st2" width="1.5" height="1.5"/>
		<rect x="8.8" y="14.6" class="st13" width="1.5" height="1.5"/>
		<rect x="5.9" y="16.1" class="st10" width="1.5" height="1.5"/>
		<rect x="4.4" y="13.2" class="st10" width="1.5" height="1.5"/>
		<rect x="4.4" y="14.6" class="st14" width="1.5" height="1.5"/>
		<rect x="5.9" y="14.6" class="st12" width="1.5" height="1.5"/>
		<rect x="2.9" y="10.2" class="st6" width="1.5" height="1.5"/>
		<rect x="4.4" y="10.2" class="st2" width="1.5" height="1.5"/>
		<rect x="5.9" y="13.2" class="st3" width="1.5" height="1.5"/>
		<rect x="2.9" y="11.7" class="st10" width="1.5" height="1.5"/>
		<rect x="5.9" y="11.7" class="st8" width="1.5" height="1.5"/>
		<rect x="4.4" y="11.7" class="st9" width="1.5" height="1.5"/>
		<rect x="2.9" y="2.9" class="st4" width="1.5" height="1.5"/>
		<rect x="7.3" y="4.4" class="st8" width="0.9" height="0.9"/>
		<rect x="10.2" y="2.9" class="st7" width="0.9" height="0.9"/>
		<rect x="10.2" y="15.2" class="st2" width="0.9" height="0.9"/>
		<rect x="5.9" y="7.3" class="st3" width="0.9" height="0.9"/>
		<rect x="5.9" y="10.8" class="st3" width="0.9" height="0.9"/>
		<rect x="5.9" y="9.1" class="st8" width="0.9" height="0.9"/>
		<rect x="7.3" y="13.7" class="st2" width="0.9" height="0.9"/>
	</g>
</g>
</svg>
