<?xml version="1.0" encoding="utf-8"?>
<!-- Generator: Adobe Illustrator 22.1.0, SVG Export Plug-In . SVG Version: 6.00 Build 0)  -->
<svg version="1.1" id="Слой_1" xmlns="http://www.w3.org/2000/svg" xmlns:xlink="http://www.w3.org/1999/xlink" x="0px" y="0px"
	 viewBox="0 0 100 24" style="enable-background:new 0 0 100 24;" xml:space="preserve">
<style type="text/css">
	.st0{fill:#F8992D;}
	.st1{fill:#525456;}
</style>
<g>
	<g>
		<g>
			<g>
				<path class="st0" d="M23.1,9.9l-9.6,9.6c-0.4,0.4-0.9,0.6-1.5,0.6h-0.4l-0.1-0.1c-0.4-0.1-0.7-0.3-1-0.6L4,13.2
					c-0.4-0.4-0.7-1-0.7-1.6c0-0.6,0.2-1.1,0.7-1.5l1.9-1.9c0.4-0.4,0.9-0.6,1.6-0.6c0.6,0,1.1,0.2,1.5,0.7l2.9,2.9l6.2-6.2
					l-4.1-4.1C13.4,0.3,12.7,0,12,0c-0.8,0-1.4,0.3-2,0.8L0.8,10C0.3,10.5,0,11.2,0,12c0,0.8,0.3,1.4,0.8,2l9.1,9.1
					c0.5,0.5,1.2,0.8,2,0.8c0.8,0,1.4-0.3,2-0.8l9.1-9.1c0.5-0.6,0.8-1.2,0.8-2C23.9,11.2,23.6,10.5,23.1,9.9L23.1,9.9z"/>
			</g>
		</g>
		<path class="st1" d="M21.5,8.9l-9.3,9.3c-0.2,0.2-0.4,0.2-0.6,0l-1.6-1.6c-0.2-0.2-0.2-0.4,0-0.6l9.3-9.3c0.2-0.2,0.4-0.2,0.6,0
			l1.6,1.6C21.7,8.4,21.7,8.7,21.5,8.9z"/>
		<path class="st1" d="M7.4,9.5l6.4,6.4c0.2,0.2,0.2,0.4,0,0.6l-1.6,1.6c-0.2,0.2-0.4,0.2-0.6,0l-6.4-6.4c-0.2-0.2-0.2-0.4,0-0.6
			l1.6-1.6C6.9,9.3,7.2,9.3,7.4,9.5z"/>
	</g>
	<g>
		<path class="st0" d="M26.8,0.1h3l3.3,11l3.4-11h3l-4.8,14.7h-3.2L26.8,0.1z"/>
		<path class="st0" d="M41.1,14.8V0.1h2.8v14.7H41.1z"/>
		<path class="st0" d="M52.2,0.1c1.3,0,2.2,0.3,2.9,1c0.8,0.8,1.1,2,1.1,3.6c0,1.9-0.4,3.1-1.2,3.8c-0.3,0.2-0.4,0.3-0.6,0.4
			C54.3,8.9,54.1,9,53.9,9l2.8,5.8h-3.2l-2.4-5.6L48.6,9v5.8h-2.8V0.1H52.2z M48.7,6.8H52c0.5,0,0.9-0.1,1.1-0.4
			c0.2-0.3,0.3-0.8,0.3-1.6c0-0.8-0.1-1.4-0.4-1.7c-0.2-0.3-0.6-0.5-1.1-0.5h-3.3V6.8z"/>
		<path class="st0" d="M57.7,2.7V0.1h10.8v2.6h-4.1v12.1h-2.8V2.7H57.7z"/>
		<path class="st0" d="M70.2,14.8V0.1H73v14.7H70.2z"/>
		<path class="st1" d="M75.2,14.8V0.1h6.2c3.4,0,5.1,2.5,5.1,7.4c0,3.1-0.7,5.2-2.2,6.4c-0.8,0.6-1.7,0.9-2.9,0.9H75.2z M83.7,7.5
			c0-2.4-0.4-3.9-1.2-4.5c-0.3-0.3-0.8-0.4-1.3-0.4H78v9.7h3.2C82.8,12.3,83.7,10.7,83.7,7.5z"/>
		<path class="st1" d="M88.5,11.2c-0.1-0.5-0.2-1-0.2-1.6c-0.1-0.6-0.1-1.3-0.1-2.2c0-0.9,0-1.7,0.1-2.4c0.1-0.8,0.2-1.4,0.4-1.9
			c0.2-0.5,0.4-1,0.7-1.4C89.7,1.3,90,1,90.3,0.8c0.3-0.2,0.7-0.4,1.1-0.5C92.1,0.1,92.9,0,93.6,0c0.8,0,1.3,0,1.7,0
			c0.4,0,0.7,0.1,1.1,0.2c0.4,0.1,0.7,0.2,1,0.4C97.7,0.8,98,1,98.3,1.2c0.3,0.2,0.5,0.6,0.7,0.9c0.2,0.4,0.4,0.8,0.5,1.3
			c0.3,1,0.4,2.2,0.4,3.5c0,1.3,0,2.3-0.1,3.1c-0.1,0.7-0.2,1.3-0.4,1.8c-0.2,0.5-0.4,1-0.6,1.3c-0.3,0.4-0.6,0.7-0.9,0.9
			c-0.3,0.2-0.7,0.4-1.1,0.5c-1,0.3-2.3,0.4-3.9,0.3c-0.8,0-1.4-0.1-1.8-0.3c-0.4-0.2-0.7-0.3-1-0.5c-0.3-0.2-0.5-0.4-0.7-0.7
			c-0.2-0.3-0.4-0.6-0.5-0.9C88.7,12.1,88.6,11.7,88.5,11.2z M91.2,4.5c-0.1,0.4-0.1,0.8-0.2,1.3C91,6.3,91,6.9,91,7.7
			c0,0.8,0,1.4,0.1,1.9c0.1,0.5,0.1,1,0.3,1.4c0.1,0.4,0.3,0.7,0.6,0.8c0.5,0.3,1.2,0.5,2.2,0.5c0.9,0,1.6-0.2,2.1-0.5
			c0.7-0.5,1-1.9,1-4.2C97.1,6,97,5,96.9,4.4c-0.2-0.5-0.3-0.9-0.5-1.1c-0.1-0.2-0.3-0.4-0.6-0.5c-0.4-0.2-0.9-0.3-1.5-0.3
			c-0.6,0-0.9,0-1.2,0c-0.2,0-0.5,0.1-0.7,0.1c-0.2,0.1-0.4,0.2-0.6,0.3c-0.1,0.1-0.3,0.3-0.4,0.6C91.4,3.9,91.3,4.2,91.2,4.5z"/>
	</g>
	<g>
		<path class="st1" d="M26.8,22.6v-5h2.6v0.6h-2v1.6h1.9v0.6h-1.9v1.8h2.1v0.6H26.8z"/>
		<path class="st1" d="M30.7,22.6v-3.8h0.6v0.4h0c0.1-0.2,0.2-0.3,0.4-0.4c0.2-0.1,0.3-0.1,0.5-0.1c0.4,0,0.7,0.2,0.8,0.6
			c0.1-0.2,0.2-0.3,0.4-0.4c0.2-0.1,0.3-0.2,0.5-0.2c0.4,0,0.7,0.1,0.9,0.4c0.1,0.2,0.1,0.4,0.1,0.8v2.7h-0.6V20
			c0-0.5-0.2-0.8-0.5-0.8c-0.2,0-0.3,0.1-0.5,0.2c-0.2,0.1-0.2,0.3-0.2,0.6v2.6h-0.6V20c0-0.5-0.2-0.8-0.5-0.8
			c-0.2,0-0.3,0.1-0.5,0.2c-0.2,0.1-0.2,0.3-0.2,0.6v2.6H30.7z"/>
		<path class="st1" d="M36.4,23.9v-5h0.6v0.5h0c0-0.2,0.1-0.3,0.3-0.4c0.2-0.1,0.3-0.2,0.5-0.2c0.8,0,1.2,0.6,1.2,1.9
			c0,0.5-0.1,1-0.2,1.4c-0.2,0.5-0.6,0.7-1,0.7c-0.2,0-0.3,0-0.5-0.1S37,22.4,37,22.2v1.7H36.4z M36.9,20.7c0,1,0.3,1.5,0.8,1.5
			c0.3,0,0.4-0.1,0.6-0.4c0.1-0.2,0.1-0.6,0.1-1.1c0-0.9-0.2-1.4-0.7-1.4c-0.3,0-0.5,0.1-0.6,0.4C37,19.9,36.9,20.2,36.9,20.7z"/>
		<path class="st1" d="M40.1,20.7c0-1.3,0.5-2,1.4-2c0.9,0,1.4,0.7,1.4,2c0,1.3-0.5,2-1.4,2C40.5,22.7,40.1,22.1,40.1,20.7z
			 M41.4,22.3c0.5,0,0.8-0.5,0.8-1.5c0-0.5,0-0.8-0.1-1.1c-0.1-0.3-0.3-0.5-0.6-0.5c-0.5,0-0.7,0.5-0.7,1.5
			C40.7,21.7,41,22.3,41.4,22.3z"/>
		<path class="st1" d="M44.7,22.6l-0.9-3.8h0.6l0.6,3.1h0l0.6-3.1h0.7l0.6,3.1h0l0.6-3.1h0.6l-0.9,3.8h-0.6L46,19.5h0l-0.6,3.1H44.7
			z"/>
		<path class="st1" d="M51.8,20.8h-2c0,0.4,0,0.7,0.1,0.9c0.1,0.3,0.3,0.5,0.6,0.5c0.2,0,0.4-0.1,0.5-0.3c0.1-0.2,0.1-0.3,0.1-0.5
			h0.6c0,0.3-0.1,0.6-0.2,0.8c-0.2,0.3-0.6,0.5-1,0.5c-0.5,0-0.8-0.2-1-0.5c-0.2-0.3-0.3-0.8-0.3-1.5c0-1.4,0.4-2,1.3-2
			c0.5,0,0.9,0.2,1.1,0.6c0.1,0.3,0.2,0.7,0.2,1.2V20.8z M49.8,20.3h1.3v-0.2c0-0.6-0.2-0.9-0.7-0.9c-0.2,0-0.4,0.1-0.5,0.3
			c-0.1,0.2-0.1,0.4-0.1,0.7V20.3z"/>
		<path class="st1" d="M53.1,22.6v-3.8h0.6v0.6c0.2-0.4,0.5-0.7,0.8-0.7c0.1,0,0.2,0,0.3,0v0.6c-0.2,0-0.3,0-0.3,0
			c-0.2,0-0.3,0.1-0.5,0.2c-0.2,0.2-0.3,0.4-0.3,0.7v2.4H53.1z"/>
		<path class="st1" d="M55.8,18.3v-0.7h0.6v0.7H55.8z M55.8,22.6v-3.8h0.6v3.8H55.8z"/>
		<path class="st1" d="M57.9,22.6v-3.8h0.6v0.4h0c0.1-0.2,0.2-0.3,0.4-0.4c0.2-0.1,0.3-0.1,0.5-0.1c0.4,0,0.7,0.1,0.9,0.4
			c0.1,0.2,0.1,0.4,0.1,0.8v2.7h-0.6V20c0-0.5-0.2-0.8-0.6-0.8c-0.2,0-0.4,0.1-0.5,0.2c-0.2,0.1-0.3,0.3-0.3,0.6v2.6H57.9z"/>
		<path class="st1" d="M64.3,18.8v3.5c0,1-0.4,1.5-1.3,1.5c-0.8,0-1.2-0.3-1.2-0.9h0.6c0,0.3,0.2,0.5,0.6,0.5c0.3,0,0.5-0.1,0.7-0.3
			c0.1-0.1,0.1-0.3,0.1-0.5v-0.5h0c-0.1,0.2-0.2,0.3-0.3,0.4c-0.2,0.1-0.3,0.1-0.5,0.1c-0.5,0-0.8-0.3-1-0.8
			c-0.1-0.3-0.2-0.7-0.2-1.1c0-1.3,0.4-2,1.2-2c0.2,0,0.4,0.1,0.5,0.2c0.1,0.1,0.2,0.2,0.3,0.4h0v-0.5H64.3z M62.9,19.2
			c-0.3,0-0.4,0.1-0.6,0.4c-0.1,0.2-0.1,0.6-0.1,1.1c0,0.9,0.2,1.4,0.7,1.4c0.3,0,0.5-0.1,0.6-0.4c0.1-0.2,0.1-0.5,0.1-1
			C63.7,19.7,63.5,19.2,62.9,19.2z"/>
		<path class="st1" d="M68.8,22.7l-1.1-3.9h0.6l0.7,3h0l0.7-3h0.6l-1.1,4c-0.1,0.3-0.2,0.6-0.3,0.7c-0.2,0.2-0.4,0.3-0.7,0.3
			c-0.1,0-0.2,0-0.4,0v-0.5c0.1,0,0.2,0,0.3,0c0.2,0,0.4-0.1,0.5-0.4L68.8,22.7z"/>
		<path class="st1" d="M71.3,20.7c0-1.3,0.5-2,1.4-2c0.9,0,1.4,0.7,1.4,2c0,1.3-0.5,2-1.4,2C71.8,22.7,71.3,22.1,71.3,20.7z
			 M72.7,22.3c0.5,0,0.8-0.5,0.8-1.5c0-0.5,0-0.8-0.1-1.1c-0.1-0.3-0.3-0.5-0.6-0.5c-0.5,0-0.7,0.5-0.7,1.5
			C71.9,21.7,72.2,22.3,72.7,22.3z"/>
		<path class="st1" d="M77.7,18.8v3.8h-0.6v-0.4h0c-0.1,0.2-0.2,0.3-0.4,0.4c-0.2,0.1-0.4,0.1-0.5,0.1c-0.4,0-0.7-0.1-0.9-0.4
			c-0.1-0.2-0.1-0.4-0.1-0.8v-2.7h0.6v2.6c0,0.5,0.2,0.8,0.6,0.8c0.2,0,0.4-0.1,0.5-0.2c0.2-0.1,0.3-0.3,0.3-0.6v-2.6H77.7z"/>
		<path class="st1" d="M79.1,22.6v-3.8h0.6v0.6c0.2-0.4,0.5-0.7,0.8-0.7c0.1,0,0.2,0,0.3,0v0.6c-0.2,0-0.3,0-0.3,0
			c-0.2,0-0.3,0.1-0.5,0.2c-0.2,0.2-0.3,0.4-0.3,0.7v2.4H79.1z"/>
		<path class="st1" d="M84.2,18.3v-0.7h0.6v0.7H84.2z M84.2,22.6v-3.8h0.6v3.8H84.2z"/>
		<path class="st1" d="M88.8,17.6v5h-0.6v-0.5h0c0,0.2-0.1,0.3-0.3,0.4c-0.2,0.1-0.3,0.2-0.5,0.2c-0.8,0-1.2-0.7-1.2-2
			c0-1.3,0.4-2,1.2-2c0.2,0,0.3,0,0.5,0.1c0.2,0.1,0.3,0.2,0.3,0.4v-1.7H88.8z M86.7,20.7c0,0.5,0,0.8,0.1,1.1
			c0.1,0.3,0.3,0.4,0.6,0.4c0.3,0,0.5-0.1,0.6-0.4c0.1-0.2,0.1-0.6,0.1-1.1c0-1-0.3-1.5-0.8-1.5c-0.3,0-0.4,0.1-0.6,0.4
			C86.8,19.9,86.7,20.2,86.7,20.7z"/>
		<path class="st1" d="M92.6,20.8h-2c0,0.4,0,0.7,0.1,0.9c0.1,0.3,0.3,0.5,0.6,0.5c0.2,0,0.4-0.1,0.5-0.3c0.1-0.2,0.1-0.3,0.1-0.5
			h0.6c0,0.3-0.1,0.6-0.2,0.8c-0.2,0.3-0.6,0.5-1,0.5c-0.5,0-0.8-0.2-1-0.5c-0.2-0.3-0.3-0.8-0.3-1.5c0-1.4,0.4-2,1.3-2
			c0.5,0,0.9,0.2,1.1,0.6c0.1,0.3,0.2,0.7,0.2,1.2V20.8z M90.7,20.3H92v-0.2c0-0.6-0.2-0.9-0.7-0.9c-0.2,0-0.4,0.1-0.5,0.3
			c-0.1,0.2-0.1,0.4-0.1,0.7V20.3z"/>
		<path class="st1" d="M94.4,20h-0.6c0-0.4,0.1-0.7,0.3-0.9c0.2-0.2,0.5-0.3,1-0.3c0.5,0,0.8,0.1,1,0.4c0.1,0.1,0.1,0.4,0.1,0.7v2.1
			c0,0.2,0.1,0.3,0.2,0.3c0.1,0,0.1,0,0.1,0v0.4c-0.1,0-0.3,0-0.3,0c-0.2,0-0.3,0-0.3-0.1c-0.1-0.1-0.2-0.2-0.2-0.4h0
			c-0.1,0.2-0.2,0.3-0.4,0.4c-0.2,0.1-0.3,0.1-0.5,0.1c-0.7,0-1-0.4-1-1.1c0-0.6,0.2-0.9,0.7-1l0.8-0.2c0.2-0.1,0.3-0.1,0.4-0.2
			c0-0.1,0.1-0.2,0.1-0.4c0-0.4-0.2-0.6-0.6-0.6C94.6,19.2,94.4,19.5,94.4,20L94.4,20z M95.7,21.5v-1c-0.1,0.1-0.2,0.2-0.5,0.2
			c-0.3,0.1-0.5,0.2-0.5,0.2c-0.2,0.1-0.3,0.3-0.3,0.6c0,0.4,0.2,0.6,0.5,0.6c0.2,0,0.4-0.1,0.5-0.2C95.6,21.9,95.7,21.7,95.7,21.5z
			"/>
		<path class="st1" d="M99.9,19.9h-0.6c0-0.3,0-0.4-0.1-0.6c-0.1-0.1-0.2-0.2-0.4-0.2c-0.4,0-0.6,0.2-0.6,0.6c0,0.2,0.1,0.3,0.3,0.5
			c0.1,0,0.3,0.1,0.6,0.2c0.3,0.1,0.5,0.2,0.6,0.3c0.2,0.2,0.3,0.4,0.3,0.8c0,0.4-0.1,0.7-0.3,0.9c-0.2,0.2-0.5,0.3-0.9,0.3
			c-0.9,0-1.3-0.4-1.3-1.3h0.6c0,0.6,0.2,0.9,0.7,0.9c0.1,0,0.3,0,0.4-0.1c0.2-0.1,0.2-0.3,0.2-0.5c0-0.2-0.1-0.4-0.3-0.5
			c-0.1-0.1-0.3-0.1-0.6-0.3c-0.3-0.1-0.5-0.2-0.6-0.3c-0.2-0.2-0.3-0.4-0.3-0.8c0-0.3,0.1-0.6,0.4-0.8c0.2-0.2,0.5-0.3,0.8-0.3
			c0.5,0,0.8,0.1,1,0.4C99.8,19.4,99.9,19.6,99.9,19.9z"/>
	</g>
</g>
</svg>
