<svg xmlns="http://www.w3.org/2000/svg" xmlns:xlink="http://www.w3.org/1999/xlink" viewBox="0 0 127.56 127.56"><defs><style>.cls-1{fill:none;}.cls-2{clip-path:url(#clip-path);}.cls-3{fill:#f1dd40;}.cls-4{clip-path:url(#clip-path-2);}.cls-11,.cls-5,.cls-9{fill:#231f20;}.cls-6{clip-path:url(#clip-path-4);}.cls-7{font-size:10.07px;}.cls-14,.cls-7,.cls-8{fill:#fff;}.cls-7,.cls-8{font-family:CabinSketch-Bold, Cabin Sketch;}.cls-11,.cls-7,.cls-8{font-weight:700;}.cls-8{font-size:12.01px;}.cls-9{font-size:36.61px;font-family:IndieFlower-Regular, Indie Flower;}.cls-10{clip-path:url(#clip-path-9);}.cls-11{font-size:87.86px;font-family:NeutraText-Bold, Neutra Text;}.cls-12{clip-path:url(#clip-path-10);}.cls-13{clip-path:url(#clip-path-11);}</style><clipPath id="clip-path"><path class="cls-1" d="M5.76,0A5.69,5.69,0,0,0,.19,5.67v116a5.68,5.68,0,0,0,5.67,5.67h116a5.68,5.68,0,0,0,5.67-5.67V5.67A5.69,5.69,0,0,0,122,0Z"/></clipPath><clipPath id="clip-path-2"><rect class="cls-1" x="50.03" y="33.16" width="77.77" height="97.68"/></clipPath><clipPath id="clip-path-4"><rect class="cls-1" width="127.56" height="127.56"/></clipPath><clipPath id="clip-path-9"><rect id="SVGID" class="cls-1" x="146.08" width="130.52" height="92.13"/></clipPath><clipPath id="clip-path-10"><rect id="SVGID-2" data-name="SVGID" class="cls-1" x="-0.01" y="147.55" width="127.58" height="127.58"/></clipPath><clipPath id="clip-path-11"><path id="SVGID-3" data-name="SVGID" class="cls-1" d="M5.66,147.59A5.67,5.67,0,0,0,0,153.26V269.51a5.67,5.67,0,0,0,4.94,5.62h117.7a5.67,5.67,0,0,0,4.94-5.62V153.26a5.67,5.67,0,0,0-5.67-5.67Z"/></clipPath></defs><title>beerjs.cat</title><g id="Layer_1" data-name="Layer 1"><g class="cls-2"><path class="cls-3" d="M121.89,127.37H5.86A5.68,5.68,0,0,1,.19,121.7V5.67A5.68,5.68,0,0,1,5.86,0h116a5.68,5.68,0,0,1,5.67,5.67v116a5.68,5.68,0,0,1-5.67,5.67"/><g class="cls-4"><g class="cls-4"><path class="cls-5" d="M106.08,57.71c-.44.87-.86,1.74-1.3,2.6-.21.41-.49,1-1,.47-2.25-2.12-5.19-2.76-8-3.74-1.25-.44-1.54-.89-.56-2,.46-.54,2.08-1.37.22-2.41-.57-.32,0-1,.25-1.53a10.8,10.8,0,0,0,1.68-3.32c-1,0-1.86.65-2.82.54s-1.68-1-1.13-1.75c.19-.27.63-.61.78-.14.5,1.57,1.4.59,2.18.43a5.78,5.78,0,0,0,.63-.28c.52-.19,1.06-.74,1.58-.26s.08,1.2-.16,1.74c-.56,1.25-1.2,2.47-1.82,3.73a3.3,3.3,0,0,0,2-.39c.38-.11.86-.28,1.08.16s-.23.68-.59.87a3.42,3.42,0,0,0-.9.5c-.88.83-2,1.82-1.93,2.91.08.93,1.64,1,2.6,1.24a10.29,10.29,0,0,1,5,2.76,18.31,18.31,0,0,0,1.78-4.34c2.14-7.47-.93-13.8-4.28-20.05-.87-1.61-1.77-1.73-3.19-.45A17.18,17.18,0,0,0,93,43.47c-.79,3-1.2,6.08-3.31,8.59a2.63,2.63,0,0,1-1.44,1A8.37,8.37,0,0,1,83.29,53c-3.68-1.29-7-.35-10.21,1.48C68.69,57,65.51,60.6,62.7,64.7a16.06,16.06,0,0,1-4.11,4.07c-4.85,3.3-5.63,8-4.7,13.23.53,3,1.58,5.86,2.25,8.82a14,14,0,0,1,.19,3.6c-.1,3.94,1.69,7.08,4.12,10a3.72,3.72,0,0,0,2.82,1.11,51.06,51.06,0,0,0,19.38-2.17c.33-.11.71-.36.93,0s-.16.7-.51.89c-2,1.14-4.29,1.23-6.5,1.59a53.19,53.19,0,0,1-9.6.82,1.25,1.25,0,0,0-1.42.88A26,26,0,0,1,57.92,118a17.53,17.53,0,0,0-6.7,11.39,4.92,4.92,0,0,1-.21.84c-.12.3-.23.71-.69.57s-.32-.44-.25-.72c1-3.88,1.46-7.92,4.92-10.71A33.62,33.62,0,0,0,63.73,109c.27-.5.55-1,.78-1.53s.1-.9-.54-1c-5.51-.39-6.81-4.71-8.26-8.86-.54-1.55-.3-3.2-.49-4.79a60.16,60.16,0,0,0-2.09-9.58,19.82,19.82,0,0,1-.13-8.9c.48-2.78,2.72-4.44,4.7-6.19,4.06-3.58,3.57-2.77,1.19-7.07a29.43,29.43,0,0,0-4.55-5.61c-.39-.42-1.22-.89-.74-1.54a1.61,1.61,0,0,1,2.18-.27l5.49,2.89c.7.38,1.37.84,2.1,1.18,1.48.71,2.56,1,4.16-.53a21.64,21.64,0,0,1,8.92-5.38,11.65,11.65,0,0,1,6.62,0c4.15,1.24,6.27.15,7.74-3.92a7,7,0,0,0,.52-1.81c.27-3.91,2.43-7,4.33-10.2a6.54,6.54,0,0,1,2.84-2.44,2.44,2.44,0,0,1,3.43.87c2.58,3.52,3.54,7.68,4.83,11.71a20,20,0,0,1,.75,7,3.66,3.66,0,0,0,1,2.41c2.57,3.56,5.31,7,5.34,11.84,0,2.77,1.5,5.16,3.19,7.31,2.24,2.86,4.45,5.76,5.22,9.4A73.07,73.07,0,0,1,123.65,95c.24,4.08.95,8,3.73,11.22.3.35.69.81.15,1.17s-.67-.26-.91-.54a16.73,16.73,0,0,1-3.85-10.31,107,107,0,0,0-1.5-12.14,16.43,16.43,0,0,0-3.68-7.33A22,22,0,0,1,113,68.7c-.21-.85-1-1-1.53-1.52-1.53-1.59-2.66-3.56-4.63-4.72-.39-.23-.3-.72-.31-1.12,0-1.19,0-2.39,0-3.58l-.4,0M112.75,67a9.75,9.75,0,0,0,0-1.3c-.55-3.28-2.43-5.89-4.28-8.52a.88.88,0,0,0-.72-.32c-.43.12-.25.56-.27.88-.32,4.09,2.51,6.38,5.28,9.26M57.09,56.75a43.77,43.77,0,0,1,4,6.33c.3.61.85.77,1.21.29s1.66-1.49.79-2.08c-2.1-1.41-3.61-3.54-6-4.54m3.58.93a8.12,8.12,0,0,0,3,2.62A.75.75,0,0,0,64.83,60c.38-.62-.24-.61-.55-.75-1.06-.48-2.14-.94-3.61-1.58"/><path class="cls-5" d="M75.82,102.56c-2.73,0-5.46.36-8.21.48a9.38,9.38,0,0,1-3.88-.67c-.32-.12-.66-.33-.48-.75a.55.55,0,0,1,.76-.19c2.8,1.21,5.67.32,8.51.27,1.83,0,3.68-.31,5.5-.2,5.24.33,9.18-2.43,13.12-5.26,5.31-3.81,10.51-7.79,16.52-10.5A9.31,9.31,0,0,0,110.94,83c.24-.3.45-.83.9-.48s.11.74-.13,1.07a9,9,0,0,1-3.5,3C102.29,89.21,97.14,93.08,92,96.9c-4.82,3.58-9.83,6.42-16.16,5.66"/><path class="cls-5" d="M73.86,95.05l1.91-1c.28-.15.61-.5.88-.11s-.05.77-.4,1c-.85.47-1.72.91-2.6,1.3-.23.11-.52.06-.79.23-2.25,1.47-2.26,1.47-4-.31-.21-.21-.34-.47-.67-.25s-.55.79-1,.39.08-.82.27-1.22c.57-1.17,1.4-2.24,1.39-3.65,0-.71.44-.85,1.06-.65l.31.15c5,2.44,9.67,1.2,14.26-1.17l.6-.33c.31-.18.69-.36.9,0s-.13.66-.43.83a20.4,20.4,0,0,1-6.18,2.53c-1.75.35-3.65.27-5.2,1.4a.65.65,0,0,0-.3.88m-.54-1.63c.05-.38-1.52-1.18-2.71-1.29-1.38-.12-1,1.25-1.44,1.91s.9,2.41,1.58,2.49,2.44-2,2.57-3.11"/><path class="cls-5" d="M73.72,70.15a10.53,10.53,0,0,1,2.64-5.71,3.25,3.25,0,0,1,3.48-1c5.24,1.48,6.45,4.35,3,8.83A7.67,7.67,0,0,1,78,75.07c-2.39.44-4.27-1.51-4.28-4.92m1,.09c0,3.18,1.68,4.42,4.26,3.51a6.76,6.76,0,0,0,4-3.55c1.53-3.19,1.14-3.42-1.68-5.14-1.35-.82-3-1.27-4.29.14a8.94,8.94,0,0,0-2.31,5"/><path class="cls-5" d="M65.15,74c-.13,3.28-.83,5.49-3.16,6.92a3.49,3.49,0,0,1-5.18-1.21c-2.47-4.2.83-8.48,4.76-9.32,1.89-.4,3.63,1.87,3.58,3.61M64,74.89c.16-2.09-1-3.72-2.47-3.53-2.8.36-5.2,4-4.4,6.74.71,2.44,2.73,3.11,4.76,1.62A5.5,5.5,0,0,0,64,74.89"/><path class="cls-5" d="M73.06,76.91a7.36,7.36,0,0,1-.26,1.23,20.67,20.67,0,0,0-1.24,5.33,5.09,5.09,0,0,1-1,2.55,1.42,1.42,0,0,1-1.45.72c-.66-.16-.81-.77-.87-1.35s.12-1.23.8-1.33c1.14-.16,1.39-.81,1.57-1.86.34-2,.95-3.88,1.44-5.82.07-.29.14-.62.5-.56.56.1.4.6.47,1.09"/><path class="cls-5" d="M63,84.63c.15-.92.34-2.27.62-3.61.09-.43.41-1,1-.68s0,.66,0,1c-.2,1.17-.39,2.36-.53,3.54-.06.51-.12,1,.77.89,1.16-.09,1.18,1,1.36,1.81a.42.42,0,0,1-.49.53C64,88,63,86.82,63,84.63"/><path class="cls-5" d="M81.33,68.23a3.1,3.1,0,0,1-2.8,3.13c-1.23,0-1.76-.59-1.78-1.78,0-1.78,1.25-3.57,2.62-3.49a1.93,1.93,0,0,1,2,2.14"/><path class="cls-5" d="M62,75.39a5.08,5.08,0,0,1-.59,2.51,1.45,1.45,0,0,1-1.68.9,1.5,1.5,0,0,1-1.23-1.46A5.22,5.22,0,0,1,59,74.66c.37-.81.78-1.78,2-1.58S62,74.34,62,75.39"/></g></g></g><g class="cls-6"><path class="cls-5" d="M48.28,42.13a5.74,5.74,0,0,1-2.88-1L45.1,41a2.46,2.46,0,0,1-1.22-2.33l.06-.85A10.2,10.2,0,0,0,44,36.14a39.45,39.45,0,0,1-.07-5.09c0-1.06.08-2.29,0-3.47,0-.64,0-1.28,0-1.89,0-.86,0-1.66-.05-2.47a8.22,8.22,0,0,1,1.46-5l.49-.74a5.66,5.66,0,0,0,1-2.12c.11-.61.18-1.24.25-1.85s.12-1,.19-1.49c.12-.75.19-1.53.27-2.28a28.62,28.62,0,0,1,.6-4.06A.69.69,0,0,1,49.54,6,28.39,28.39,0,0,0,49,9.89c-.08.77-.16,1.57-.27,2.36-.08.47-.13,1-.19,1.44-.07.63-.15,1.28-.26,1.92A6.76,6.76,0,0,1,47,18.27c-.16.24-.31.46-.45.69a6.71,6.71,0,0,0-1.26,4.14,25.23,25.23,0,0,1,0,2.6c0,.61,0,1.23,0,1.83.05,1.22,0,2.49,0,3.58A38.65,38.65,0,0,0,45.36,36a11.59,11.59,0,0,1,0,1.86c0,.28,0,.54-.05.8a1.12,1.12,0,0,0,.52,1.07l.31.18a3.94,3.94,0,0,0,2.45.8,6.88,6.88,0,0,1,1.11,0,6.4,6.4,0,0,0,.88,0,13.26,13.26,0,0,1,1.89,0,6.27,6.27,0,0,0,3.3-.46c1.11-.59,1.41-.89,1.41-1.85V34.21c0-3.6,0-7.31,0-11a7.49,7.49,0,0,0-1-3.79c-.19-.32-.38-.63-.59-1a8.24,8.24,0,0,1-1.59-4.08c0-.14,0-.28,0-.42a3.59,3.59,0,0,0-.05-.76,23,23,0,0,1-.33-2.42c-.06-.55-.12-1.11-.2-1.66-.06-.37-.09-.74-.12-1.1a7.57,7.57,0,0,0-.35-2,.69.69,0,0,1,.41-.88.68.68,0,0,1,.88.4,8.77,8.77,0,0,1,.43,2.31c0,.35.06.68.11,1,.09.58.15,1.16.21,1.73.08.79.16,1.54.31,2.28a6.36,6.36,0,0,1,.08,1v.37a7.2,7.2,0,0,0,1.39,3.41c.21.33.42.67.61,1a8.73,8.73,0,0,1,1.22,4.47c0,3.65,0,7.36,0,11v4.18c0,1.79-1,2.44-2.15,3.07a7.4,7.4,0,0,1-4,.61,13.73,13.73,0,0,0-1.7,0,7.41,7.41,0,0,1-1,0,7,7,0,0,0-.92,0l-.41,0"/><path class="cls-5" d="M44.83,36.07h5.76c1.5,0,1.81-.32,1.81-1.81v-8.6c0-1.37-.36-1.73-1.72-1.73H44.83"/><path class="cls-5" d="M53.52,6.46h-4a2,2,0,0,1-2.07-1.87A1.83,1.83,0,0,1,48,3.27a2.18,2.18,0,0,1,1.59-.59c.49,0,1,0,1.47,0h1.63a2,2,0,0,1,2.1,1.11A1.82,1.82,0,0,1,54.18,6V6l-.08.13a.67.67,0,0,1-.57.3M50.33,4.05h-.76a.85.85,0,0,0-.61.17.45.45,0,0,0-.09.32c0,.4.38.54.69.54h3.59L53.24,5c.36-.31.33-.48.25-.67s-.16-.29-.82-.28H50.33"/><path class="cls-5" d="M55.41,24.62a.68.68,0,0,1-.68-.63c0-.26,0-.51,0-.75a5.32,5.32,0,0,0-.05-.91A6.74,6.74,0,0,0,53.6,20c-.17-.28-.35-.57-.51-.87a.68.68,0,1,1,1.2-.66c.15.27.31.53.48.81A8,8,0,0,1,56,22.09a5.73,5.73,0,0,1,.06,1.15c0,.23,0,.44,0,.64a.69.69,0,0,1-.63.74h-.06"/><path class="cls-5" d="M47,39.25a.68.68,0,0,1-.12-1.36,13.18,13.18,0,0,1,3.07,0l.61,0a.69.69,0,1,1-.07,1.37l-.63,0a12,12,0,0,0-2.75,0H47"/></g><text class="cls-7" transform="translate(45.66 32.99)">V</text><g class="cls-6"><path class="cls-5" d="M35,49a5.74,5.74,0,0,1-2.88-1l-.3-.17a2.49,2.49,0,0,1-1.22-2.34l.06-.85a10.2,10.2,0,0,0,0-1.63,39.45,39.45,0,0,1-.07-5.09c0-1,.08-2.29,0-3.47,0-.64,0-1.27,0-1.89,0-.86,0-1.66-.05-2.47a8.22,8.22,0,0,1,1.46-5l.49-.74a5.69,5.69,0,0,0,1-2.11c.1-.61.18-1.25.25-1.86s.12-1,.19-1.49c.11-.75.19-1.53.27-2.28a28.84,28.84,0,0,1,.6-4.06.69.69,0,0,1,.83-.51.7.7,0,0,1,.51.84,26.57,26.57,0,0,0-.57,3.86c-.08.77-.16,1.57-.28,2.36-.07.47-.12,1-.18,1.44-.08.63-.15,1.28-.26,1.93a6.79,6.79,0,0,1-1.26,2.65c-.16.24-.31.46-.45.69A6.82,6.82,0,0,0,32,30a22.87,22.87,0,0,1,0,2.61c0,.6,0,1.22,0,1.82.05,1.22,0,2.49,0,3.58a38.65,38.65,0,0,0,.06,4.91,11.59,11.59,0,0,1,0,1.86c0,.28,0,.54-.05.8a1.14,1.14,0,0,0,.52,1.08l.31.17a4,4,0,0,0,2.45.81,6.9,6.9,0,0,1,1.11,0,6.24,6.24,0,0,0,.87,0,14.93,14.93,0,0,1,1.89,0,6.29,6.29,0,0,0,3.31-.46c1.11-.59,1.41-.88,1.41-1.84V41.1c0-3.59,0-7.31,0-11a7.4,7.4,0,0,0-1-3.79c-.18-.32-.37-.63-.58-1a8.3,8.3,0,0,1-1.6-4.08v-.42a4.55,4.55,0,0,0-.05-.76,23,23,0,0,1-.33-2.42c-.06-.55-.12-1.11-.2-1.66-.06-.37-.09-.74-.13-1.1A7.17,7.17,0,0,0,39.62,13a.69.69,0,0,1,1.29-.48,8.77,8.77,0,0,1,.43,2.31c0,.35.06.69.11,1,.09.58.15,1.16.21,1.73.08.79.16,1.54.31,2.29a5.2,5.2,0,0,1,.07,1c0,.13,0,.25,0,.37a7.17,7.17,0,0,0,1.39,3.42c.21.32.42.66.61,1a8.73,8.73,0,0,1,1.22,4.47c0,3.65,0,7.37,0,11v4.19c0,1.78-1,2.44-2.15,3.06a7.32,7.32,0,0,1-4,.61,13.73,13.73,0,0,0-1.7,0,6.28,6.28,0,0,1-1.06,0,6.83,6.83,0,0,0-.91,0L35,49"/><path class="cls-5" d="M31.57,43h5.77c1.5,0,1.81-.32,1.81-1.81v-8.6c0-1.37-.37-1.72-1.72-1.72H31.57"/><path class="cls-5" d="M40.27,13.35h-4a2,2,0,0,1-2.07-1.87,1.83,1.83,0,0,1,.47-1.32,2.18,2.18,0,0,1,1.59-.59h3.1a2,2,0,0,1,2.1,1.11,1.82,1.82,0,0,1-.57,2.23v0l-.08.13a.67.67,0,0,1-.57.3m-3.19-2.41h-.76a.85.85,0,0,0-.61.17.38.38,0,0,0-.09.32c0,.4.38.54.69.54H39.9l.09-.09c.36-.31.33-.48.25-.67s-.16-.29-.82-.28H37.08"/><path class="cls-5" d="M42.16,31.51a.69.69,0,0,1-.69-.63,6.31,6.31,0,0,1,0-.75,5.38,5.38,0,0,0-.05-.91,6.85,6.85,0,0,0-1.07-2.36c-.17-.28-.34-.57-.5-.87a.67.67,0,0,1,.27-.93.69.69,0,0,1,.93.27q.23.41.48.81A8.09,8.09,0,0,1,42.77,29a6.41,6.41,0,0,1,.06,1.14c0,.23,0,.44,0,.64a.69.69,0,0,1-.64.74h-.05"/><path class="cls-5" d="M33.73,46.15a.69.69,0,0,1-.12-1.37,13.11,13.11,0,0,1,3.06-.05l.62,0a.69.69,0,1,1-.07,1.37l-.63,0a11.46,11.46,0,0,0-2.75,0h-.11"/></g><text class="cls-7" transform="translate(33.9 39.83)">I</text><g class="cls-6"><path class="cls-5" d="M21.89,56.2a5.74,5.74,0,0,1-2.88-1l-.3-.18a2.46,2.46,0,0,1-1.22-2.33l.06-.85a10.2,10.2,0,0,0,.05-1.63,39.45,39.45,0,0,1-.07-5.09c0-1.06.08-2.3,0-3.47,0-.64,0-1.28,0-1.89,0-.86,0-1.66,0-2.47a8.22,8.22,0,0,1,1.46-5l.49-.74a5.66,5.66,0,0,0,1-2.12c.1-.61.18-1.24.25-1.85s.12-1,.19-1.49c.11-.75.19-1.53.27-2.29a28.7,28.7,0,0,1,.6-4.05.69.69,0,1,1,1.34.32A26.92,26.92,0,0,0,22.58,24c-.08.77-.16,1.57-.28,2.36-.07.47-.13,1-.18,1.44S22,29,21.86,29.68a6.76,6.76,0,0,1-1.26,2.66c-.16.24-.31.46-.45.69a6.73,6.73,0,0,0-1.27,4.14,22.74,22.74,0,0,1,.05,2.6c0,.61,0,1.23,0,1.83,0,1.22,0,2.49,0,3.58A36.68,36.68,0,0,0,19,50.09a11.62,11.62,0,0,1,0,1.86c0,.28,0,.54-.05.8a1.12,1.12,0,0,0,.52,1.07l.31.18a3.94,3.94,0,0,0,2.45.8,6.88,6.88,0,0,1,1.11,0,6.24,6.24,0,0,0,.87,0,13.28,13.28,0,0,1,1.89,0,6.26,6.26,0,0,0,3.3-.46c1.12-.59,1.42-.89,1.42-1.85V48.28c0-3.6,0-7.31,0-11a7.4,7.4,0,0,0-1-3.79c-.18-.32-.37-.63-.58-1a8.34,8.34,0,0,1-1.6-4.08v-.42a4.4,4.4,0,0,0-.05-.76,23,23,0,0,1-.33-2.42c-.06-.55-.12-1.11-.2-1.66-.06-.37-.09-.74-.13-1.1a7.57,7.57,0,0,0-.34-1.95.69.69,0,0,1,1.29-.48A8.69,8.69,0,0,1,28.2,22c0,.35.06.68.11,1,.09.58.15,1.16.2,1.73.09.79.17,1.54.32,2.28a5.35,5.35,0,0,1,.07,1c0,.13,0,.25,0,.37a7.1,7.1,0,0,0,1.39,3.41c.2.33.42.67.61,1a8.73,8.73,0,0,1,1.22,4.47c0,3.65,0,7.36,0,11v4.18c0,1.79-1,2.44-2.15,3.07a7.42,7.42,0,0,1-4,.61,13.73,13.73,0,0,0-1.7,0,7.54,7.54,0,0,1-1.06,0,6.83,6.83,0,0,0-.91,0l-.41,0"/><path class="cls-5" d="M18.43,50.14H24.2c1.5,0,1.81-.32,1.81-1.81v-8.6c0-1.37-.37-1.72-1.72-1.72H18.43"/><path class="cls-5" d="M27.13,20.53h-4a2,2,0,0,1-2.07-1.87,1.83,1.83,0,0,1,.47-1.32,2.18,2.18,0,0,1,1.59-.59c.49,0,1,0,1.47,0h1.63a2,2,0,0,1,2.1,1.11,1.82,1.82,0,0,1-.57,2.23v0l-.08.13a.67.67,0,0,1-.57.3m-3.19-2.41h-.76a.85.85,0,0,0-.61.17.38.38,0,0,0-.09.32c0,.4.38.54.69.54h3.59l.09-.09c.36-.31.33-.48.25-.67s-.16-.29-.82-.28H23.94"/><path class="cls-5" d="M29,38.69a.69.69,0,0,1-.69-.63,6.31,6.31,0,0,1,0-.75,5.32,5.32,0,0,0-.05-.91A6.77,6.77,0,0,0,27.2,34c-.17-.28-.34-.57-.5-.87a.67.67,0,0,1,.27-.93.68.68,0,0,1,.93.27c.15.27.31.53.48.81a8,8,0,0,1,1.25,2.84,6.57,6.57,0,0,1,.06,1.15c0,.23,0,.44,0,.64a.69.69,0,0,1-.64.74H29"/><path class="cls-5" d="M20.59,53.32A.68.68,0,0,1,20.47,52a13.11,13.11,0,0,1,3.06-.05l.62,0a.69.69,0,0,1-.07,1.37l-.63,0a12.59,12.59,0,0,0-2.75,0h-.11"/></g><text class="cls-7" transform="translate(19.61 47.06)">Y</text><g class="cls-6"><path class="cls-5" d="M8.21,63.16a5.74,5.74,0,0,1-2.88-1L5,62a2.51,2.51,0,0,1-1.22-2.34l.06-.85a10.16,10.16,0,0,0,0-1.63,39.33,39.33,0,0,1-.07-5.08c0-1.06.08-2.3,0-3.48,0-.63,0-1.27,0-1.89,0-.85,0-1.66,0-2.47a8.19,8.19,0,0,1,1.46-5c.16-.26.33-.51.49-.75a5.62,5.62,0,0,0,1-2.11c.11-.61.18-1.25.25-1.86s.12-1,.19-1.48c.12-.76.2-1.54.27-2.29a30.38,30.38,0,0,1,.6-4.06.69.69,0,0,1,1.34.33,28.16,28.16,0,0,0-.57,3.87c-.08.77-.16,1.56-.27,2.35-.07.48-.13,1-.19,1.44-.07.63-.15,1.28-.26,1.93A6.79,6.79,0,0,1,6.92,39.3c-.16.24-.31.46-.45.69a6.73,6.73,0,0,0-1.26,4.14c.07.88.06,1.76,0,2.61,0,.6,0,1.22,0,1.82,0,1.22,0,2.5,0,3.58a38.62,38.62,0,0,0,.06,4.91,12.87,12.87,0,0,1,0,1.86c0,.28,0,.54-.06.81a1.13,1.13,0,0,0,.52,1.07L6,61a4,4,0,0,0,2.45.8,6.9,6.9,0,0,1,1.11,0,6.4,6.4,0,0,0,.88,0,14.92,14.92,0,0,1,1.89,0,6.17,6.17,0,0,0,3.3-.46c1.11-.59,1.41-.88,1.41-1.84V55.24c0-3.59,0-7.31,0-11a7.44,7.44,0,0,0-1-3.79c-.19-.32-.38-.64-.59-1a8.2,8.2,0,0,1-1.59-4.07c0-.14,0-.29,0-.43a3.69,3.69,0,0,0,0-.76c-.16-.81-.25-1.63-.33-2.42-.06-.54-.12-1.11-.2-1.65-.06-.38-.09-.75-.12-1.11a7.1,7.1,0,0,0-.35-1.94.69.69,0,0,1,.41-.89.69.69,0,0,1,.88.4A8.77,8.77,0,0,1,14.52,29c0,.35.06.69.11,1,.09.57.15,1.16.21,1.72.08.79.16,1.54.31,2.29a5.3,5.3,0,0,1,.08,1v.38a7.2,7.2,0,0,0,1.39,3.41c.21.32.42.66.61,1a8.73,8.73,0,0,1,1.22,4.47c0,3.65,0,7.37,0,11v4.19c0,1.78-1,2.44-2.15,3.06a7.41,7.41,0,0,1-4,.62,12.05,12.05,0,0,0-1.7,0,7.42,7.42,0,0,1-1.05,0,4.68,4.68,0,0,0-.92,0l-.41,0"/><path class="cls-5" d="M4.76,57.1h5.76c1.5,0,1.81-.31,1.81-1.8V46.69c0-1.36-.36-1.72-1.72-1.72H4.76"/><path class="cls-5" d="M13.45,27.5h-4a2,2,0,0,1-2.06-1.87,1.75,1.75,0,0,1,.46-1.32,2.14,2.14,0,0,1,1.59-.6h3.1a2,2,0,0,1,2.1,1.11A1.81,1.81,0,0,1,14.11,27v0l-.08.12a.68.68,0,0,1-.57.31m-3.19-2.41H9.5a.85.85,0,0,0-.61.17.45.45,0,0,0-.09.32c0,.4.38.54.69.54h3.59l.09-.09c.36-.31.33-.47.25-.67s-.15-.29-.82-.28H10.26"/><path class="cls-5" d="M15.34,45.66a.69.69,0,0,1-.68-.64c0-.26,0-.51,0-.75a5.38,5.38,0,0,0-.05-.91A6.83,6.83,0,0,0,13.53,41c-.17-.28-.35-.57-.51-.86a.69.69,0,0,1,1.21-.67c.14.27.3.54.47.82A8,8,0,0,1,16,43.13,6.51,6.51,0,0,1,16,44.28a4.53,4.53,0,0,0,0,.64.68.68,0,0,1-.63.73h-.06"/><path class="cls-5" d="M6.91,60.29a.69.69,0,0,1-.11-1.37,13.66,13.66,0,0,1,3.06-.05l.61,0a.69.69,0,0,1-.07,1.38l-.63,0a12,12,0,0,0-2.75,0H6.91"/></g><text class="cls-8" transform="translate(4.99 55.12)">K</text><g class="cls-6"><text class="cls-9" transform="translate(87.25 128.72) rotate(-21.8)">JS</text></g></g><g id="Layer_3" data-name="Layer 3"><g class="cls-10"><text class="cls-11" transform="translate(24.26 76.8)">JS</text></g></g><g id="Layer_2" data-name="Layer 2"><g class="cls-12"><g class="cls-13"><path class="cls-14" d="M131.44,159.4a5.17,5.17,0,0,1-2.74-.82l-.29-.15a2.25,2.25,0,0,1-.91-.9,2.35,2.35,0,0,1-.27-1.28c0-.27,0-.55.06-.82a10.29,10.29,0,0,0,0-1.57,39.71,39.71,0,0,1-.09-4.88c0-1,.07-2.2,0-3.33,0-.61,0-1.22,0-1.81a23.31,23.31,0,0,0,0-2.37,7.68,7.68,0,0,1,1.38-4.76c.14-.24.3-.48.45-.71a5.11,5.11,0,0,0,1-2c.09-.58.16-1.18.23-1.78s.1-.93.17-1.41c.1-.71.17-1.45.24-2.17a27,27,0,0,1,.55-3.82.64.64,0,0,1,.1-.24.77.77,0,0,1,.18-.18.73.73,0,0,1,.25-.08.59.59,0,0,1,.26,0,.72.72,0,0,1,.23.12.91.91,0,0,1,.18.21.67.67,0,0,1,.08.25.74.74,0,0,1,0,.26,25.08,25.08,0,0,0-.52,3.68c-.08.72-.15,1.47-.25,2.21-.07.45-.12.92-.17,1.37s-.14,1.21-.24,1.82a6.21,6.21,0,0,1-1.17,2.5c-.16.23-.3.44-.43.66a6.41,6.41,0,0,0-1.19,3.94c.08.84.07,1.68.07,2.5,0,.57,0,1.17,0,1.74.05,1.17,0,2.39,0,3.43a38.64,38.64,0,0,0,.08,4.69,10.72,10.72,0,0,1,0,1.79c0,.27,0,.52,0,.77a1.06,1.06,0,0,0,.11.58.93.93,0,0,0,.39.42l.3.16a3.71,3.71,0,0,0,2.32.66,6.16,6.16,0,0,1,1.05-.05,7.5,7.5,0,0,0,.82,0,11.39,11.39,0,0,1,1.75-.08,5.8,5.8,0,0,0,3-.57c1-.6,1.27-.89,1.27-1.78,0-1.29,0-2.58,0-3.88,0-3.33,0-6.78-.06-10.17a7,7,0,0,0-.95-3.52c-.17-.3-.34-.59-.53-.9a8.56,8.56,0,0,1-1.48-3.91v-.4a5.49,5.49,0,0,0,0-.7c-.14-.75-.24-1.5-.31-2.26-.06-.52-.11-1.06-.19-1.56-.06-.35-.09-.7-.12-1a7.72,7.72,0,0,0-.32-1.84.64.64,0,0,1,0-.49.58.58,0,0,1,.36-.31.62.62,0,0,1,.48,0,.71.71,0,0,1,.33.37,8.85,8.85,0,0,1,.4,2.16c0,.33.05.65.1,1,.08.54.14,1.08.2,1.61.08.74.15,1.44.29,2.14a5.18,5.18,0,0,1,.08,1v.35a6.93,6.93,0,0,0,1.27,3.19c.19.3.38.62.56.94a8.55,8.55,0,0,1,1.11,4.16c0,3.37,0,6.8,0,10.12l0,3.87a3.08,3.08,0,0,1-1.91,2.93,6.7,6.7,0,0,1-3.65.76,12,12,0,0,0-1.58.08,6.44,6.44,0,0,1-1,0,6.19,6.19,0,0,0-.86,0,2.66,2.66,0,0,1-.39.07"/></g></g></g></svg>