<?xml version="1.0" encoding="utf-8"?>
<!-- Generator: Adobe Illustrator 22.1.0, SVG Export Plug-In . SVG Version: 6.00 Build 0)  -->
<svg version="1.1" id="Слой_1" xmlns="http://www.w3.org/2000/svg" xmlns:xlink="http://www.w3.org/1999/xlink" x="0px" y="0px"
	 viewBox="0 0 847.6 471.2" style="enable-background:new 0 0 847.6 471.2;" xml:space="preserve">
<style type="text/css">
	.st0{fill:none;stroke:#000000;stroke-miterlimit:10;}
	.st1{fill:none;stroke:#000000;stroke-miterlimit:10;stroke-dasharray:9.6665,9.6665;}
	.st2{fill:none;stroke:#000000;stroke-miterlimit:10;stroke-dasharray:10.7392,10.7392;}
	.st3{fill:none;stroke:#000000;stroke-miterlimit:10;stroke-dasharray:10.739,10.739;}
	.st4{fill:none;stroke:#000000;stroke-miterlimit:10;stroke-dasharray:12.3299,12.3299;}
	.st5{fill:none;stroke:#000000;stroke-miterlimit:10;stroke-dasharray:10.1088,10.1088;}
	.st6{fill:none;stroke:#000000;stroke-miterlimit:10;stroke-dasharray:12.33,12.33;}
	.st7{fill:none;stroke:#000000;stroke-miterlimit:10;stroke-dasharray:10.1085,10.1085;}
</style>
<g>
	<path d="M568.2,468.1c-2,0-3.6,0-5.8,0c0-32.1,0-64,0-95.9c-0.4-0.1-0.8-0.2-1.2-0.4c-0.6,1.3-1.4,2.7-1.9,4
		c-12.1,29.3-24.3,58.7-36.4,88.1c-0.9,2.3-1.4,4.5-4.9,4.5c-3.5,0-4.4-2-5.5-4.6c-11.9-28.6-23.8-57.1-35.7-85.6
		c-0.9-2.1-1.8-4.2-3.8-6.1c0,31.8,0,63.6,0,95.8c-2.4,0-4.1,0-6.1,0c0-35.2,0-70.2,0-105.3c8-1.9,8.6-1.7,11.6,5.5
		c12.4,29.6,24.8,59.2,37.3,88.8c0.5,1.2,1.2,2.3,2.2,4.1c4.6-11.1,9-21.4,13.3-31.8c8.4-20.3,16.8-40.5,25.3-60.8
		c3.1-7.4,3.1-7.4,11.7-6.1C568.2,397.4,568.2,432.5,568.2,468.1z"/>
	<path d="M227.5,468.1c-2,0-3.6,0-5.9,0c0-8-0.7-16,0.2-23.9c1.6-14.3-2.7-25.9-11.5-37.1c-10.2-12.9-18.9-27-28.2-40.6
		c-0.9-1.3-1.7-2.7-2.8-4.4c4.4-1.2,7.1-0.6,9.6,3.2c10.4,15.7,21.1,31.1,31.7,46.7c1.3,1.9,2.6,3.8,4.3,6.2
		c6.3-9.2,12.3-17.9,18.3-26.6c6.1-8.9,12.1-17.9,18.4-26.7c1.1-1.5,3.3-3.1,4.9-3.1c26.2-0.2,52.3-0.1,78.5-0.1
		c0.6,0,1.3,0.2,2.2,0.4c0.1,1.5,0.2,3,0.3,5.1c-12.5,0-24.7,0-37.8,0c0,17.4,0,34.1,0,50.9c0,16.6,0,33.2,0,50.2c-2.3,0-4,0-6.2,0
		c0-33.5,0-66.8,0-100.3c-1.7-0.2-2.9-0.5-4.2-0.5c-9.5,0-19-0.2-28.5,0.1c-1.9,0.1-4.5,1.4-5.6,2.9c-12,17-23.9,34.1-35.6,51.3
		c-1.2,1.8-1.8,4.3-1.9,6.5c-0.2,11.5-0.1,23-0.1,34.5C227.8,464.3,227.6,466.1,227.5,468.1z"/>
	<path d="M751.9,468c-5.5,1.1-6.7,0.5-7.2-5.7c-0.6-7.6-0.3-15.3-1-22.9c-1.1-11.9-7.4-18.5-19.2-19c-14.4-0.6-28.9-0.1-44-0.1
		c0,15.9,0,31.8,0,47.9c-2.4,0-4.1,0-6.4,0c-0.1-1.7-0.3-3.3-0.3-4.8c0-32.1,0.1-64.3-0.1-96.4c0-4,0.9-5.5,5.2-5.4
		c16,0.5,32,0.1,47.9,1c10.3,0.6,19.3,4.8,23.3,15.2c4,10.6,3.3,21.3-4.5,30c-3.6,4-8.9,6.5-13.3,9.5c15,2.6,17.8,14.4,18.1,27.9
		C750.8,452.7,751.5,460.2,751.9,468z M680.6,414.1c14.5,0,28.5,0.6,42.4-0.2c14.7-0.9,22.7-10,22.9-23.8
		c0.2-12.6-7.3-20.8-21.9-22.2c-11-1.1-22.2-0.5-33.4-0.6c-3.3,0-6.5,0-10,0C680.6,383.2,680.6,398.4,680.6,414.1z"/>
	<path d="M350.4,417.7c0.7-22.4,6.3-40.1,24.1-51.3c31.9-20,72.6,0.4,77,38.4c1.9,16.9,0,33.1-10.4,47.1
		c-13,17.5-31.2,22.1-51.6,17.9c-19.9-4.1-31.5-17.5-36.7-36.7C351.3,427.3,350.9,421.3,350.4,417.7z M445.7,413.3
		c0.2-8.1-2-17.8-7-26.7c-16.1-28.8-57.6-29.7-74-1c-11.3,19.7-11.1,40.3,0.5,59.9c15,25.2,51.7,27.1,69.7,4
		C442.7,439.5,445.7,427.9,445.7,413.3z"/>
	<path d="M166.1,416.1c-23.3,0-45.7,0-68.7,0c0,17.2,0,34.3,0,51.9c-2.2,0.1-3.9,0.2-6.1,0.4c0-35.6,0-70.8,0-106.6
		c1.7-0.1,3.4-0.2,5.7-0.3c0,16.3,0,32.2,0,48.5c23.2,0,45.7,0,68.7,0c0-16,0-31.7,0-47.7c3.6-1.1,6.5-2.2,6.5,3.3
		c-0.1,33.3,0,66.7-0.1,100c0,0.6-0.1,1.3-0.3,2.5c-1.8,0.1-3.5,0.2-5.8,0.3C166.1,450.9,166.1,433.8,166.1,416.1z"/>
	<path d="M7.9,463c25,0,48.9,0,73.1,0c0.2,1.8,0.3,3.2,0.4,5c-26.9,0-53.5,0-81.5,0c1.1-2.9,1.5-5.9,3.1-7.9
		c22.2-29.6,44.5-59.1,66.8-88.6c0.8-1,1.5-2.2,2.8-4.1c-22.7,0-44.7,0-66.9,0c0-2.3,0-3.8,0-5.6c24.8,0,49.2,0,73.8,0
		c1.8,3.6,0.2,6.2-1.9,9c-22.1,29-44.1,58.1-66.1,87.2C10.4,459.3,9.5,460.7,7.9,463z"/>
	<path d="M575.8,362.1c4.6-1.5,7.3-0.3,9.8,3.5c10.7,16.1,21.7,32,32.6,47.9c0.9,1.3,1.9,2.6,3.3,4.5c4.6-6.7,8.9-13,13.2-19.2
		c7.5-11,15.2-21.9,22.5-33c2.3-3.6,4.9-5.2,9.8-3.8c-1.1,1.7-2,3.3-3.1,4.8c-12.3,17.8-24.7,35.5-36.9,53.4
		c-1.6,2.3-2.5,5.4-2.6,8.2c-0.3,13.1-0.1,26.3-0.1,39.7c-2.2,0-4,0-6.5,0c0-1.9,0-3.7,0-5.4c0-11.7,0.1-23.3-0.1-35
		c-0.1-2.5-0.9-5.3-2.3-7.3c-12.1-17.9-24.5-35.7-36.7-53.6C577.8,365.3,576.9,363.8,575.8,362.1z"/>
</g>
<g>
	<g>
		<path d="M634.7,227.3c13.3,0,26.1,0,39,0c0.6,5.9,0.7,11.7,1.7,17.4c2.4,12.7,10.9,18.7,25.6,18.4c12.2-0.3,21-7.8,22.9-19.6
			c2.1-13.5-2.2-23.3-14.3-29.6c-8.2-4.3-17.1-7.2-25.7-10.8c-5.5-2.3-11.1-4.6-16.4-7.2c-21.5-10.6-30.8-28.3-30.1-51.9
			c0.3-9.6,1.6-18.9,5.8-27.6c8.2-17.1,22.7-25.1,40.6-27.9c13.3-2.1,26.6-1.6,39.6,2c25.3,6.9,38.2,26.8,35.8,55.5
			c-6.2,0-12.4,0-18.7,0c-6.1,0-12.3,0-18.4,0c-0.8-4.9-1.2-9.6-2.4-14c-2.9-11.4-10.7-16.2-24-15.1c-10.5,0.8-17,7.3-18.3,18.3
			c-1.7,14.4,2.5,22.7,15.8,29c11.3,5.4,23,9.8,34.2,15.2c7.5,3.6,14.8,7.6,21.5,12.4c9,6.4,14.8,15.7,15.6,26.8
			c0.7,10,1.1,20.4-0.6,30.2c-3.7,21.5-17.6,34.5-38.4,40c-16.2,4.3-32.6,4.7-49,1.5c-26.6-5.2-40.5-21.8-41.7-49
			C634.6,236.8,634.7,232.3,634.7,227.3z"/>
		<path d="M504.1,226.3c12.8,0,24.4,0,36.4,0c0.3,5.7,0.5,11.1,0.9,16.5c0.2,2.5,0.5,5,1.1,7.4c2.2,9,7.4,12.9,16.4,12.9
			c8.8-0.1,13.9-3.9,15.8-12.9c1.2-5.5,1.8-11.2,1.8-16.8c0.1-45.2,0.1-90.3,0.1-135.5c0-2,0-4,0-6.4c13.2,0,26.1,0,39.7,0
			c0,1.8,0,3.6,0,5.3c0,45.5,0.1,91-0.1,136.5c0,7.6-1,15.3-2.6,22.7c-3.8,17.8-14.9,29-32.5,33.4c-12.1,3.1-24.4,3.7-36.7,1.7
			c-22.5-3.6-35.2-16.4-38.4-39C504.7,243.8,504.7,235.3,504.1,226.3z"/>
		<path d="M5.1,92c22.2,0,44-1.2,65.7,0.3c23,1.6,35.3,14.8,37.9,37.7c0.9,7.7,0.8,15.7-0.7,23.3c-3.5,17.8-15.3,27.8-33,31.6
			c2.4,0.5,4.9,1,7.3,1.5c19.3,4.6,32,20.3,33.1,41.8c0.4,7.2,0.1,14.8-1.4,21.8c-5.2,22.9-22.8,37-48.2,38
			c-19.6,0.8-39.3,0.2-58.9,0.2c-0.5,0-0.9-0.2-1.7-0.4C5.1,222.5,5.1,157.1,5.1,92z M16.5,280.1c19.4-0.9,38.5-0.7,57.3-3.1
			c17.3-2.2,26.5-13,29.4-30c0.9-5,1.1-10.3,1-15.4c-0.8-24.1-12.2-37.9-36-40.5c-16.8-1.9-33.9-0.8-50.8-1.1
			c-0.3,0-0.5,0.4-0.9,0.6C16.5,219.9,16.5,249.3,16.5,280.1z M16.5,180c15.6,0,30.5,0.5,45.5-0.2c9.4-0.4,18.2-3.7,25.2-10.6
			c11.4-11.3,12.2-25.5,9.8-40C94,111.3,83.7,102,65.5,101c-15.6-0.9-31.3-0.4-46.9-0.6c-0.6,0-1.3,0.3-2.1,0.6
			C16.5,127.3,16.5,153.5,16.5,180z"/>
		<path d="M379.3,91.9c22.8,0,45.2-1.3,67.4,0.4c21.2,1.7,34.9,17.2,37.8,38.5c1.5,11,1.3,22-2.4,32.6
			c-5.6,15.8-16.8,25.1-33.3,28.9c2,0.4,4.1,0.7,6.1,1.1c17.8,3.6,27.4,15.2,28.5,35.2c0.7,12.3,0.1,24.7,1,36.9
			c0.5,7.5,2.7,14.8,4.2,22.7c-2.5,0-5.9,0.3-9.3-0.2c-1.3-0.2-3.1-2.1-3.4-3.5c-1.3-6.7-2.8-13.4-3.2-20.1c-0.7-12,0-24-1.1-35.9
			c-2-20.1-11.8-29.4-31.7-31.4c-2.6-0.3-5.3-0.2-8-0.3c-13.6,0-27.3,0-41.6,0c0,30.4,0,60.4,0,90.9c-4,0-7.4,0-11.1,0
			C379.3,222.5,379.3,157.1,379.3,91.9z M390.5,188.7c18.2-0.9,35.9-0.7,53.3-3c16.1-2.1,26.4-14,28.9-30.3c1-6.2,1.3-12.6,0.9-18.9
			c-1.2-20.3-14.1-34.3-34.2-35.6c-15.7-1.1-31.6-0.4-47.4-0.4c-0.4,0-0.9,0.4-1.5,0.7C390.5,129.8,390.5,158.4,390.5,188.7z"/>
		<path d="M272.8,180.2c25.6,0,50.9,0,76.4,0c0,3.5,0,6.6,0,10.3c-25.4,0-50.7,0-76.5,0c0,29.4,0,58.1,0,87.5c28.1,0,56.1,0,84.5,0
			c0,3.5,0,6.5,0,9.9c-31.9,0-63.7,0-96,0c0-65.4,0-130.7,0-196.4c31.2,0,62.3,0,93.7,0c0,3.1,0,6.1,0,9.7c-27.3,0-54.6,0-82.1,0
			C272.8,127.7,272.8,153.6,272.8,180.2z"/>
		<path d="M143.8,91.5c31.1,0,62,0,93.2,0c0,3.2,0,6.1,0,9.5c-2,0.1-4,0.3-5.9,0.3c-23.7,0-47.3,0.1-71-0.1c-4.4,0-5.6,1.2-5.6,5.6
			c0.2,24.2,0.1,48.3,0.1,73.1c25.6,0,51,0,76.7,0c0,3.7,0,6.8,0,10.7c-25.4,0-50.7,0-76.4,0c0,29.3,0,57.9,0,87.3
			c28.1,0,56.1,0,84.4,0c0,3.7,0,6.6,0,10c-31.7,0-63.4,0-95.5,0C143.8,222.5,143.8,157.1,143.8,91.5z"/>
	</g>
	<g>
		<g>
			<g>
				<polyline class="st0" points="805.6,304.3 805.9,312.9 797.2,313.2 				"/>
				<line class="st1" x1="780.5" y1="313.8" x2="520.9" y2="322"/>
				<polyline class="st0" points="512.5,322.3 503.9,322.6 503.6,313.9 				"/>
				<path class="st2" d="M496.2,81.3"/>
				<path class="st2" d="M503,295.3"/>
				<polyline class="st0" points="495.9,72 495.6,63.4 504.3,63.1 				"/>
				<line class="st1" x1="521" y1="62.6" x2="780.6" y2="54.3"/>
				<polyline class="st0" points="789,54 797.6,53.7 797.9,62.4 				"/>
				<line class="st3" x1="798.5" y1="81" x2="805.3" y2="295"/>
			</g>
		</g>
	</g>
	<g>
		<g>
			<g>
				<polyline class="st0" points="770.2,91.7 774.3,99.3 781.9,95.2 				"/>
				<line class="st4" x1="800.8" y1="85.1" x2="829" y2="69.9"/>
				<polyline class="st0" points="838.4,64.9 846.1,60.8 842,53.1 				"/>
				<line class="st5" x1="833.7" y1="37.7" x2="821.2" y2="14.5"/>
				<polyline class="st0" points="817.1,6.8 813,-0.8 805.4,3.3 				"/>
				<line class="st6" x1="786.5" y1="13.4" x2="758.3" y2="28.6"/>
				<polyline class="st0" points="748.9,33.6 741.2,37.7 745.3,45.4 				"/>
				<line class="st7" x1="753.6" y1="60.8" x2="766.1" y2="84"/>
			</g>
		</g>
	</g>
</g>
</svg>
