<svg xmlns="http://www.w3.org/2000/svg" id="Слой_1" viewBox="0 0 100 83.3"><style>.st1{fill:#f6dd05}.st2{fill:#ef4647}.st3{fill:#54b0e3}.st4{fill:#4161ad}.st5{fill:#da1f26}.st7{fill:#883462}.st9{fill:#447cbf}.st10{fill:#a02647}.st11{fill:#f99b1c}.st12{fill:#f7921e}.st13{fill:#fcb017}.st15{fill:#e37d25}</style><linearGradient id="SVGID_1_" x1="46.269" x2="96.626" y1="89.854" y2="-13.176" gradientUnits="userSpaceOnUse"><stop offset="0" stop-color="#f99b1c"/><stop offset=".089" stop-color="#f7981d"/><stop offset=".156" stop-color="#f4911f"/><stop offset=".216" stop-color="#f08521"/><stop offset=".271" stop-color="#ea7423"/><stop offset=".324" stop-color="#e45d24"/><stop offset=".373" stop-color="#dd3b26"/><stop offset=".398" stop-color="#da1f26"/><stop offset=".677" stop-color="#90677f"/><stop offset=".855" stop-color="#447cbf"/></linearGradient><path fill="url(#SVGID_1_)" d="M100 41.7C100 18.8 81.4.1 58.6 0h-.1-1.1c-.7 0-1.4.1-2.1.1v12.7c1.1-.1 2.1 0 3.2 0C74.2 12.9 87 25.9 87 41.7c0 10.7-5.9 20.1-14.6 25.1-2.2 1.2-4.6 2.2-7.1 2.9-.4.1-.7.2-1.1.3h-.1c-1.8.4-3.7.6-5.6.6-1.1 0-2.2.1-3.2 0v12.7c1 .1 2.1.1 3.1.1H60.7c.5 0 .9-.1 1.4-.1.3 0 .7-.1 1-.1h.1c6.5-.8 12.6-3 17.8-6.5h.1c11.4-7.6 18.9-20.4 18.9-35z"/><path d="M19.2 70.5h6.4v6.4h-6.4zM6.4 64.1h6.4v6.4H6.4z" class="st1"/><path d="M6.4 64.1h6.4v6.4H6.4z" class="st1"/><path d="M0 32.1h6.4v6.4H0zM12.8 57.7h6.4v6.4h-6.4z" class="st2"/><path d="M44.9 6.4h6.4v6.4h-6.4z" class="st3"/><path d="M44.9 0h6.4v6.4h-6.4z" class="st4"/><path d="M6.4 44.9h6.4v6.4H6.4z" class="st2"/><path d="M6.4 38.5h6.4v6.4H6.4z" class="st5"/><linearGradient id="SVGID_2_" x1="51.282" x2="57.692" y1="3.205" y2="3.205" gradientUnits="userSpaceOnUse"><stop offset="0" stop-color="#6c74a2"/><stop offset="1" stop-color="#6c74a2"/></linearGradient><path fill="url(#SVGID_2_)" d="M51.3 0h6.4v6.4h-6.4z"/><path d="M38.5 0h6.4v6.4h-6.4zM19.2 6.4h6.4v6.4h-6.4z" class="st3"/><path d="M51.3 6.4h6.4v6.4h-6.4z" class="st7"/><linearGradient id="SVGID_3_" x1="57.692" x2="64.103" y1="9.615" y2="9.615" gradientUnits="userSpaceOnUse"><stop offset="0" stop-color="#9b6273"/><stop offset="1" stop-color="#9b6273"/></linearGradient><path fill="url(#SVGID_3_)" d="M57.7 6.4h6.4v6.4h-6.4z"/><path d="M32.1 12.8h6.4v6.4h-6.4z" class="st3"/><path d="M32.1 6.4h6.4v6.4h-6.4z" class="st4"/><path d="M38.5 6.4h6.4v6.4h-6.4z" class="st9"/><path d="M38.5 12.8h6.4v6.4h-6.4z" class="st7"/><path d="M25.6 6.4H32v6.4h-6.4z" class="st9"/><path d="M19.2 19.2h6.4v6.4h-6.4z" class="st7"/><path d="M25.6 12.8H32v6.4h-6.4z" class="st4"/><path d="M12.8 32.1h6.4v6.4h-6.4z" class="st10"/><path d="M19.2 32.1h6.4v6.4h-6.4z" class="st9"/><path d="M25.6 19.2H32v6.4h-6.4z" class="st10"/><path d="M12.8 25.6h6.4V32h-6.4zM25.6 25.6H32V32h-6.4z" class="st5"/><path d="M19.2 25.6h6.4V32h-6.4zM12.8 38.5h6.4v6.4h-6.4z" class="st2"/><path d="M19.2 38.5h6.4v6.4h-6.4z" class="st5"/><path d="M44.9 70.5h6.4v6.4h-6.4z" class="st11"/><path d="M44.9 76.9h6.4v6.4h-6.4z" class="st12"/><path d="M51.3 76.9h6.4v6.4h-6.4z" class="st1"/><path d="M38.5 76.9h6.4v6.4h-6.4z" class="st13"/><path d="M51.3 70.5h6.4v6.4h-6.4z" class="st12"/><linearGradient id="SVGID_4_" x1="57.692" x2="64.103" y1="73.718" y2="73.718" gradientUnits="userSpaceOnUse"><stop offset="0" stop-color="#e86d23"/><stop offset=".289" stop-color="#e86d23"/></linearGradient><path fill="url(#SVGID_4_)" d="M57.7 70.5h6.4v6.4h-6.4z"/><path d="M32.1 64.1h6.4v6.4h-6.4z" class="st11"/><path d="M32.1 70.5h6.4v6.4h-6.4z" class="st15"/><path d="M38.5 70.5h6.4v6.4h-6.4z" class="st1"/><path fill="#f16b22" d="M38.5 64.1h6.4v6.4h-6.4z"/><path d="M25.6 70.5H32v6.4h-6.4zM19.2 57.7h6.4v6.4h-6.4z" class="st11"/><path d="M19.2 64.1h6.4v6.4h-6.4z" class="st15"/><path d="M25.6 64.1H32v6.4h-6.4z" class="st13"/><path d="M12.8 44.9h6.4v6.4h-6.4z" class="st5"/><path d="M19.2 44.9h6.4v6.4h-6.4z" class="st1"/><path d="M25.6 57.7H32v6.4h-6.4z" class="st2"/><path d="M12.8 51.3h6.4v6.4h-6.4z" class="st11"/><path d="M25.6 51.3H32v6.4h-6.4z" class="st7"/><path d="M19.2 51.3h6.4v6.4h-6.4z" class="st10"/><path d="M12.8 12.8h6.4v6.4h-6.4z" class="st3"/><path d="M32.1 19.2h3.8V23h-3.8z" class="st7"/><path d="M44.9 12.8h3.8v3.8h-3.8z" class="st9"/><path d="M44.9 66.7h3.8v3.8h-3.8z" class="st1"/><path d="M25.6 32.1h3.8v3.8h-3.8zM25.6 47.5h3.8v3.8h-3.8z" class="st2"/><path d="M25.6 39.8h3.8v3.8h-3.8z" class="st7"/><path d="M32.1 60.3h3.8v3.8h-3.8z" class="st1"/></svg>