<svg xmlns="http://www.w3.org/2000/svg" id="Слой_1" viewBox="0 0 276 225"><style>.st0{fill:#353131}</style><path d="M9 59.7c2.7 2.6 6 4.6 9.5 5.8 6.7 2.1 13.9 2.3 20.7.6 2.7-.6 5.2-1.7 7.4-3.3V44.5h-10v11c-1.9.4-3.9.6-5.8.5-2.6 0-5.1-.5-7.5-1.6-2.2-1-4.1-2.6-5.6-4.5-1.6-2.1-2.8-4.5-3.5-7-.8-2.9-1.2-6-1.2-9-.1-3.3.4-6.6 1.3-9.8.7-2.5 2-4.8 3.6-6.8 1.4-1.7 3.3-3.1 5.3-4 2.1-.9 4.3-1.4 6.6-1.4 2 0 3.9.2 5.8.5v10.4h10v-19c-2-.9-4.1-1.6-6.3-2.1-3-.7-6.1-1-9.2-.9-3.6 0-7.2.6-10.6 1.7-3.6 1.1-6.9 3-9.8 5.6-3.1 2.8-5.5 6.3-7.2 10.2C.9 22.6 0 27.8 0 34.1c-.1 5.2.7 10.4 2.5 15.4 1.4 3.8 3.6 7.3 6.5 10.2zm55.3 5.6c1.8.6 3.6 1 5.5 1.4 2.1.4 4.3.6 6.4.5 3.3 0 6.5-.4 9.7-1.2 2.8-.7 5.4-2 7.8-3.7 2.2-1.6 3.9-3.8 5.1-6.2 1.3-2.7 1.9-5.6 1.8-8.6.1-3-.7-5.9-2.3-8.5-1.5-2.2-3.5-4.1-5.7-5.6-2.4-1.5-4.9-2.8-7.5-3.8-2.7-1-5.2-2.1-7.5-3.1-2-.9-4-2.1-5.7-3.5-.7-.6-1.3-1.3-1.7-2.2-.4-.9-.6-1.8-.6-2.7 0-.9.2-1.8.7-2.6.4-.8 1.1-1.5 1.9-2 2.1-1.3 4.5-1.9 6.9-1.7 1.5 0 3.1.1 4.6.3s2.9.5 4.3.9h.4v10.1h10V4.6c-2.7-1.3-5.6-2.3-8.6-2.7-3.6-.7-7.3-1-10.9-1-3 0-6.1.4-8.9 1.4-2.5.8-4.9 2.1-6.9 3.8-1.9 1.6-3.4 3.6-4.5 5.9-1.1 2.4-1.6 4.9-1.6 7.5-.1 3.1.7 6.1 2.3 8.8 1.5 2.2 3.5 4.1 5.7 5.6 2.3 1.5 4.8 2.8 7.5 3.7 2.7 1 5.2 2 7.4 2.9 2.1.8 4 2 5.7 3.4.7.6 1.3 1.4 1.8 2.2.4.9.6 1.8.6 2.8 0 1.1-.2 2.2-.7 3.1-.5 1-1.2 1.8-2.1 2.4-1.9 1.4-4.5 2-7.9 2-1.8 0-3.6-.1-5.3-.5-1.6-.4-3.1-.9-4.6-1.5l-.5-.2v-9h-10v17c.8.4 1.8.9 3.1 1.5 1.4.6 2.9 1.2 4.3 1.6zm54.8 0c1.8.6 3.6 1 5.5 1.4 2.1.4 4.3.6 6.4.5 3.3 0 6.5-.4 9.7-1.2 2.8-.7 5.4-2 7.8-3.7 2.2-1.6 3.9-3.8 5.1-6.2 1.3-2.7 1.9-5.6 1.8-8.6.1-3-.7-5.9-2.3-8.5-1.5-2.2-3.5-4.1-5.8-5.6s-4.9-2.8-7.5-3.8c-2.7-1-5.2-2.1-7.5-3.1-2.1-.9-4-2.1-5.8-3.5-.7-.6-1.3-1.3-1.7-2.2-.4-.9-.6-1.8-.6-2.7 0-.9.2-1.8.6-2.7.4-.8 1.1-1.5 1.9-2 2.1-1.3 4.5-1.9 6.9-1.7 1.5 0 3.1.1 4.6.3s2.9.5 4.3.9c.2.1.4.1.5.1v10.1h10V4.6c-2.7-1.3-5.6-2.3-8.6-2.7-3.6-.7-7.3-1-10.9-1-3 0-6.1.4-8.9 1.4-2.5.8-4.9 2.1-6.9 3.8-1.9 1.6-3.4 3.6-4.5 5.9-1.1 2.4-1.6 4.9-1.6 7.5-.1 3.1.7 6.1 2.3 8.8 1.5 2.2 3.5 4.1 5.7 5.6 2.3 1.5 4.9 2.8 7.5 3.7 2.7 1 5.2 1.9 7.5 2.9 2.1.8 4 2 5.8 3.4.7.6 1.3 1.4 1.7 2.2.4.9.6 1.8.6 2.8 0 1.1-.2 2.2-.7 3.1-.5 1-1.2 1.8-2.1 2.4-1.9 1.4-4.5 2-7.9 2-1.8 0-3.6-.2-5.3-.6-1.6-.4-3.1-.9-4.6-1.5l-.5-.2v-9h-10v17c.8.4 1.8.9 3.1 1.5 1.4.7 2.9 1.2 4.4 1.7z" class="st0"/><path fill="#fc4a4a" d="M25.3 96.9h-.4L14.1 79.3H1.5v63.5h11.8V108l-.5-8.9h.5l10.6 16.6h2.2l10.2-16.6h.5l-.5 9.9v33.8h12.4V79.3H36.1L25.3 96.9zm35-6.5h16v41.3h-16v11.1h44.6v-11.1H88.8V90.4h16.1V79.3H60.3v11.1zm89.4 52.4h10.9V79.3h-11.8v31.2l.8 7.6h-.4l-21.9-38.8h-10.9v63.5h11.8v-30l-.5-7.5h.4l21.6 37.5zm40.9 1.3c3.2 0 6.5-.4 9.6-1.2 2.8-.7 5.4-2 7.7-3.7 2.1-1.6 3.9-3.7 5.1-6.1 1.3-2.7 1.9-5.6 1.8-8.6.1-3-.7-5.9-2.3-8.4-1.5-2.2-3.5-4.1-5.7-5.6-2.3-1.5-4.8-2.8-7.4-3.8-2.7-1-5.1-2-7.4-3.1-2-.9-4-2.1-5.7-3.4-.7-.6-1.3-1.3-1.7-2.2-.4-.8-.6-1.8-.6-2.7 0-.9.2-1.8.6-2.6s1.1-1.5 1.9-2c2.1-1.2 4.4-1.8 6.8-1.7 1.5 0 3.1.1 4.6.3 1.5.2 2.9.5 4.3.9.2.1.4.1.5.1v10.1h10V81.8c-2.7-1.4-5.6-2.3-8.6-2.8-3.6-.7-7.2-1-10.9-1-3 0-6 .4-8.9 1.4-2.5.8-4.8 2.1-6.8 3.8-1.9 1.6-3.4 3.6-4.5 5.9s-1.6 4.9-1.6 7.5c-.1 3.1.7 6.1 2.3 8.7 1.5 2.2 3.5 4.1 5.7 5.6 2.3 1.5 4.8 2.7 7.4 3.7 2.7 1 5.1 1.9 7.4 2.9 2.1.8 4 2 5.7 3.4.7.6 1.3 1.4 1.7 2.2.4.9.6 1.8.6 2.8 0 1.1-.2 2.1-.7 3.1s-1.2 1.8-2.1 2.4c-1.9 1.3-4.5 2-7.9 2-1.8 0-3.6-.2-5.3-.6-1.6-.4-3.1-.9-4.6-1.5l-.5-.2v-9h-10V139c.8.4 1.8.9 3.1 1.5 1.4.7 2.9 1.2 4.4 1.7 1.8.6 3.6 1 5.4 1.4 2.3.2 4.4.4 6.6.5zm47.7-27.8h6.4l15.6 26.5h15.3L255.5 110l17.9-30.7h-14.1l-14.5 25.9h-6.4V79.3H226v63.5h12.4l-.1-26.5z"/><path d="M181.1 168.4h25.6V198c0 4.1-1.1 7.4-3.2 9.7-1.1 1.2-2.5 2.1-4.1 2.6-1.4.5-2.9.8-4.3.8-1.9 0-3.9-.2-5.8-.6-2.1-.6-4.1-1.5-6-2.6l-4.5 10c2.5 1.6 5.3 2.7 8.2 3.4 2.8.6 5.6 1 8.5 1 .9 0 2.1 0 3.5-.2 1.5-.1 3-.4 4.5-.8 1.7-.5 3.3-1.1 4.9-1.9 1.7-.9 3.3-2.1 4.7-3.5 2.2-2.3 3.9-5.1 4.8-8.1.9-3.2 1.3-6.5 1.3-9.8v-40.6h-38.1v11zm86.5 20.1c-2.3-1.5-4.9-2.8-7.5-3.8-2.7-1-5.2-2.1-7.5-3.1-2.1-.9-4-2.1-5.8-3.5-.7-.6-1.3-1.3-1.7-2.2s-.6-1.8-.6-2.7.2-1.8.6-2.7c.4-.8 1.1-1.5 1.9-2 2.1-1.3 4.5-1.9 6.9-1.7 1.5 0 3.1.1 4.6.3s2.9.5 4.3.9c.2.1.4.1.5.1v10.1h10v-18.5c-2.7-1.3-5.6-2.3-8.5-2.7-3.6-.7-7.2-1-10.9-1-3 0-6.1.4-8.9 1.4-2.5.8-4.9 2.1-6.9 3.8-1.9 1.6-3.4 3.6-4.5 5.9-1.1 2.4-1.6 4.9-1.6 7.5-.1 3.1.7 6.1 2.3 8.8 1.5 2.2 3.5 4.1 5.7 5.6 2.3 1.5 4.9 2.8 7.5 3.7 2.7 1 5.2 2 7.5 2.9 2.1.8 4 2 5.7 3.4.7.6 1.3 1.4 1.8 2.2.4.9.6 1.8.6 2.8 0 1.1-.2 2.2-.7 3.1-.5 1-1.2 1.8-2.1 2.4-1.9 1.4-4.5 2-7.9 2-1.8 0-3.6-.2-5.3-.6-1.6-.4-3.1-.9-4.6-1.5l-.5-.2v-9h-10v17c.8.4 1.8.9 3.1 1.6 1.4.7 2.9 1.3 4.4 1.7 1.8.6 3.6 1 5.5 1.4 2.1.4 4.3.6 6.4.6 3.3 0 6.5-.4 9.7-1.2 2.8-.7 5.4-2 7.8-3.7 2.2-1.6 3.9-3.8 5.1-6.2 1.3-2.7 1.9-5.6 1.8-8.6.1-3-.7-6-2.3-8.5-1.6-2.4-3.6-4.3-5.9-5.8zM161.8 7l7-7 7 7-7 7-7-7zM260.8 20.9l7-7 7 7-7 7-7-7zM260.9 48.8l7-7 7 7-7 7-7-7zM161.8 35.2l7-7 7 7-7 7-7-7zM219 34.6l7-7 7 7-7 7-7-7zM190.8 62.8l7-7 7 7-7 7-7-7z" class="st0"/><path d="M253.9 69.7l7-7L247 48.8l13.9-13.9L247 21l13.9-14-7-7L240 13.9 226 0l-7 7 27.9 27.9L219 62.8l7 7 13.9-13.9 14 13.8zm-35.2-20.9l-20.9-20.9-20.9 20.9 7 7 13.9-13.9 13.9 13.9 7-7zM183.9 27.9L197.8 14l13.9 13.9 7-7L197.8 0l-20.9 20.9 7 7zM161.8 62.8l7-7 7 7-7 7-7-7zM181.8 189.1l7-7 7 7-7 7-7-7zM7 168.6l-7 7 7 7 7-7-7-7zM50.8 154.6l-7 7 7 7 7-7-7-7zM49.9 210.5l-7 7 7 7 7-7-7-7zM35.9 196.4l-7 7 7 7 7-7-7-7zM92.3 168.6l-7 7 7 7 7-7-7-7zM106.3 154.6l-7 7 7 7 7-7-7-7zM78.3 154.6l-7 7 7 7 7-7-7-7zM106 210.3l-7 7 7 7 7-7-7-7zM64.2 169.3l-20.1 20.1 20.1 20.1 20.1-20.1-20.1-20.1zm-6.7 20.2l6.8-6.8 6.8 6.8-6.8 6.8-6.8-6.8z" class="st0"/><path d="M42.2 175.2L21.9 154l-6.7 7.1 13.6 14.1L1.9 203 22 224l6.7-7-13.3-13.9 26.8-27.9zM120.2 169.3l-7.1 6.9-6.9 6.7L71 217l7.1 6.9 35.2-34.1 14.2-13.8-7.3-6.7zM162 154l-7 7 7 7 7-7-7-7zM133.9 154l-7 7 7 7 7-7-7-7zM148.4 169.3l-21.3 20.5 14.3 13.7-7.4 7.1-13.7-13.3-7.1 6.9 21 19.6 21.4-20.4 14.2-13.7-21.4-20.4zm0 27.4l-7.2-6.9 7.2-6.9 7.1 6.9-7.1 6.9zM162.1 210.3l-7 7 7 7 7-7-7-7z" class="st0"/></svg>