<?xml version="1.0" encoding="utf-8"?>
<!-- Generator: Adobe Illustrator 22.1.0, SVG Export Plug-In . SVG Version: 6.00 Build 0)  -->
<svg version="1.1" id="Слой_1" xmlns="http://www.w3.org/2000/svg" xmlns:xlink="http://www.w3.org/1999/xlink" x="0px" y="0px"
	 viewBox="0 0 276 225" style="enable-background:new 0 0 276 225;" xml:space="preserve">
<style type="text/css">
	.st0{fill:#353131;}
	.st1{fill:#FC4A4A;}
</style>
<path class="st0" d="M9,59.7c2.7,2.6,6,4.6,9.5,5.8c6.7,2.1,13.9,2.3,20.7,0.6c2.7-0.6,5.2-1.7,7.4-3.3V44.5h-10v11
	c-1.9,0.4-3.9,0.6-5.8,0.5c-2.6,0-5.1-0.5-7.5-1.6c-2.2-1-4.1-2.6-5.6-4.5c-1.6-2.1-2.8-4.5-3.5-7c-0.8-2.9-1.2-6-1.2-9
	c-0.1-3.3,0.4-6.6,1.3-9.8c0.7-2.5,2-4.8,3.6-6.8c1.4-1.7,3.3-3.1,5.3-4c2.1-0.9,4.3-1.4,6.6-1.4c2,0,3.9,0.2,5.8,0.5v10.4h10v-19
	c-2-0.9-4.1-1.6-6.3-2.1c-3-0.7-6.1-1-9.2-0.9c-3.6,0-7.2,0.6-10.6,1.7c-3.6,1.1-6.9,3-9.8,5.6c-3.1,2.8-5.5,6.3-7.2,10.2
	C0.9,22.6,0,27.8,0,34.1c-0.1,5.2,0.7,10.4,2.5,15.4C3.9,53.3,6.1,56.8,9,59.7L9,59.7z M64.3,65.3c1.8,0.6,3.6,1,5.5,1.4
	c2.1,0.4,4.3,0.6,6.4,0.5c3.3,0,6.5-0.4,9.7-1.2c2.8-0.7,5.4-2,7.8-3.7c2.2-1.6,3.9-3.8,5.1-6.2c1.3-2.7,1.9-5.6,1.8-8.6
	c0.1-3-0.7-5.9-2.3-8.5c-1.5-2.2-3.5-4.1-5.7-5.6c-2.4-1.5-4.9-2.8-7.5-3.8c-2.7-1-5.2-2.1-7.5-3.1c-2-0.9-4-2.1-5.7-3.5
	c-0.7-0.6-1.3-1.3-1.7-2.2c-0.4-0.9-0.6-1.8-0.6-2.7c0-0.9,0.2-1.8,0.7-2.6c0.4-0.8,1.1-1.5,1.9-2c2.1-1.3,4.5-1.9,6.9-1.7
	c1.5,0,3.1,0.1,4.6,0.3s2.9,0.5,4.3,0.9c0,0,0.2,0,0.4,0v10.1h10V4.6c-2.7-1.3-5.6-2.3-8.6-2.7c-3.6-0.7-7.3-1-10.9-1
	c-3,0-6.1,0.4-8.9,1.4c-2.5,0.8-4.9,2.1-6.9,3.8c-1.9,1.6-3.4,3.6-4.5,5.9c-1.1,2.4-1.6,4.9-1.6,7.5c-0.1,3.1,0.7,6.1,2.3,8.8
	c1.5,2.2,3.5,4.1,5.7,5.6c2.3,1.5,4.8,2.8,7.5,3.7c2.7,1,5.2,2,7.4,2.9c2.1,0.8,4,2,5.7,3.4c0.7,0.6,1.3,1.4,1.8,2.2
	c0.4,0.9,0.6,1.8,0.6,2.8c0,1.1-0.2,2.2-0.7,3.1c-0.5,1-1.2,1.8-2.1,2.4c-1.9,1.4-4.5,2-7.9,2c-1.8,0-3.6-0.1-5.3-0.5
	c-1.6-0.4-3.1-0.9-4.6-1.5l-0.5-0.2v-9h-10v17c0.8,0.4,1.8,0.9,3.1,1.5C61.4,64.3,62.9,64.9,64.3,65.3L64.3,65.3z M119.1,65.3
	c1.8,0.6,3.6,1,5.5,1.4c2.1,0.4,4.3,0.6,6.4,0.5c3.3,0,6.5-0.4,9.7-1.2c2.8-0.7,5.4-2,7.8-3.7c2.2-1.6,3.9-3.8,5.1-6.2
	c1.3-2.7,1.9-5.6,1.8-8.6c0.1-3-0.7-5.9-2.3-8.5c-1.5-2.2-3.5-4.1-5.8-5.6c-2.3-1.5-4.9-2.8-7.5-3.8c-2.7-1-5.2-2.1-7.5-3.1
	c-2.1-0.9-4-2.1-5.8-3.5c-0.7-0.6-1.3-1.3-1.7-2.2c-0.4-0.9-0.6-1.8-0.6-2.7c0-0.9,0.2-1.8,0.6-2.7c0.4-0.8,1.1-1.5,1.9-2
	c2.1-1.3,4.5-1.9,6.9-1.7c1.5,0,3.1,0.1,4.6,0.3s2.9,0.5,4.3,0.9c0.2,0.1,0.4,0.1,0.5,0.1v10.1h10V4.6c-2.7-1.3-5.6-2.3-8.6-2.7
	c-3.6-0.7-7.3-1-10.9-1c-3,0-6.1,0.4-8.9,1.4c-2.5,0.8-4.9,2.1-6.9,3.8c-1.9,1.6-3.4,3.6-4.5,5.9c-1.1,2.4-1.6,4.9-1.6,7.5
	c-0.1,3.1,0.7,6.1,2.3,8.8c1.5,2.2,3.5,4.1,5.7,5.6c2.3,1.5,4.9,2.8,7.5,3.7c2.7,1,5.2,1.9,7.5,2.9c2.1,0.8,4,2,5.8,3.4
	c0.7,0.6,1.3,1.4,1.7,2.2c0.4,0.9,0.6,1.8,0.6,2.8c0,1.1-0.2,2.2-0.7,3.1c-0.5,1-1.2,1.8-2.1,2.4c-1.9,1.4-4.5,2-7.9,2
	c-1.8,0-3.6-0.2-5.3-0.6c-1.6-0.4-3.1-0.9-4.6-1.5l-0.5-0.2v-9h-10v17c0.8,0.4,1.8,0.9,3.1,1.5C116.1,64.3,117.6,64.8,119.1,65.3
	L119.1,65.3z"/>
<path class="st1" d="M25.3,96.9h-0.4L14.1,79.3H1.5v63.5h11.8V108l-0.5-8.9h0.5l10.6,16.6h2.2l10.2-16.6h0.5l-0.5,9.9v33.8h12.4
	V79.3H36.1L25.3,96.9z M60.3,90.4h16v41.3h-16v11.1h44.6v-11.1H88.8V90.4h16.1V79.3H60.3V90.4z M149.7,142.8h10.9V79.3h-11.8v31.2
	l0.8,7.6h-0.4l-21.9-38.8h-10.9v63.5h11.8v-30l-0.5-7.5h0.4L149.7,142.8L149.7,142.8z M190.6,144.1c3.2,0,6.5-0.4,9.6-1.2
	c2.8-0.7,5.4-2,7.7-3.7c2.1-1.6,3.9-3.7,5.1-6.1c1.3-2.7,1.9-5.6,1.8-8.6c0.1-3-0.7-5.9-2.3-8.4c-1.5-2.2-3.5-4.1-5.7-5.6
	c-2.3-1.5-4.8-2.8-7.4-3.8c-2.7-1-5.1-2-7.4-3.1c-2-0.9-4-2.1-5.7-3.4c-0.7-0.6-1.3-1.3-1.7-2.2c-0.4-0.8-0.6-1.8-0.6-2.7
	c0-0.9,0.2-1.8,0.6-2.6s1.1-1.5,1.9-2c2.1-1.2,4.4-1.8,6.8-1.7c1.5,0,3.1,0.1,4.6,0.3c1.5,0.2,2.9,0.5,4.3,0.9
	c0.2,0.1,0.4,0.1,0.5,0.1v10.1h10V81.8c-2.7-1.4-5.6-2.3-8.6-2.8c-3.6-0.7-7.2-1-10.9-1c-3,0-6,0.4-8.9,1.4
	c-2.5,0.8-4.8,2.1-6.8,3.8c-1.9,1.6-3.4,3.6-4.5,5.9s-1.6,4.9-1.6,7.5c-0.1,3.1,0.7,6.1,2.3,8.7c1.5,2.2,3.5,4.1,5.7,5.6
	c2.3,1.5,4.8,2.7,7.4,3.7c2.7,1,5.1,1.9,7.4,2.9c2.1,0.8,4,2,5.7,3.4c0.7,0.6,1.3,1.4,1.7,2.2c0.4,0.9,0.6,1.8,0.6,2.8
	c0,1.1-0.2,2.1-0.7,3.1s-1.2,1.8-2.1,2.4c-1.9,1.3-4.5,2-7.9,2c-1.8,0-3.6-0.2-5.3-0.6c-1.6-0.4-3.1-0.9-4.6-1.5l-0.5-0.2v-9h-10
	V139c0.8,0.4,1.8,0.9,3.1,1.5c1.4,0.7,2.9,1.2,4.4,1.7c1.8,0.6,3.6,1,5.4,1.4C186.3,143.8,188.4,144,190.6,144.1L190.6,144.1z
	 M238.3,116.3h6.4l15.6,26.5h15.3L255.5,110l17.9-30.7h-14.1l-14.5,25.9h-6.4V79.3H226v63.5h12.4L238.3,116.3L238.3,116.3z"/>
<path class="st0" d="M181.1,168.4h25.6V198c0,4.1-1.1,7.4-3.2,9.7c-1.1,1.2-2.5,2.1-4.1,2.6c-1.4,0.5-2.9,0.8-4.3,0.8
	c-1.9,0-3.9-0.2-5.8-0.6c-2.1-0.6-4.1-1.5-6-2.6l-4.5,10c2.5,1.6,5.3,2.7,8.2,3.4c2.8,0.6,5.6,1,8.5,1c0.9,0,2.1,0,3.5-0.2
	c1.5-0.1,3-0.4,4.5-0.8c1.7-0.5,3.3-1.1,4.9-1.9c1.7-0.9,3.3-2.1,4.7-3.5c2.2-2.3,3.9-5.1,4.8-8.1c0.9-3.2,1.3-6.5,1.3-9.8v-40.6
	h-38.1V168.4z M267.6,188.5c-2.3-1.5-4.9-2.8-7.5-3.8c-2.7-1-5.2-2.1-7.5-3.1c-2.1-0.9-4-2.1-5.8-3.5c-0.7-0.6-1.3-1.3-1.7-2.2
	s-0.6-1.8-0.6-2.7s0.2-1.8,0.6-2.7c0.4-0.8,1.1-1.5,1.9-2c2.1-1.3,4.5-1.9,6.9-1.7c1.5,0,3.1,0.1,4.6,0.3s2.9,0.5,4.3,0.9
	c0.2,0.1,0.4,0.1,0.5,0.1v10.1h10v-18.5c-2.7-1.3-5.6-2.3-8.5-2.7c-3.6-0.7-7.2-1-10.9-1c-3,0-6.1,0.4-8.9,1.4
	c-2.5,0.8-4.9,2.1-6.9,3.8c-1.9,1.6-3.4,3.6-4.5,5.9c-1.1,2.4-1.6,4.9-1.6,7.5c-0.1,3.1,0.7,6.1,2.3,8.8c1.5,2.2,3.5,4.1,5.7,5.6
	c2.3,1.5,4.9,2.8,7.5,3.7c2.7,1,5.2,2,7.5,2.9c2.1,0.8,4,2,5.7,3.4c0.7,0.6,1.3,1.4,1.8,2.2c0.4,0.9,0.6,1.8,0.6,2.8
	c0,1.1-0.2,2.2-0.7,3.1c-0.5,1-1.2,1.8-2.1,2.4c-1.9,1.4-4.5,2-7.9,2c-1.8,0-3.6-0.2-5.3-0.6c-1.6-0.4-3.1-0.9-4.6-1.5l-0.5-0.2v-9
	h-10v17c0.8,0.4,1.8,0.9,3.1,1.6c1.4,0.7,2.9,1.3,4.4,1.7c1.8,0.6,3.6,1,5.5,1.4c2.1,0.4,4.3,0.6,6.4,0.6c3.3,0,6.5-0.4,9.7-1.2
	c2.8-0.7,5.4-2,7.8-3.7c2.2-1.6,3.9-3.8,5.1-6.2c1.3-2.7,1.9-5.6,1.8-8.6c0.1-3-0.7-6-2.3-8.5C271.9,191.9,269.9,190,267.6,188.5
	L267.6,188.5z"/>
<path class="st0" d="M161.8,7l7-7l7,7l-7,7L161.8,7z"/>
<path class="st0" d="M260.8,20.9l7-7l7,7l-7,7L260.8,20.9z"/>
<path class="st0" d="M260.9,48.8l7-7l7,7l-7,7L260.9,48.8z"/>
<path class="st0" d="M161.8,35.2l7-7l7,7l-7,7L161.8,35.2z"/>
<path class="st0" d="M219,34.6l7-7l7,7l-7,7L219,34.6z"/>
<path class="st0" d="M190.8,62.8l7-7l7,7l-7,7L190.8,62.8z"/>
<path class="st0" d="M253.9,69.7l7-7L247,48.8l13.9-13.9l0,0L247,21l13.9-14l-7-7L240,13.9L226,0l-7,7l27.9,27.9L219,62.8l7,7
	l13.9-13.9L253.9,69.7L253.9,69.7z M218.7,48.8l-20.9-20.9l0,0l0,0l-20.9,20.9l7,7l13.9-13.9l13.9,13.9L218.7,48.8L218.7,48.8z"/>
<path class="st0" d="M183.9,27.9L197.8,14l13.9,13.9l7-7L197.8,0l0,0l-20.9,20.9L183.9,27.9L183.9,27.9z"/>
<path class="st0" d="M161.8,62.8l7-7l7,7l-7,7L161.8,62.8z"/>
<path class="st0" d="M181.8,189.1l7-7l7,7l-7,7L181.8,189.1z"/>
<path class="st0" d="M7,168.6l-7,7l7,7l7-7L7,168.6z"/>
<path class="st0" d="M50.8,154.6l-7,7l7,7l7-7L50.8,154.6z"/>
<path class="st0" d="M49.9,210.5l-7,7l7,7l7-7L49.9,210.5z"/>
<path class="st0" d="M35.9,196.4l-7,7l7,7l7-7L35.9,196.4z"/>
<path class="st0" d="M92.3,168.6l-7,7l7,7l7-7L92.3,168.6z"/>
<path class="st0" d="M106.3,154.6l-7,7l7,7l7-7L106.3,154.6z"/>
<path class="st0" d="M78.3,154.6l-7,7l7,7l7-7L78.3,154.6z"/>
<path class="st0" d="M106,210.3l-7,7l7,7l7-7L106,210.3z"/>
<path class="st0" d="M64.2,169.3l-20.1,20.1l20.1,20.1l20.1-20.1L64.2,169.3z M57.5,189.5l6.8-6.8l6.8,6.8l-6.8,6.8L57.5,189.5z"/>
<path class="st0" d="M42.2,175.2L21.9,154l-6.7,7.1l13.6,14.1L1.9,203L22,224l6.7-7l-13.3-13.9L42.2,175.2z"/>
<path class="st0" d="M120.2,169.3l-7.1,6.9l0,0l-6.9,6.7L71,217l7.1,6.9l35.2-34.1l14.2-13.8L120.2,169.3z"/>
<path class="st0" d="M162,154l-7,7l7,7l7-7L162,154z"/>
<path class="st0" d="M133.9,154l-7,7l7,7l7-7L133.9,154z"/>
<path class="st0" d="M148.4,169.3l-21.3,20.5l14.3,13.7l-7.4,7.1l-13.7-13.3l-7.1,6.9l21,19.6l21.4-20.4l14.2-13.7L148.4,169.3z
	 M148.4,196.7l-7.2-6.9l7.2-6.9l7.1,6.9L148.4,196.7z"/>
<path class="st0" d="M162.1,210.3l-7,7l7,7l7-7L162.1,210.3z"/>
</svg>
