<?xml version="1.0" encoding="utf-8"?><svg version="1.1" id="Layer_1" xmlns="http://www.w3.org/2000/svg" xmlns:xlink="http://www.w3.org/1999/xlink" x="0px" y="0px" viewBox="0 0 555 218.54" style="enable-background:new 0 0 555 218.54;" xml:space="preserve"><style type="text/css">.st0{fill:#B00824;}</style><g><g><path d="M20,42.07c-2.82,2.73-5.01,5.91-6.57,9.56c-1.56,3.65-2.34,7.62-2.34,11.9v3.94h109.04v11.09H11.09v44.52H0V63.53c0-5.84,1.09-11.26,3.28-16.28c2.19-5.01,5.13-9.36,8.83-13.06c3.79-3.8,8.2-6.79,13.21-8.98c5.01-2.19,10.39-3.28,16.13-3.28h85.24v11.09H41.45c-4.19,0-8.1,0.8-11.75,2.41C26.05,37.04,22.82,39.25,20,42.07z"/></g><g><path d="M37.47,207.77l79.81-0.72c1.13-0.01,2.17-0.3,3.11-0.88c0.94-0.58,1.74-1.29,2.39-2.15c0.65-0.86,1.14-1.76,1.46-2.71c0.32-0.95,0.48-1.8,0.47-2.56l-0.01-1.28c-0.01-1.42-0.41-2.9-1.17-4.46c-0.77-1.55-2.25-2.74-4.43-3.57c-0.85-0.37-3.89-1.76-9.11-4.17c-2.28-1.02-5.15-2.34-8.61-3.96c-3.47-1.62-7.74-3.62-12.81-5.98c-5.08-2.36-11.03-5.15-17.87-8.34c-6.83-3.2-14.76-6.88-23.78-11.06c-3.13-1.39-5.61-3-7.42-4.82c-1.81-1.83-2.73-3.97-2.75-6.43l-0.02-2.27c0.07-3.03,0.85-5.39,2.35-7.11c1.5-1.72,3.99-3.39,7.47-5.03l71.42-34.81c1.5-0.77,2.54-1.39,3.1-1.87c0.56-0.48,1.22-1.24,1.96-2.29c0.46-0.95,0.69-2.18,0.68-3.69l-0.02-1.7c-0.01-1.04-0.25-2.01-0.73-2.9c-0.48-0.89-1.1-1.72-1.87-2.46c-0.76-0.75-1.6-1.38-2.5-1.89c-0.9-0.51-1.73-0.81-2.49-0.9l-79.81,0.72l-0.1-10.77l80.38-0.73c2.27-0.02,4.42,0.46,6.46,1.43c2.04,0.97,3.9,2.3,5.57,3.99c1.67,1.69,3.01,3.63,4.02,5.85c1.01,2.21,1.62,4.54,1.83,7l0.16,2.27c0.01,1.32-0.1,2.53-0.32,3.62c-0.23,1.09-0.53,2.15-0.89,3.2c-0.27,1.04-0.78,2.11-1.53,3.2c-0.75,1.09-1.59,2.12-2.52,3.07c-0.94,0.95-1.9,1.79-2.88,2.51c-0.99,0.72-1.86,1.22-2.61,1.51c-0.56,0.38-1.18,0.67-1.84,0.87L50.9,140.17c-0.47,0.19-1.08,0.53-1.83,1.01c-0.75,0.48-1.13,1-1.12,1.57l0.01,0.85c0.19,0.47,0.62,0.92,1.29,1.34c0.66,0.42,1.09,0.67,1.28,0.77l0.43,0.14l71.75,33.52c1.9,0.93,3.87,2.11,5.92,3.56c2.04,1.45,3.64,3.25,4.8,5.41c0.67,1.22,1.2,2.56,1.6,4.03c0.39,1.46,0.59,2.99,0.61,4.6l-0.12,2.27c0.02,2.27-0.5,4.49-1.57,6.68c-1.07,2.18-2.42,4.13-4.06,5.85c-1.64,1.72-3.49,3.13-5.56,4.23c-2.07,1.1-4.1,1.71-6.08,1.83l-80.66,0.73L37.47,207.77z"/></g></g><g><path d="M205.13,21.55c-0.42,0.91-0.89,1.94-1.42,3.1c-0.53,1.16-0.86,1.87-1,2.15c-0.28,0.49-0.7,0.96-1.26,1.42c-0.56,0.46-1.44,0.68-2.63,0.68h-8.19c-0.49,0-0.91,0.16-1.26,0.47c-0.35,0.32-0.53,0.72-0.53,1.21v22.47l13.13-0.11c-0.42,0.98-0.89,2.05-1.42,3.2c-0.53,1.16-0.86,1.91-1,2.26c-0.28,0.49-0.72,0.94-1.31,1.36c-0.6,0.42-1.49,0.63-2.68,0.63h-4.94c-0.49,0-0.91,0.16-1.26,0.47c-0.35,0.32-0.53,0.72-0.53,1.21v29.09c0,0.63-0.21,1.16-0.63,1.58c-0.42,0.42-0.94,0.63-1.58,0.63h-5.15V23.65c0-0.56,0.23-1.05,0.68-1.47c0.45-0.42,0.96-0.63,1.52-0.63H205.13z"/><path d="M238.42,93.38h-7.35V67.12c0-1.82-0.39-3.05-1.16-3.68c-0.77-0.63-1.68-0.94-2.73-0.94h-3.89v30.87h-7.35V21.55h13.38c1.25,0,2.44,0.23,3.55,0.68c1.11,0.46,2.07,1.09,2.87,1.89c0.8,0.81,1.45,1.75,1.93,2.84c0.49,1.09,0.73,2.26,0.73,3.52v22.26c0,1.4-0.16,2.52-0.47,3.36c-0.31,0.84-0.64,1.47-0.98,1.89c-0.41,0.49-0.86,0.84-1.35,1.05c0.48,0.28,0.93,0.74,1.35,1.37c0.34,0.56,0.67,1.28,0.98,2.15c0.31,0.88,0.47,1.98,0.47,3.31V93.38z M229.91,54.78c0.77-0.59,1.16-1.7,1.16-3.31v-18.9c0-1.4-0.39-2.36-1.16-2.89c-0.77-0.53-1.68-0.79-2.73-0.79h-3.89v26.78h3.89C228.23,55.68,229.14,55.38,229.91,54.78z"/><path d="M279.9,23.96c1.75,1.75,2.63,3.85,2.63,6.3v54.61c0,1.26-0.23,2.42-0.68,3.47c-0.46,1.05-1.09,1.98-1.89,2.78c-0.81,0.81-1.75,1.45-2.83,1.94c-1.09,0.49-2.22,0.77-3.41,0.84h-5.67c-2.52,0-4.67-0.87-6.46-2.63c-1.78-1.75-2.68-3.89-2.68-6.41V30.26c0-2.52,0.89-4.67,2.68-6.46c1.79-1.79,3.94-2.68,6.46-2.68h5.67C276.08,21.27,278.15,22.21,279.9,23.96z M274.02,86.34c0.77-0.77,1.16-1.71,1.16-2.83V31.52c0-1.12-0.39-2.06-1.16-2.84c-0.77-0.77-1.72-1.16-2.83-1.16h-1.16c-1.05,0.07-1.94,0.47-2.68,1.21c-0.73,0.73-1.1,1.66-1.1,2.78V83.5c0,1.12,0.37,2.05,1.1,2.78c0.74,0.74,1.66,1.14,2.78,1.21h1.05C272.3,87.49,273.25,87.11,274.02,86.34z"/><path d="M326.94,21.55v71.83h-3.38c-0.99,0-1.8-0.17-2.43-0.53c-0.63-0.35-1.13-0.77-1.48-1.26c-0.35-0.49-0.62-1-0.79-1.52c-0.18-0.53-0.3-0.96-0.37-1.31l-7.93-35.49v40.11h-7.35V21.55h3.36c2.1,0,3.45,0.4,4.04,1.21c0.59,0.81,1,1.73,1.21,2.78l7.77,37.38V21.55H326.94z"/><path d="M372.52,21.55c-0.42,0.92-0.89,1.97-1.42,3.14c-0.53,1.17-0.86,1.9-1,2.18c-0.21,0.5-0.61,0.96-1.21,1.39c-0.6,0.43-1.49,0.64-2.68,0.64h-5.78c-0.56,0-1,0.18-1.31,0.53c-0.32,0.35-0.47,0.77-0.47,1.26v62.69h-5.67c-0.84,0-1.38-0.19-1.63-0.58c-0.25-0.38-0.4-0.72-0.47-1V28.9h-10.29v-5.11c0-0.64,0.21-1.17,0.63-1.6c0.42-0.43,0.95-0.64,1.58-0.64H372.52z"/><path d="M393.52,54.1v5.15c0,0.63-0.21,1.16-0.63,1.58c-0.42,0.42-0.95,0.63-1.58,0.63h-11.87v-5.04c0-0.63,0.23-1.17,0.68-1.63c0.45-0.45,0.96-0.68,1.52-0.68H393.52z"/><path d="M419.93,83.82H440c0.64,0,0.86,0.34,0.68,1.02c-0.18,0.68-0.52,1.46-1.02,2.32c-0.5,0.87-1.05,1.66-1.64,2.39c-0.59,0.73-0.98,1.14-1.16,1.23c-0.27,0.64-0.8,1.23-1.57,1.78c-0.77,0.55-1.93,0.82-3.48,0.82h-21.43V2.73c0-0.82,0.29-1.48,0.89-1.98c0.59-0.5,1.25-0.75,1.98-0.75h24.98c0.64,0,0.86,0.34,0.68,1.02c-0.18,0.68-0.52,1.43-1.02,2.25c-0.5,0.82-1.05,1.59-1.64,2.32c-0.59,0.73-0.98,1.14-1.16,1.23c-0.27,0.64-0.8,1.25-1.57,1.84c-0.77,0.59-1.93,0.89-3.48,0.89h-7.78c-0.64,0-1.18,0.21-1.64,0.62c-0.46,0.41-0.68,0.94-0.68,1.58v27.98h14.47c0.64,0,0.89,0.34,0.75,1.01c-0.14,0.67-0.46,1.44-0.96,2.29c-0.5,0.85-1.07,1.64-1.71,2.36c-0.64,0.72-1.05,1.12-1.23,1.21c-0.27,0.72-0.8,1.35-1.57,1.89c-0.77,0.54-1.93,0.81-3.48,0.81l-3.96-0.14c-0.64,0-1.18,0.23-1.64,0.68c-0.46,0.46-0.68,1-0.68,1.64V83.82z"/><path d="M486.96,0v93.38h-4.4c-1.28,0-2.34-0.23-3.16-0.68c-0.82-0.45-1.46-1-1.92-1.64c-0.46-0.64-0.8-1.3-1.03-1.98c-0.23-0.68-0.39-1.25-0.48-1.71l-10.3-46.14v52.15h-9.56V0h4.37c2.73,0,4.48,0.52,5.26,1.57c0.77,1.05,1.3,2.25,1.57,3.62l10.1,48.6V0H486.96z"/><path d="M544.57,13.38v66.48c0,9.01-4.42,13.52-13.24,13.52h-17.2V0h17.2C540.15,0,544.57,4.46,544.57,13.38z M535.01,15.02c0-2.18-0.45-3.75-1.35-4.71c-0.9-0.96-2.11-1.43-3.64-1.43h-6.34V84.5h6.34c1.53,0,2.74-0.48,3.64-1.43c0.9-0.96,1.35-2.53,1.35-4.71V15.02z"/></g><g><path class="st0" d="M220,129.52v86.19h-8.82v-44.48l-6.68,29.49h-2.65c-1.26,0-2.31-0.27-3.15-0.82c-0.84-0.55-1.49-1.2-1.95-1.95c-0.46-0.76-0.8-1.51-1.01-2.27c-0.21-0.76-0.36-1.39-0.44-1.89l-5.17-22.56v44.48h-8.82v-86.19h5.42c0.67,0,1.26,0.13,1.76,0.38c0.42,0.17,0.84,0.48,1.26,0.95c0.42,0.46,0.71,1.07,0.88,1.83l10.21,49.52l9.7-49.52c0.08-0.25,0.36-0.84,0.82-1.76c0.46-0.92,1.49-1.39,3.09-1.39H220z"/><path class="st0" d="M275.07,215.71h-9.7l-7.69-59.48l-7.81,59.48h-9.7l13.11-86.19h4.66c1.93,0,3.17,0.48,3.72,1.45c0.55,0.97,0.9,2.04,1.07,3.21L275.07,215.71z"/><path class="st0" d="M321.44,205.38c0,2.94-1.03,5.46-3.09,7.56c-2.06,2.1-4.56,3.23-7.5,3.4h-5.54c-3.02,0-5.59-1.07-7.69-3.21c-2.1-2.14-3.15-4.73-3.15-7.75v-65.4c0-3.02,1.05-5.61,3.15-7.75c2.1-2.14,4.66-3.21,7.69-3.21h5.54c2.94,0.17,5.44,1.3,7.5,3.4c2.06,2.1,3.09,4.62,3.09,7.56v5.54c0,1.43-0.25,2.5-0.76,3.21c-0.5,0.71-1.05,1.24-1.64,1.58c-0.42,0.17-1.32,0.57-2.71,1.2c-1.39,0.63-2.63,1.2-3.72,1.7v-11.84c0-1.26-0.46-2.35-1.39-3.28c-0.93-0.92-2.02-1.39-3.28-1.39c-1.34,0-2.46,0.46-3.34,1.39c-0.88,0.93-1.32,2.02-1.32,3.28v62.63c0,1.26,0.44,2.35,1.32,3.28c0.88,0.93,1.99,1.39,3.34,1.39c1.26,0,2.35-0.46,3.28-1.39c0.92-0.92,1.39-2.02,1.39-3.28v-25.58h-0.38c-0.42,0-0.8-0.13-1.13-0.38c-0.34-0.17-0.67-0.44-1.01-0.82c-0.34-0.38-0.67-0.9-1.01-1.58l-3.02-6.05h11.09c1.26,0,2.29,0.36,3.09,1.07c0.8,0.71,1.2,1.91,1.2,3.59V205.38z"/><path class="st0" d="M373.11,215.71h-9.7l-7.69-59.48l-7.81,59.48h-9.7l13.11-86.19h4.66c1.93,0,3.17,0.48,3.72,1.45c0.55,0.97,0.9,2.04,1.07,3.21L373.11,215.71z"/><path class="st0" d="M398.12,206.26c0.29,0.42,0.73,0.63,1.32,0.63h24.07l-2.9,6.43c-0.25,0.59-0.76,1.13-1.51,1.64c-0.76,0.5-1.85,0.76-3.28,0.76h-32.01l25.33-75.1c0.17-0.59,0.13-1.09-0.13-1.51c-0.25-0.42-0.76-0.63-1.51-0.63h-10.08c-1.43,0-2.5-0.25-3.21-0.76c-0.71-0.5-1.2-1.05-1.45-1.64c-0.17-0.42-0.57-1.32-1.2-2.71c-0.63-1.39-1.2-2.62-1.7-3.72h33.39l-25.33,74.98C397.76,205.29,397.83,205.84,398.12,206.26z"/><path class="st0" d="M447.58,130.71c0.5,0.8,0.76,1.53,0.76,2.21v82.79h-6.3c-1.01,0-1.66-0.21-1.95-0.63c-0.3-0.42-0.48-0.84-0.57-1.26v-84.3h5.29C446.15,129.52,447.08,129.91,447.58,130.71z"/><path class="st0" d="M502.02,129.52v86.19h-4.06c-1.19,0-2.16-0.21-2.92-0.63c-0.76-0.42-1.35-0.92-1.78-1.51c-0.42-0.59-0.74-1.2-0.95-1.83c-0.21-0.63-0.36-1.15-0.44-1.58l-9.51-42.59v48.14h-8.82v-86.19h4.03c2.52,0,4.14,0.48,4.85,1.45c0.71,0.97,1.2,2.08,1.45,3.34l9.32,44.86v-49.65H502.02z"/><path class="st0" d="M535.79,206.89h18.52c0.59,0,0.8,0.31,0.63,0.95c-0.17,0.63-0.48,1.34-0.94,2.14c-0.46,0.8-0.97,1.53-1.51,2.21c-0.55,0.67-0.9,1.05-1.07,1.13c-0.25,0.59-0.74,1.13-1.45,1.64c-0.71,0.5-1.79,0.76-3.21,0.76h-19.78v-83.67c0-0.76,0.27-1.36,0.82-1.83c0.55-0.46,1.15-0.69,1.83-0.69h23.06c0.59,0,0.8,0.32,0.63,0.94c-0.17,0.63-0.48,1.32-0.95,2.08c-0.46,0.76-0.97,1.47-1.51,2.14c-0.55,0.67-0.9,1.05-1.07,1.13c-0.25,0.59-0.74,1.16-1.45,1.7c-0.71,0.55-1.79,0.82-3.21,0.82h-7.18c-0.59,0-1.09,0.19-1.51,0.57c-0.42,0.38-0.63,0.86-0.63,1.46v25.82h13.36c0.59,0,0.82,0.31,0.69,0.93c-0.13,0.62-0.42,1.32-0.88,2.11c-0.46,0.79-0.99,1.51-1.58,2.17c-0.59,0.66-0.97,1.04-1.13,1.12c-0.25,0.66-0.74,1.24-1.45,1.74c-0.71,0.5-1.79,0.74-3.21,0.74l-3.65-0.13c-0.59,0-1.09,0.21-1.51,0.63c-0.42,0.42-0.63,0.93-0.63,1.51V206.89z"/></g></svg>