<?xml version="1.0" encoding="utf-8"?>
<!-- Generator: Adobe Illustrator 22.1.0, SVG Export Plug-In . SVG Version: 6.00 Build 0)  -->
<svg version="1.1" id="Слой_1" xmlns="http://www.w3.org/2000/svg" xmlns:xlink="http://www.w3.org/1999/xlink" x="0px" y="0px"
	 viewBox="0 0 630 630" style="enable-background:new 0 0 630 630;" xml:space="preserve">
<style type="text/css">
	.st0{fill:#0057B8;}
	.st1{fill:#FFD700;}
</style>
<g>
	<g>
		<polygon class="st0" points="0,0 0,315 410,315 630,315 630,0 		"/>
	</g>
</g>
<rect y="315" class="st1" width="630" height="315"/>
<path d="M550.9,315c4.6,5.3,8.8,11.3,12.8,18.3l-46.1,29.6c-10.1-18.2-21.1-25.4-38.1-25.4c-17.3,0-28.3,11-28.3,25.4
	c0,17.8,11,24.9,36.4,35.9l14.8,6.3c50.3,21.6,78.7,43.6,78.7,93c0,53.3-41.9,82.5-98.1,82.5c-55,0-90.5-26.2-107.9-60.5l48.1-28
	c12.7,20.7,29.2,36,58.4,36c24.5,0,40.2-12.3,40.2-29.2c0-20.3-16.1-27.5-43.1-39.3l-14.8-6.3c-42.7-18.2-71.1-41-71.1-89.2
	c0-18.9,6.1-35.8,17.2-49.1L550.9,315z M343.1,315c0,58.8,0,117.6,0,176.4c0,61.3-35.9,89.2-88.4,89.2c-47.4,0-74.9-24.5-88.8-54.1
	l48.2-29.2c9.3,16.5,17.8,30.5,38.1,30.5c19.5,0,31.7-7.6,31.7-37.2c0-58.5,0-117,0-175.6C303.6,315,323.4,315,343.1,315z"/>
<path class="st1" d="M410,315c15-17.9,39.1-29.1,69.5-29.1c30,0,53.3,8.3,71.4,29.1 M283.9,315c0-8.6,0-17.2,0-25.7h59.2
	c0,8.6,0,17.2,0,25.7C323.4,315,303.6,315,283.9,315z"/>
</svg>
