<svg xmlns="http://www.w3.org/2000/svg" id="Слой_1" viewBox="0 0 630 630"><style>.st1{fill:gold}</style><path fill="#0057b8" d="M0 0v315h630V0z"/><path d="M0 315h630v315H0z" class="st1"/><path d="M550.9 315c4.6 5.3 8.8 11.3 12.8 18.3l-46.1 29.6c-10.1-18.2-21.1-25.4-38.1-25.4-17.3 0-28.3 11-28.3 25.4 0 17.8 11 24.9 36.4 35.9l14.8 6.3c50.3 21.6 78.7 43.6 78.7 93 0 53.3-41.9 82.5-98.1 82.5-55 0-90.5-26.2-107.9-60.5l48.1-28c12.7 20.7 29.2 36 58.4 36 24.5 0 40.2-12.3 40.2-29.2 0-20.3-16.1-27.5-43.1-39.3l-14.8-6.3c-42.7-18.2-71.1-41-71.1-89.2 0-18.9 6.1-35.8 17.2-49.1h140.9zm-207.8 0v176.4c0 61.3-35.9 89.2-88.4 89.2-47.4 0-74.9-24.5-88.8-54.1l48.2-29.2c9.3 16.5 17.8 30.5 38.1 30.5 19.5 0 31.7-7.6 31.7-37.2V315h59.2z"/><path d="M410 315c15-17.9 39.1-29.1 69.5-29.1 30 0 53.3 8.3 71.4 29.1m-267 0v-25.7h59.2V315h-59.2z" class="st1"/></svg>