<svg xmlns="http://www.w3.org/2000/svg" viewBox="0 0 200 48"><path d="M0 0h84.8v48H0V0zm12.4 34v-6.9l2.4-2.6L22 34h3.2l-8.7-11.2 8-8.5h-3.1l-8.7 9.6h-.2v-9.6H9.9V34h2.5zm28.2-2.2h-9.9V25H40v-2.2h-9.4v-6.3h9.9v-2.2H28.2V34h12.3l.1-2.2zm16.5 0h-9.9V25h9.3v-2.2h-9.3v-6.3h9.9v-2.2H44.8V34h12.3v-2.2zm6.7 2.2V18.7h.2L74.8 34h2.4V14.3h-2.5v15.4h-.2L63.7 14.3h-2.4V34h2.5z"/><path d="M86.9 4v40H196V4H86.9zm-4.1-4H200v48H82.8V0z"/><path d="M106.4 31.8h-9.9V25h9.3v-2.2h-9.3v-6.3h9.9v-2.2H94.1V34h12.3v-2.2zm11.9 2.2V16.5h6.4v-2.2h-15.3v2.2h6.4V34h2.5zm25.8 0V14.3h-2.5v8.5h-10.9v-8.5h-2.5V34h2.5v-9h10.9v9h2.5zm7.3 0V14.3h-2.5V34h2.5zm12.8.5c2.1 0 3.9-.5 5.4-1.6 1.5-1.1 2.4-2.5 2.7-4.3h-2.5c-.3 1.1-1 2.1-2 2.7-1 .7-2.2 1-3.6 1-1.9 0-3.4-.7-4.6-2.2-1.1-1.4-1.7-3.4-1.7-5.9 0-2.5.6-4.4 1.7-5.9s2.6-2.2 4.6-2.2c1.4 0 2.6.4 3.6 1.1 1 .7 1.7 1.8 2 3h2.5c-.3-1.9-1.2-3.5-2.7-4.6-1.5-1.2-3.3-1.8-5.4-1.8-2.7 0-4.8.9-6.4 2.8-1.6 1.9-2.4 4.4-2.4 7.6 0 3.2.8 5.7 2.4 7.5 1.5 1.8 3.7 2.8 6.4 2.8zm11-5.7c.1 1.7.9 3.1 2.2 4.1 1.4 1 3.1 1.5 5.2 1.5 2.3 0 4.1-.5 5.4-1.6 1.3-1.1 2-2.5 2-4.3 0-1.4-.4-2.6-1.3-3.5-.9-.9-2.4-1.5-4.4-2l-2.1-.5c-1.4-.3-2.4-.8-2.9-1.2-.6-.5-.9-1.1-.9-1.9 0-1 .4-1.8 1.2-2.4.8-.6 1.9-.9 3.2-.9 1.2 0 2.3.3 3.1.9s1.3 1.4 1.5 2.4h2.5c-.1-1.6-.8-2.9-2.1-3.9S184.9 14 183 14c-2.1 0-3.8.5-5.1 1.6-1.3 1-1.9 2.4-1.9 4.1 0 1.4.4 2.5 1.2 3.4.8.8 2.1 1.5 3.9 1.9l2.6.7c1.4.3 2.4.8 3 1.3s1 1.3 1 2.1c0 1-.4 1.8-1.3 2.4-.9.6-2 1-3.3 1-1.4 0-2.6-.3-3.5-.9-.9-.6-1.5-1.4-1.6-2.5l-2.8-.3z"/><ellipse cx="86.9" cy="32" fill="#d62c2c" rx="4" ry="4"/></svg>