<svg xmlns="http://www.w3.org/2000/svg" xmlns:xlink="http://www.w3.org/1999/xlink" id="Слой_1" enable-background="new 0 0 454 454" viewBox="0 0 454 454"><style>.st4{fill:#fff}</style><filter id="blur"><feGaussianBlur stdDeviation="25"/></filter><path id="XMLID_4_" fill="#ffdf5b" d="M302.5 115.6L43.7 43.4l70.1 250.9C129.4 360.6 189 410 260.1 410c83 0 150.2-67.3 150.2-150.2 0-68.3-45.5-125.8-107.8-144.2z"/><defs><path id="SVGID_1_" d="M302.5 115.6L43.7 43.4l70.1 250.9C129.4 360.6 189 410 260.1 410c83 0 150.2-67.3 150.2-150.2 0-68.3-45.5-125.8-107.8-144.2z"/></defs><clipPath id="SVGID_2_"><use overflow="visible" xlink:href="#SVGID_1_"/></clipPath><g clip-path="url(#SVGID_2_)" filter="url(#blur)"><ellipse cx="93.7" cy="113.4" fill="#21a2ea" rx="176.7" ry="258.8" transform="rotate(-45 93.69700201 113.41840177)"/></g><path id="XMLID_322_" fill="#231f20" d="M59.4 226.5H446V300H59.4z"/><path d="M103.6 265.8c-.6-1-1.3-1.8-2.1-2.4-.7-.6-1.6-1.1-2.5-1.4 1.3-.7 2.5-1.7 3.6-3.2l15.6-21.3h-10.6c-1.2 0-2.2.2-3 .5-.7.3-1.5 1-2.2 1.9l-11.9 17.2c-.8 1.1-2.1 1.7-3.9 1.7h-2l-.1-21.3H72.3v52.7h12.2v-22.4h3c1.1 0 2 .1 2.7.4s1.3.7 1.7 1.4l11.9 18.4c.3.4.5.7.8 1 .2.3.6.5.9.7.4.2.8.3 1.3.4s1.1.1 1.8.1h10.9l-15.9-24.4zM154.3 260.6c-.6-1.7-1.4-3.2-2.5-4.5-1.1-1.3-2.4-2.3-4-3-1.6-.8-3.5-1.1-5.5-1.1-2.2 0-4.1.4-5.7 1.1-1.6.7-3.1 1.7-4.4 2.8V236H121v54.2h11.3v-26.8c1-.9 2-1.6 3.1-2.1s2.3-.8 3.5-.8c1.6 0 2.9.5 3.7 1.5.9 1 1.3 2.5 1.3 4.3v23.9h11.2v-23.9c0-2-.2-4-.8-5.7zM189.6 260.8c-.7-1.8-1.6-3.4-2.9-4.7-1.2-1.3-2.8-2.4-4.6-3.1-1.8-.7-3.8-1.1-6.1-1.1-3.2 0-6.1.5-8.9 1.5-2.7 1-5.2 2.5-7.5 4.5l2 3c.3.6.8 1 1.3 1.4.6.4 1.2.6 2 .6s1.6-.1 2.2-.4c.6-.3 1.2-.7 1.9-1 .6-.4 1.4-.7 2.2-1 .9-.3 2-.4 3.3-.4 1.6 0 2.9.5 3.8 1.5.9 1 1.3 2.6 1.3 4.8v1.6c-4.3.1-7.9.5-10.7 1.3s-5 1.8-6.7 2.9-2.8 2.4-3.5 3.8-1 2.8-1 4.1c0 1.7.3 3.2.8 4.5.5 1.4 1.2 2.4 2.2 3.3s2.2 1.6 3.6 2c1.4.5 3 .7 4.7.7 1.3 0 2.5-.1 3.5-.3 1.1-.2 2.1-.5 3-.9s1.8-.9 2.7-1.5 1.8-1.3 2.7-2.1l.8 2.1c.3.9.7 1.5 1.3 1.8.5.3 1.3.4 2.4.4h5.2v-23.4c0-2.1-.3-4.1-1-5.9zm-9.8 19.3c-1.1 1.2-2.2 2-3.3 2.5-1.1.6-2.3.8-3.8.8-1.4 0-2.4-.3-3.1-.8-.7-.5-1-1.4-1-2.7 0-.7.2-1.2.5-1.8.4-.6 1-1.1 1.8-1.5s1.9-.8 3.4-1.1c1.4-.3 3.3-.5 5.5-.6v5.2zM215.8 251.9c-1.9 0-3.7.6-5.2 1.7-1.5 1.2-2.9 2.8-4 4.8l-.6-3.2c-.1-.4-.2-.9-.3-1.2-.2-.3-.4-.6-.6-.8-.2-.2-.5-.3-.9-.4-.4-.1-.8-.1-1.4-.1h-6.7v37.5h11.2v-22.8c.7-1.5 1.5-2.7 2.5-3.6s2.3-1.3 3.9-1.3c.3 0 .7.1 1 .1s.7.1 1 .1c.4 0 .7.1 1 .1h.8c.4 0 .8-.1 1.1-.3.3-.2.5-.6.6-1.1l.7-8.3c-1-.8-2.4-1.2-4.1-1.2zM248.3 272.3c-.4-.7-.9-1.2-1.3-1.8-.4-.5-.9-1-1.5-1.4 1.3-.8 2.4-1.8 3.3-3l9.7-13.3h-10.3c-.8 0-1.5.1-2.1.4-.6.2-1.1.7-1.5 1.3l-7.1 10.6c-.4.4-.8.8-1.1 1-.4.2-.9.3-1.6.3h-1.7V236H222v54.1h11.2v-16.6h2.2c.7 0 1.3.1 1.6.3.3.2.7.6 1 1.2l7.1 13.3c.4.7.9 1.2 1.5 1.5s1.4.4 2.2.4h10.1l-10.6-17.9zM260.7 252.7h11.2v37.5h-11.2zM272.4 239.8c-.4-.8-.9-1.5-1.5-2.1s-1.4-1.1-2.2-1.4c-.9-.3-1.8-.5-2.7-.5-.9 0-1.8.2-2.6.5s-1.5.8-2.1 1.4c-.7.6-1.2 1.3-1.5 2.1s-.5 1.7-.5 2.6c0 .9.2 1.7.5 2.5.4.8.9 1.5 1.5 2.1s1.3 1.1 2.1 1.4c.8.3 1.7.5 2.6.5 1 0 1.9-.2 2.7-.5.9-.3 1.6-.8 2.2-1.4.6-.6 1.2-1.3 1.5-2.1.4-.8.6-1.6.6-2.5 0-.9-.1-1.8-.6-2.6zM304.1 252.7c-.8 0-1.4.2-1.9.6-.5.4-.9.8-1.1 1.4l-5.4 16.8c-.9 2.6-1.7 5.3-2.2 7.9-.2-1.3-.6-2.6-.9-3.9s-.8-2.6-1.2-4l-5.2-16.8c-.2-.6-.5-1-1.1-1.4-.5-.4-1.2-.6-2-.6h-9.3l14.6 37.5h10.2l14.6-37.5h-9.1zM353.6 277.4c-.2-.3-.5-.5-.8-.6s-.6-.2-.9-.2-.6 0-1.3.4l-.9.6c-.7.6-1.4 1.2-2.1 1.6-.6.4-1.4.8-2.2 1-.8.3-1.7.5-2.6.6s-1.9.2-3 .2c-1.9 0-3.7-.3-5.4-1.1s-3.1-1.8-4.4-3.3c-1.3-1.4-2.3-3.2-3-5.3-.7-2.1-1.1-4.5-1.1-7.2s.3-5.1 1-7.2 1.6-3.8 2.8-5.3c1.3-1.5 2.7-2.5 4.4-3.3 1.7-.7 3.6-1.1 5.6-1.1 1.3 0 2.4.1 3.4.3.9.2 1.8.4 2.5.7s1.3.6 1.8.9 1 .6 1.4.9c.4.3.8.5 1.2.7.4.2.8.3 1.2.3.6 0 1.2-.1 1.5-.4.3-.2.6-.6.9-.9l4.1-5.5c-1-1-2.1-1.9-3.4-2.8-1.3-.9-2.7-1.6-4.2-2.2-1.5-.7-3.1-1.2-4.9-1.5s-3.6-.5-5.6-.5c-3.9 0-7.5.7-10.7 2s-6 3.2-8.3 5.6c-2.3 2.4-4.1 5.2-5.4 8.5-1.3 3.3-1.9 6.9-1.9 10.8 0 3.8.6 7.4 1.8 10.7 1.2 3.2 2.9 6.1 5.1 8.5 2.2 2.3 4.9 4.3 8.1 5.6s6.8 2 10.8 2c4.3 0 8.1-.7 11.3-2.1 3.2-1.4 5.9-3.5 8-6.3l-4.8-5.1zM395.4 267.7c-.7-1.6-1.6-2.9-2.7-4s-2.4-2-3.8-2.7-2.8-1.3-4.3-1.8-2.9-1-4.3-1.4-2.7-.9-3.8-1.4c-1.1-.5-2-1.1-2.7-1.8s-1-1.5-1-2.6c0-1.7.6-3 1.7-4s2.8-1.5 5.1-1.5c1.4 0 2.6.2 3.6.5 1.1.4 2 .8 2.8 1.2.9.5 1.6.9 2.2 1.2.7.3 1.2.5 1.8.5.6 0 1.1-.1 1.5-.4.4-.3.8-.7 1.1-1.3l3-5.4c-1-.9-2-1.7-3.2-2.4-1.1-.7-2.4-1.3-3.8-1.8s-2.9-.9-4.4-1.1c-1.5-.3-3.1-.4-4.7-.4-2.9 0-5.5.4-7.7 1.3-2.3.8-4.1 2-5.7 3.5-1.5 1.4-2.7 3.1-3.5 5s-1.2 3.8-1.2 5.8c0 2.5.3 4.5 1 6.2s1.6 3.1 2.7 4.2c1 1.1 2.3 2 3.7 2.7 1.4.7 2.8 1.2 4.3 1.7s2.9.9 4.3 1.3c1.3.3 2.6.8 3.7 1.3s2 1.1 2.7 1.9 1 1.8 1 3c0 2.1-.6 3.6-1.8 4.6-1.3 1-3 1.5-5.2 1.5-1.7 0-3.1-.3-4.3-.7-1.2-.4-2.3-.9-3.2-1.5-.9-.5-1.8-1.1-2.5-1.5-.7-.5-1.5-.7-2.2-.7-.5 0-1 .1-1.5.4-.4.2-.8.6-1.1 1l-3.6 5.7c1.1 1 2.3 2 3.7 2.8 1.4.9 2.9 1.6 4.5 2.2 1.5.6 3.2 1.1 4.9 1.4s3.4.5 5 .5c3 0 5.6-.4 8-1.3 2.3-.9 4.3-2.1 5.9-3.7s2.9-3.5 3.7-5.6c.9-2.1 1.3-4.4 1.3-6.8 0-2.2-.3-4-1-5.6zM433.5 267.7c-.7-1.6-1.6-2.9-2.7-4s-2.4-2-3.8-2.7-2.8-1.3-4.3-1.8-2.9-1-4.3-1.4-2.7-.9-3.8-1.4c-1.1-.5-2-1.1-2.7-1.8s-1-1.5-1-2.6c0-1.7.6-3 1.7-4s2.8-1.5 5.1-1.5c1.4 0 2.6.2 3.6.5 1.1.4 2 .8 2.8 1.2.9.5 1.6.9 2.2 1.2.7.3 1.2.5 1.8.5.6 0 1.1-.1 1.5-.4.4-.3.8-.7 1.1-1.3l3-5.4c-1-.9-2-1.7-3.2-2.4-1.1-.7-2.4-1.3-3.8-1.8s-2.9-.9-4.4-1.1c-1.5-.3-3.1-.4-4.7-.4-2.9 0-5.5.4-7.7 1.3-2.3.8-4.1 2-5.7 3.5-1.5 1.4-2.7 3.1-3.5 5s-1.2 3.8-1.2 5.8c0 2.5.3 4.5 1 6.2s1.6 3.1 2.7 4.2c1 1.1 2.3 2 3.7 2.7 1.4.7 2.8 1.2 4.3 1.7s2.9.9 4.3 1.3c1.3.3 2.6.8 3.7 1.3s2 1.1 2.7 1.9 1 1.8 1 3c0 2.1-.6 3.6-1.8 4.6-1.3 1-3 1.5-5.2 1.5-1.7 0-3.1-.3-4.3-.7-1.2-.4-2.3-1-3.2-1.5-.9-.5-1.8-1.1-2.5-1.5-.7-.5-1.5-.7-2.2-.7-.5 0-1 .1-1.5.4-.4.2-.8.6-1.1 1l-3.6 5.7c1.1 1 2.3 2 3.7 2.8 1.4.9 2.9 1.6 4.5 2.2 1.5.6 3.2 1.1 4.9 1.4s3.4.5 5 .5c3 0 5.6-.4 8-1.3 2.3-.9 4.3-2.1 5.9-3.7s2.9-3.5 3.7-5.6c.9-2.1 1.3-4.4 1.3-6.8 0-2.2-.3-4-1-5.6z" class="st4"/></svg>