<svg xmlns="http://www.w3.org/2000/svg" id="Слой_1" viewBox="0 0 200 30.3"><style>.st0{fill:#fff}</style><path d="M6 16.3c0 4.6 3.6 8.4 7.8 8.4 2.6 0 5.9-.8 7.4-4.9h-6.9v-4.5h13.3v.9c0 7.6-6.1 13.9-13.8 13.9C6.3 30.1 0 23.8 0 16.2 0 8.6 6.3 2.4 13.9 2.4c5.9 0 11.3 3.9 13.1 9.5h-6.5C19.2 9 16.5 8 13.9 8 9.6 7.9 6 11.8 6 16.3zM31.4 29.7V0h5.9v29.7h-5.9zM61.1 21c0 5.6-4.4 9.1-9.9 9.1-5.6 0-10-3.5-10-9.1 0-5.5 4.5-9.1 10-9.1 5.4 0 9.9 3.6 9.9 9.1zm-5.9 0c0-2.2-1-4.5-4-4.5-3.2 0-4.2 2.4-4.2 4.5 0 2.2.9 4.6 4.1 4.6 3.2 0 4.1-2.4 4.1-4.6zM64.8 29.7V0h5.9v14.4c1.5-1.9 3.7-2.5 6-2.5 5 0 8.7 4.3 8.7 9.1s-3.7 9.1-8.7 9.1c-2.3 0-4.8-.7-6-2.5v2.1h-5.9zm10.1-4.4c2.4 0 4.2-2.1 4.2-4.4 0-2.3-1.8-4.4-4.2-4.4-2.4 0-4.2 2.1-4.2 4.4.1 2.4 1.9 4.4 4.2 4.4zM108.8 29.7h-5.9v-2.1c-1.2 1.8-3.8 2.5-6 2.5-5 0-8.7-4.3-8.7-9.1s3.7-9.1 8.7-9.1c2.2 0 4.4.6 6 2.5v-2.1h5.9v17.4zM98.7 16.6c-2.4 0-4.2 2.1-4.2 4.4 0 2.3 1.8 4.4 4.2 4.4 2.4 0 4.2-2.1 4.2-4.4 0-2.3-1.8-4.4-4.2-4.4zM113.5 29.7V0h5.9v29.7h-5.9zM150.3 20.6c-1.8 5.5-7 9.5-13.2 9.5-7.6 0-13.9-6.2-13.9-13.9 0-7.6 6.2-13.9 13.9-13.9 6.1 0 11.3 4 13.1 9.5h-6.6c-1.1-2.4-3.8-3.9-6.5-3.9-4.4 0-7.8 3.8-7.8 8.3 0 4.6 3.5 8.3 7.8 8.3 2.8 0 5.5-1.6 6.6-4h6.6zM168.9 22.3c0-5.2-15.6-1.9-15.6-11.8 0-5.5 5.1-8.2 10.1-8.2 5.5 0 10.5 2.5 10.7 8.6h-5.7c-.3-2.8-1.9-3.7-4.9-3.7-1.7 0-4 .8-4 2.8 0 4.8 15.6 1.3 15.6 11.6 0 6.3-5.7 8.7-11.2 8.7-5.9 0-11.4-2.9-11.4-9.5h6c.2 3.2 2.7 4.7 5.6 4.7 1.9 0 4.8-.7 4.8-3.2zM193.9 22.3c0-5.2-15.6-1.9-15.6-11.8 0-5.5 5.1-8.2 10.1-8.2 5.5 0 10.5 2.5 10.7 8.6h-5.7c-.3-2.8-1.9-3.7-4.9-3.7-1.7 0-4 .8-4 2.8 0 4.8 15.6 1.3 15.6 11.6 0 6.3-5.7 8.7-11.2 8.7-5.9 0-11.4-2.9-11.4-9.5h6c.2 3.2 2.7 4.7 5.6 4.7 1.8 0 4.8-.7 4.8-3.2z" class="st0"/><g><linearGradient id="SVGID_1_" x1="-214" x2="-14" y1="216.501" y2="216.501" gradientTransform="translate(214 -201.332)" gradientUnits="userSpaceOnUse"><stop offset="0" stop-color="#b72025"/><stop offset="1" stop-color="#e63b35"/></linearGradient><path fill="url(#SVGID_1_)" d="M6 16.3c0 4.6 3.6 8.4 7.8 8.4 2.6 0 5.9-.8 7.4-4.9h-6.9v-4.5h13.3v.9c0 7.6-6.1 13.9-13.8 13.9C6.3 30.1 0 23.8 0 16.2 0 8.6 6.3 2.4 13.9 2.4c5.9 0 11.3 3.9 13.1 9.5h-6.5C19.2 9 16.5 8 13.9 8 9.6 7.9 6 11.8 6 16.3z"/><linearGradient id="SVGID_2_" x1="-214" x2="-14" y1="216.501" y2="216.501" gradientTransform="translate(214 -201.332)" gradientUnits="userSpaceOnUse"><stop offset="0" stop-color="#b72025"/><stop offset="1" stop-color="#e63b35"/></linearGradient><path fill="url(#SVGID_2_)" d="M31.4 29.7V0h5.9v29.7h-5.9z"/><linearGradient id="SVGID_3_" x1="-214" x2="-14" y1="216.501" y2="216.501" gradientTransform="translate(214 -201.332)" gradientUnits="userSpaceOnUse"><stop offset="0" stop-color="#b72025"/><stop offset="1" stop-color="#e63b35"/></linearGradient><path fill="url(#SVGID_3_)" d="M61.1 21c0 5.6-4.4 9.1-9.9 9.1-5.6 0-10-3.5-10-9.1 0-5.5 4.5-9.1 10-9.1 5.4 0 9.9 3.6 9.9 9.1zm-5.9 0c0-2.2-1-4.5-4-4.5-3.2 0-4.2 2.4-4.2 4.5 0 2.2.9 4.6 4.1 4.6 3.2 0 4.1-2.4 4.1-4.6z"/><linearGradient id="SVGID_4_" x1="-214" x2="-14" y1="216.501" y2="216.501" gradientTransform="translate(214 -201.332)" gradientUnits="userSpaceOnUse"><stop offset="0" stop-color="#b72025"/><stop offset="1" stop-color="#e63b35"/></linearGradient><path fill="url(#SVGID_4_)" d="M64.8 29.7V0h5.9v14.4c1.5-1.9 3.7-2.5 6-2.5 5 0 8.7 4.3 8.7 9.1s-3.7 9.1-8.7 9.1c-2.3 0-4.8-.7-6-2.5v2.1h-5.9zm10.1-4.4c2.4 0 4.2-2.1 4.2-4.4 0-2.3-1.8-4.4-4.2-4.4-2.4 0-4.2 2.1-4.2 4.4.1 2.4 1.9 4.4 4.2 4.4z"/><linearGradient id="SVGID_5_" x1="-214" x2="-14" y1="216.501" y2="216.501" gradientTransform="translate(214 -201.332)" gradientUnits="userSpaceOnUse"><stop offset="0" stop-color="#b72025"/><stop offset="1" stop-color="#e63b35"/></linearGradient><path fill="url(#SVGID_5_)" d="M108.8 29.7h-5.9v-2.1c-1.2 1.8-3.8 2.5-6 2.5-5 0-8.7-4.3-8.7-9.1s3.7-9.1 8.7-9.1c2.2 0 4.4.6 6 2.5v-2.1h5.9v17.4zM98.7 16.6c-2.4 0-4.2 2.1-4.2 4.4 0 2.3 1.8 4.4 4.2 4.4 2.4 0 4.2-2.1 4.2-4.4 0-2.3-1.8-4.4-4.2-4.4z"/><linearGradient id="SVGID_6_" x1="-214" x2="-14" y1="216.501" y2="216.501" gradientTransform="translate(214 -201.332)" gradientUnits="userSpaceOnUse"><stop offset="0" stop-color="#b72025"/><stop offset="1" stop-color="#e63b35"/></linearGradient><path fill="url(#SVGID_6_)" d="M113.5 29.7V0h5.9v29.7h-5.9z"/><linearGradient id="SVGID_7_" x1="-214" x2="-14" y1="216.501" y2="216.501" gradientTransform="translate(214 -201.332)" gradientUnits="userSpaceOnUse"><stop offset="0" stop-color="#b72025"/><stop offset="1" stop-color="#e63b35"/></linearGradient><path fill="url(#SVGID_7_)" d="M150.3 20.6c-1.8 5.5-7 9.5-13.2 9.5-7.6 0-13.9-6.2-13.9-13.9 0-7.6 6.2-13.9 13.9-13.9 6.1 0 11.3 4 13.1 9.5h-6.6c-1.1-2.4-3.8-3.9-6.5-3.9-4.4 0-7.8 3.8-7.8 8.3 0 4.6 3.5 8.3 7.8 8.3 2.8 0 5.5-1.6 6.6-4h6.6z"/><linearGradient id="SVGID_8_" x1="-214" x2="-14" y1="216.501" y2="216.501" gradientTransform="translate(214 -201.332)" gradientUnits="userSpaceOnUse"><stop offset="0" stop-color="#b72025"/><stop offset="1" stop-color="#e63b35"/></linearGradient><path fill="url(#SVGID_8_)" d="M168.9 22.3c0-5.2-15.6-1.9-15.6-11.8 0-5.5 5.1-8.2 10.1-8.2 5.5 0 10.5 2.5 10.7 8.6h-5.7c-.3-2.8-1.9-3.7-4.9-3.7-1.7 0-4 .8-4 2.8 0 4.8 15.6 1.3 15.6 11.6 0 6.3-5.7 8.7-11.2 8.7-5.9 0-11.4-2.9-11.4-9.5h6c.2 3.2 2.7 4.7 5.6 4.7 1.9 0 4.8-.7 4.8-3.2z"/><linearGradient id="SVGID_9_" x1="-214" x2="-14" y1="216.501" y2="216.501" gradientTransform="translate(214 -201.332)" gradientUnits="userSpaceOnUse"><stop offset="0" stop-color="#b72025"/><stop offset="1" stop-color="#e63b35"/></linearGradient><path fill="url(#SVGID_9_)" d="M193.9 22.3c0-5.2-15.6-1.9-15.6-11.8 0-5.5 5.1-8.2 10.1-8.2 5.5 0 10.5 2.5 10.7 8.6h-5.7c-.3-2.8-1.9-3.7-4.9-3.7-1.7 0-4 .8-4 2.8 0 4.8 15.6 1.3 15.6 11.6 0 6.3-5.7 8.7-11.2 8.7-5.9 0-11.4-2.9-11.4-9.5h6c.2 3.2 2.7 4.7 5.6 4.7 1.8 0 4.8-.7 4.8-3.2z"/></g></svg>