<?xml version="1.0" encoding="utf-8"?>
<!-- Generator: Adobe Illustrator 22.1.0, SVG Export Plug-In . SVG Version: 6.00 Build 0)  -->
<svg version="1.1" id="Слой_1" xmlns="http://www.w3.org/2000/svg" xmlns:xlink="http://www.w3.org/1999/xlink" x="0px" y="0px"
	 viewBox="0 0 200 30.3" style="enable-background:new 0 0 200 30.3;" xml:space="preserve">
<style type="text/css">
	.st0{fill:#FFFFFF;}
	.st1{fill:url(#SVGID_1_);}
	.st2{fill:url(#SVGID_2_);}
	.st3{fill:url(#SVGID_3_);}
	.st4{fill:url(#SVGID_4_);}
	.st5{fill:url(#SVGID_5_);}
	.st6{fill:url(#SVGID_6_);}
	.st7{fill:url(#SVGID_7_);}
	.st8{fill:url(#SVGID_8_);}
	.st9{fill:url(#SVGID_9_);}
</style>
<g>
	<g>
		<path class="st0" d="M6,16.3c0,4.6,3.6,8.4,7.8,8.4c2.6,0,5.9-0.8,7.4-4.9h-6.9v-4.5h13.3v0.9c0,7.6-6.1,13.9-13.8,13.9
			C6.3,30.1,0,23.8,0,16.2C0,8.6,6.3,2.4,13.9,2.4c5.9,0,11.3,3.9,13.1,9.5h-6.5c-1.3-2.9-4-3.9-6.6-3.9C9.6,7.9,6,11.8,6,16.3z"/>
		<path class="st0" d="M31.4,29.7V0h5.9v29.7H31.4z"/>
		<path class="st0" d="M61.1,21c0,5.6-4.4,9.1-9.9,9.1c-5.6,0-10-3.5-10-9.1c0-5.5,4.5-9.1,10-9.1C56.6,11.9,61.1,15.5,61.1,21z
			 M55.2,21c0-2.2-1-4.5-4-4.5C48,16.5,47,18.9,47,21c0,2.2,0.9,4.6,4.1,4.6C54.3,25.6,55.2,23.2,55.2,21z"/>
		<path class="st0" d="M64.8,29.7V0h5.9v14.4c1.5-1.9,3.7-2.5,6-2.5c5,0,8.7,4.3,8.7,9.1c0,4.8-3.7,9.1-8.7,9.1
			c-2.3,0-4.8-0.7-6-2.5v2.1H64.8z M74.9,25.3c2.4,0,4.2-2.1,4.2-4.4c0-2.3-1.8-4.4-4.2-4.4c-2.4,0-4.2,2.1-4.2,4.4
			C70.8,23.3,72.6,25.3,74.9,25.3z"/>
		<path class="st0" d="M108.8,29.7h-5.9v-2.1c-1.2,1.8-3.8,2.5-6,2.5c-5,0-8.7-4.3-8.7-9.1c0-4.8,3.7-9.1,8.7-9.1
			c2.2,0,4.4,0.6,6,2.5v-2.1h5.9V29.7z M98.7,16.6c-2.4,0-4.2,2.1-4.2,4.4c0,2.3,1.8,4.4,4.2,4.4c2.4,0,4.2-2.1,4.2-4.4
			C102.9,18.7,101.1,16.6,98.7,16.6z"/>
		<path class="st0" d="M113.5,29.7V0h5.9v29.7H113.5z"/>
		<path class="st0" d="M150.3,20.6c-1.8,5.5-7,9.5-13.2,9.5c-7.6,0-13.9-6.2-13.9-13.9c0-7.6,6.2-13.9,13.9-13.9
			c6.1,0,11.3,4,13.1,9.5h-6.6c-1.1-2.4-3.8-3.9-6.5-3.9c-4.4,0-7.8,3.8-7.8,8.3c0,4.6,3.5,8.3,7.8,8.3c2.8,0,5.5-1.6,6.6-4H150.3z"
			/>
		<path class="st0" d="M168.9,22.3c0-5.2-15.6-1.9-15.6-11.8c0-5.5,5.1-8.2,10.1-8.2c5.5,0,10.5,2.5,10.7,8.6h-5.7
			c-0.3-2.8-1.9-3.7-4.9-3.7c-1.7,0-4,0.8-4,2.8c0,4.8,15.6,1.3,15.6,11.6c0,6.3-5.7,8.7-11.2,8.7c-5.9,0-11.4-2.9-11.4-9.5h6
			c0.2,3.2,2.7,4.7,5.6,4.7C166,25.5,168.9,24.8,168.9,22.3z"/>
		<path class="st0" d="M193.9,22.3c0-5.2-15.6-1.9-15.6-11.8c0-5.5,5.1-8.2,10.1-8.2c5.5,0,10.5,2.5,10.7,8.6h-5.7
			c-0.3-2.8-1.9-3.7-4.9-3.7c-1.7,0-4,0.8-4,2.8c0,4.8,15.6,1.3,15.6,11.6c0,6.3-5.7,8.7-11.2,8.7c-5.9,0-11.4-2.9-11.4-9.5h6
			c0.2,3.2,2.7,4.7,5.6,4.7C190.9,25.5,193.9,24.8,193.9,22.3z"/>
	</g>
	<g>
		
			<linearGradient id="SVGID_1_" gradientUnits="userSpaceOnUse" x1="-214" y1="216.5012" x2="-14" y2="216.5012" gradientTransform="matrix(1 0 0 1 214 -201.3315)">
			<stop  offset="0" style="stop-color:#B72025"/>
			<stop  offset="1" style="stop-color:#E63B35"/>
		</linearGradient>
		<path class="st1" d="M6,16.3c0,4.6,3.6,8.4,7.8,8.4c2.6,0,5.9-0.8,7.4-4.9h-6.9v-4.5h13.3v0.9c0,7.6-6.1,13.9-13.8,13.9
			C6.3,30.1,0,23.8,0,16.2C0,8.6,6.3,2.4,13.9,2.4c5.9,0,11.3,3.9,13.1,9.5h-6.5c-1.3-2.9-4-3.9-6.6-3.9C9.6,7.9,6,11.8,6,16.3z"/>
		
			<linearGradient id="SVGID_2_" gradientUnits="userSpaceOnUse" x1="-214" y1="216.5012" x2="-14" y2="216.5012" gradientTransform="matrix(1 0 0 1 214 -201.3315)">
			<stop  offset="0" style="stop-color:#B72025"/>
			<stop  offset="1" style="stop-color:#E63B35"/>
		</linearGradient>
		<path class="st2" d="M31.4,29.7V0h5.9v29.7H31.4z"/>
		
			<linearGradient id="SVGID_3_" gradientUnits="userSpaceOnUse" x1="-214" y1="216.5012" x2="-14" y2="216.5012" gradientTransform="matrix(1 0 0 1 214 -201.3315)">
			<stop  offset="0" style="stop-color:#B72025"/>
			<stop  offset="1" style="stop-color:#E63B35"/>
		</linearGradient>
		<path class="st3" d="M61.1,21c0,5.6-4.4,9.1-9.9,9.1c-5.6,0-10-3.5-10-9.1c0-5.5,4.5-9.1,10-9.1C56.6,11.9,61.1,15.5,61.1,21z
			 M55.2,21c0-2.2-1-4.5-4-4.5C48,16.5,47,18.9,47,21c0,2.2,0.9,4.6,4.1,4.6C54.3,25.6,55.2,23.2,55.2,21z"/>
		
			<linearGradient id="SVGID_4_" gradientUnits="userSpaceOnUse" x1="-214" y1="216.5012" x2="-14" y2="216.5012" gradientTransform="matrix(1 0 0 1 214 -201.3315)">
			<stop  offset="0" style="stop-color:#B72025"/>
			<stop  offset="1" style="stop-color:#E63B35"/>
		</linearGradient>
		<path class="st4" d="M64.8,29.7V0h5.9v14.4c1.5-1.9,3.7-2.5,6-2.5c5,0,8.7,4.3,8.7,9.1c0,4.8-3.7,9.1-8.7,9.1
			c-2.3,0-4.8-0.7-6-2.5v2.1H64.8z M74.9,25.3c2.4,0,4.2-2.1,4.2-4.4c0-2.3-1.8-4.4-4.2-4.4c-2.4,0-4.2,2.1-4.2,4.4
			C70.8,23.3,72.6,25.3,74.9,25.3z"/>
		
			<linearGradient id="SVGID_5_" gradientUnits="userSpaceOnUse" x1="-214" y1="216.5012" x2="-14" y2="216.5012" gradientTransform="matrix(1 0 0 1 214 -201.3315)">
			<stop  offset="0" style="stop-color:#B72025"/>
			<stop  offset="1" style="stop-color:#E63B35"/>
		</linearGradient>
		<path class="st5" d="M108.8,29.7h-5.9v-2.1c-1.2,1.8-3.8,2.5-6,2.5c-5,0-8.7-4.3-8.7-9.1c0-4.8,3.7-9.1,8.7-9.1
			c2.2,0,4.4,0.6,6,2.5v-2.1h5.9V29.7z M98.7,16.6c-2.4,0-4.2,2.1-4.2,4.4c0,2.3,1.8,4.4,4.2,4.4c2.4,0,4.2-2.1,4.2-4.4
			C102.9,18.7,101.1,16.6,98.7,16.6z"/>
		
			<linearGradient id="SVGID_6_" gradientUnits="userSpaceOnUse" x1="-214" y1="216.5012" x2="-14" y2="216.5012" gradientTransform="matrix(1 0 0 1 214 -201.3315)">
			<stop  offset="0" style="stop-color:#B72025"/>
			<stop  offset="1" style="stop-color:#E63B35"/>
		</linearGradient>
		<path class="st6" d="M113.5,29.7V0h5.9v29.7H113.5z"/>
		
			<linearGradient id="SVGID_7_" gradientUnits="userSpaceOnUse" x1="-214" y1="216.5012" x2="-14" y2="216.5012" gradientTransform="matrix(1 0 0 1 214 -201.3315)">
			<stop  offset="0" style="stop-color:#B72025"/>
			<stop  offset="1" style="stop-color:#E63B35"/>
		</linearGradient>
		<path class="st7" d="M150.3,20.6c-1.8,5.5-7,9.5-13.2,9.5c-7.6,0-13.9-6.2-13.9-13.9c0-7.6,6.2-13.9,13.9-13.9
			c6.1,0,11.3,4,13.1,9.5h-6.6c-1.1-2.4-3.8-3.9-6.5-3.9c-4.4,0-7.8,3.8-7.8,8.3c0,4.6,3.5,8.3,7.8,8.3c2.8,0,5.5-1.6,6.6-4H150.3z"
			/>
		
			<linearGradient id="SVGID_8_" gradientUnits="userSpaceOnUse" x1="-214" y1="216.5012" x2="-14" y2="216.5012" gradientTransform="matrix(1 0 0 1 214 -201.3315)">
			<stop  offset="0" style="stop-color:#B72025"/>
			<stop  offset="1" style="stop-color:#E63B35"/>
		</linearGradient>
		<path class="st8" d="M168.9,22.3c0-5.2-15.6-1.9-15.6-11.8c0-5.5,5.1-8.2,10.1-8.2c5.5,0,10.5,2.5,10.7,8.6h-5.7
			c-0.3-2.8-1.9-3.7-4.9-3.7c-1.7,0-4,0.8-4,2.8c0,4.8,15.6,1.3,15.6,11.6c0,6.3-5.7,8.7-11.2,8.7c-5.9,0-11.4-2.9-11.4-9.5h6
			c0.2,3.2,2.7,4.7,5.6,4.7C166,25.5,168.9,24.8,168.9,22.3z"/>
		
			<linearGradient id="SVGID_9_" gradientUnits="userSpaceOnUse" x1="-214" y1="216.5012" x2="-14" y2="216.5012" gradientTransform="matrix(1 0 0 1 214 -201.3315)">
			<stop  offset="0" style="stop-color:#B72025"/>
			<stop  offset="1" style="stop-color:#E63B35"/>
		</linearGradient>
		<path class="st9" d="M193.9,22.3c0-5.2-15.6-1.9-15.6-11.8c0-5.5,5.1-8.2,10.1-8.2c5.5,0,10.5,2.5,10.7,8.6h-5.7
			c-0.3-2.8-1.9-3.7-4.9-3.7c-1.7,0-4,0.8-4,2.8c0,4.8,15.6,1.3,15.6,11.6c0,6.3-5.7,8.7-11.2,8.7c-5.9,0-11.4-2.9-11.4-9.5h6
			c0.2,3.2,2.7,4.7,5.6,4.7C190.9,25.5,193.9,24.8,193.9,22.3z"/>
	</g>
</g>
</svg>
