<?xml version="1.0" encoding="utf-8"?>
<!-- Generator: Adobe Illustrator 21.1.0, SVG Export Plug-In . SVG Version: 6.00 Build 0)  -->
<svg version="1.1" id="Слой_1" xmlns="http://www.w3.org/2000/svg" xmlns:xlink="http://www.w3.org/1999/xlink" x="0px" y="0px"
	 viewBox="0 0 327.3 78" style="enable-background:new 0 0 327.3 78;" xml:space="preserve">
<style type="text/css">
	.st0{fill:#FFFFFF;}
	.st1{fill:#C85527;}
</style>
<g>
	<path class="st0" d="M21.4,68H0V15h7.9v45.1h13.6V68z"/>
	<path class="st0" d="M29.1,68l-9.3-53H28l6.5,41.3L41.1,15h8.2l-9.5,53H29.1z"/>
	<path class="st0" d="M63.8,68H56V15h7.9V68z"/>
	<path class="st0" d="M79.7,68l-9.3-53h8.2l6.5,41.3L91.8,15h8.2l-9.5,53H79.7z"/>
</g>
<g>
	<g>
		<g>
			<path class="st0" d="M106,0v78h103V0H106z M138.5,32.2h-8.2V26c0-1.3-0.4-2.4-1.3-3.3c-0.9-0.9-2-1.4-3.2-1.4
				c-1.2,0-2.3,0.5-3.2,1.4c-0.9,0.9-1.3,2-1.3,3.3v29.2c0,1.3,0.4,2.4,1.3,3.3c0.9,0.9,1.9,1.3,3.2,1.3c1.3,0,2.3-0.4,3.2-1.3
				c0.9-0.9,1.3-2,1.3-3.3v-7.3h8.2v7.4c0,3.5-1.2,6.5-3.7,9c-2.4,2.5-5.4,3.7-8.8,3.7c-3.5,0-6.4-1.2-8.9-3.7
				c-2.4-2.5-3.6-5.5-3.6-9V26.1c0-3.5,1.2-6.5,3.7-9c2.4-2.5,5.4-3.7,8.8-3.7c3.5,0,6.4,1.2,8.8,3.7s3.6,5.5,3.6,9V32.2z
				 M167.2,63.6c-1.3,1.8-3.1,3-5.4,3.8c-1.3,0.4-2.7,0.6-4.4,0.6c-3.1,0-5.7-0.8-7.7-2.3c-1.7-1.3-3-3-4-5.2
				c-1-2.2-1.6-4.7-1.7-7.6l7.5-0.5c0.3,3.1,1.2,5.3,2.4,6.7c0.9,1.1,2,1.5,3.2,1.5c1.7-0.1,3.1-0.9,4.1-2.6c0.5-0.8,0.8-2,0.8-3.5
				c0-2.2-1-4.4-3-6.6c-1.6-1.5-3.9-3.7-7-6.7c-2.6-2.6-4.5-4.9-5.5-6.9c-1.2-2.3-1.8-4.8-1.8-7.5c0-4.8,1.6-8.5,4.8-11
				c2-1.5,4.4-2.2,7.3-2.2c2.8,0,5.2,0.6,7.2,1.9c1.5,1,2.8,2.4,3.8,4.2c1,1.8,1.5,3.8,1.7,6.1l-7.6,1.4c-0.2-2.2-0.8-3.9-1.8-5.1
				c-0.7-0.9-1.8-1.3-3.1-1.3c-1.4,0-2.5,0.7-3.3,2c-0.6,1.1-0.9,2.4-0.9,3.9c0,2.4,1,4.9,3.1,7.4c0.8,1,2,2.1,3.5,3.4
				c1.8,1.6,3,2.6,3.6,3.3c1.9,2,3.4,3.9,4.5,5.9c0.5,0.9,0.9,1.7,1.2,2.5c0.7,1.9,1.1,3.6,1.2,5.1C170,57.8,169.1,61,167.2,63.6z
				 M198.6,63.6c-1.3,1.8-3.1,3-5.4,3.8c-1.3,0.4-2.7,0.6-4.4,0.6c-3.1,0-5.7-0.8-7.7-2.3c-1.7-1.3-3-3-4-5.2
				c-1-2.2-1.6-4.7-1.7-7.6l7.5-0.5c0.3,3.1,1.2,5.3,2.4,6.7c0.9,1.1,2,1.5,3.2,1.5c1.7-0.1,3.1-0.9,4.1-2.6c0.5-0.8,0.8-2,0.8-3.5
				c0-2.2-1-4.4-3-6.6c-1.6-1.5-3.9-3.7-7-6.7c-2.6-2.6-4.5-4.9-5.5-6.9c-1.2-2.3-1.8-4.8-1.8-7.5c0-4.8,1.6-8.5,4.8-11
				c2-1.5,4.4-2.2,7.3-2.2c2.8,0,5.2,0.6,7.2,1.9c1.5,1,2.8,2.4,3.8,4.2c1,1.8,1.5,3.8,1.7,6.1l-7.6,1.4c-0.2-2.2-0.8-3.9-1.8-5.1
				c-0.7-0.9-1.8-1.3-3.1-1.3c-1.4,0-2.5,0.7-3.3,2c-0.6,1.1-0.9,2.4-0.9,3.9c0,2.4,1,4.9,3.1,7.4c0.8,1,2,2.1,3.5,3.4
				c1.8,1.6,3,2.6,3.6,3.3c1.9,2,3.4,3.9,4.5,5.9c0.5,0.9,0.9,1.7,1.2,2.5c0.7,1.9,1.1,3.6,1.2,5.1C201.5,57.8,200.6,61,198.6,63.6z
				"/>
		</g>
	</g>
</g>
<g>
	<path class="st0" d="M1.3,0.1L3,6.5h0l1.7-6.3H6v7.8H5v-3l0.1-3l0,0l-1.7,6H2.7l-1.7-6l0,0l0.1,3v3H0V0.1H1.3z"/>
	<path class="st0" d="M10.8,5.9H8.5l-0.5,2h-1l2.2-7.8h1l2.2,7.8h-1L10.8,5.9z M8.7,5.1h1.8L9.6,1.7h0L8.7,5.1z"/>
	<path class="st0" d="M14.8,4.4h-0.7v3.5h-1V0.1h1v3.4h0.6l1.9-3.4h1.2l-2.3,3.7L18,7.9h-1.2L14.8,4.4z"/>
	<path class="st0" d="M22.4,4.3h-2.7v2.8h3.1v0.8h-4.1V0.1h4.1v0.8h-3.1v2.5h2.7V4.3z"/>
	<path class="st0" d="M30.8,5.7L30.8,5.7l1-5.5h1l-1.5,7.8h-0.9l-1.2-5.5h0l-1.2,5.5h-0.9l-1.5-7.8h1l1,5.5h0l1.2-5.5h0.8L30.8,5.7z
		"/>
	<path class="st0" d="M37.4,4.3h-2.7v2.8h3.1v0.8h-4.1V0.1h4.1v0.8h-3.1v2.5h2.7V4.3z"/>
	<path class="st0" d="M38.7,7.9V0.1h2c0.7,0,1.2,0.2,1.6,0.5c0.4,0.3,0.6,0.9,0.6,1.6c0,0.4-0.1,0.7-0.3,1c-0.2,0.3-0.4,0.5-0.7,0.6
		c0.4,0.1,0.7,0.3,0.9,0.7c0.2,0.3,0.3,0.8,0.3,1.2c0,0.7-0.2,1.3-0.6,1.6S41.7,7.9,41,7.9H38.7z M39.7,3.5h1.1
		c0.3,0,0.6-0.1,0.8-0.3c0.2-0.2,0.3-0.5,0.3-0.9c0-0.4-0.1-0.8-0.3-1c-0.2-0.2-0.5-0.3-0.9-0.3h-1V3.5z M39.7,4.3v2.8H41
		c0.4,0,0.6-0.1,0.8-0.4c0.2-0.2,0.3-0.6,0.3-1c0-0.4-0.1-0.8-0.2-1c-0.2-0.3-0.4-0.4-0.8-0.4H39.7z"/>
	<path class="st0" d="M51.1,6.8c-0.2,0.3-0.4,0.6-0.8,0.8S49.4,8,48.8,8c-0.8,0-1.4-0.2-1.8-0.7c-0.5-0.5-0.7-1.2-0.7-2.1V2.8
		c0-0.9,0.2-1.6,0.7-2.1C47.4,0.2,48,0,48.7,0c0.7,0,1.3,0.2,1.7,0.6C50.8,1,51,1.6,51,2.3l0,0h-1c0-0.5-0.1-0.9-0.4-1.1
		c-0.2-0.3-0.5-0.4-1-0.4c-0.4,0-0.8,0.2-1,0.5c-0.3,0.3-0.4,0.8-0.4,1.5v2.3c0,0.7,0.1,1.2,0.4,1.5C48,7,48.4,7.2,48.8,7.2
		c0.3,0,0.6-0.1,0.8-0.2c0.2-0.1,0.3-0.3,0.4-0.5V4.7h-1.2V4h2.2V6.8z"/>
	<path class="st0" d="M53.4,4.5v3.4h-1V0.1h2.2c0.7,0,1.2,0.2,1.6,0.6c0.4,0.4,0.6,0.9,0.6,1.6c0,0.4-0.1,0.8-0.3,1.1
		c-0.2,0.3-0.4,0.5-0.8,0.7c0.4,0.1,0.6,0.4,0.8,0.7c0.2,0.3,0.2,0.7,0.2,1.2v0.7c0,0.2,0,0.5,0.1,0.7c0,0.2,0.1,0.4,0.2,0.5v0.1h-1
		c-0.1-0.1-0.2-0.3-0.2-0.5c0-0.2,0-0.5,0-0.8V5.9c0-0.4-0.1-0.8-0.3-1c-0.2-0.3-0.4-0.4-0.8-0.4H53.4z M53.4,3.7h1.2
		c0.4,0,0.7-0.1,0.9-0.4c0.2-0.2,0.3-0.6,0.3-1c0-0.4-0.1-0.8-0.3-1c-0.2-0.2-0.5-0.4-0.9-0.4h-1.2V3.7z"/>
	<path class="st0" d="M61.9,4.3h-2.7v2.8h3.1v0.8h-4.1V0.1h4.1v0.8h-3.1v2.5h2.7V4.3z"/>
	<path class="st0" d="M66.5,5.9h-2.3l-0.5,2h-1l2.2-7.8h1l2.2,7.8h-1L66.5,5.9z M64.5,5.1h1.8l-0.9-3.4h0L64.5,5.1z"/>
	<path class="st0" d="M72.4,0.9h-1.9v7h-1v-7h-1.8V0.1h4.7V0.9z"/>
	<path class="st0" d="M78.8,5.9h-2.3l-0.5,2h-1l2.2-7.8h1l2.2,7.8h-1L78.8,5.9z M76.7,5.1h1.8l-0.9-3.4h0L76.7,5.1z"/>
	<path class="st0" d="M85.7,6.8c-0.2,0.3-0.4,0.6-0.8,0.8S84,8,83.4,8c-0.8,0-1.4-0.2-1.8-0.7s-0.7-1.2-0.7-2.1V2.8
		c0-0.9,0.2-1.6,0.7-2.1C82,0.2,82.6,0,83.3,0c0.7,0,1.3,0.2,1.7,0.6c0.4,0.4,0.6,1,0.6,1.7l0,0h-1c0-0.5-0.1-0.9-0.4-1.1
		c-0.2-0.3-0.5-0.4-1-0.4c-0.4,0-0.8,0.2-1,0.5c-0.3,0.3-0.4,0.8-0.4,1.5v2.3c0,0.7,0.1,1.2,0.4,1.5C82.6,7,83,7.2,83.4,7.2
		c0.3,0,0.6-0.1,0.8-0.2c0.2-0.1,0.3-0.3,0.4-0.5V4.7h-1.2V4h2.2V6.8z"/>
	<path class="st0" d="M90.3,5.9H88l-0.5,2h-1l2.2-7.8h1l2.2,7.8h-1L90.3,5.9z M88.3,5.1h1.8l-0.9-3.4h0L88.3,5.1z"/>
	<path class="st0" d="M93.8,7.9h-1V0.1h1V7.9z"/>
	<path class="st0" d="M100,7.9h-1l-2.7-5.8l0,0v5.8h-1V0.1h1L99,5.9l0,0V0.1h1V7.9z"/>
</g>
<rect x="209" class="st1" width="3" height="78"/>
<g>
	<path class="st0" d="M218.1,29.6c0-4.9,1.3-8.6,4-11.2c2.3-2.3,5.3-3.4,9-3.4c3.4,0,6.3,1.3,8.7,3.8c2.4,2.6,3.6,5.5,3.6,9
		c0,3.9-0.8,7.5-2.4,10.8c-0.9,1.8-2.8,4.9-6,9.4c-0.9,1.2-2.1,3.1-3.8,5.6l-1.4,2.1c-0.9,1.4-1.6,2.5-2,3.3
		c-0.2,0.4-0.3,0.6-0.3,0.7l15.3,0v7.7H218v-7.1c0-0.2,0.6-1.1,1.7-2.8c0.5-0.8,1.1-1.7,1.8-2.7l2-2.9c1.2-1.6,3.1-4.2,5.6-7.8
		c2.4-3.3,4.2-6.4,5.4-9.1c1-2.2,1.4-4.5,1.4-6.9c0-1.6-0.4-2.9-1.3-4c-1-1.2-2.2-1.7-3.7-1.7c-2.2,0-3.7,1.3-4.6,3.8
		c-0.3,0.8-0.5,1.8-0.5,2.9v2h-7.7V29.6z"/>
	<path class="st0" d="M274.5,55.7c0,3.4-1.2,6.4-3.6,8.7c-2.4,2.4-5.3,3.6-8.7,3.6c-3.4,0-6.4-1.2-8.8-3.6c-2.4-2.4-3.6-5.3-3.6-8.7
		V27.4c0-3.4,1.2-6.4,3.6-8.8c2.4-2.4,5.3-3.6,8.7-3.6c3.4,0,6.4,1.2,8.7,3.6s3.6,5.3,3.6,8.7V55.7z M266.4,27.2
		c0-1.2-0.4-2.3-1.3-3.2c-0.9-0.9-1.9-1.3-3.2-1.3c-1.2,0-2.3,0.4-3.1,1.3c-0.9,0.9-1.3,1.9-1.3,3.2v28.4c0,1.2,0.4,2.3,1.3,3.2
		c0.9,0.9,1.9,1.3,3.1,1.3c1.2,0,2.3-0.4,3.2-1.3s1.3-1.9,1.3-3.2V27.2z"/>
	<path class="st0" d="M287.4,67.3V27.6h-6.6v-5.4c1.9-0.2,3.6-0.9,5.3-2.1c1.7-1.2,2.9-2.7,3.7-4.4h5.4v51.7H287.4z"/>
	<path class="st0" d="M327.3,55.7c0,3.4-1.2,6.4-3.6,8.7c-2.4,2.4-5.3,3.6-8.8,3.6h-0.6c-3.4,0-6.3-1.2-8.7-3.6
		c-2.4-2.4-3.6-5.3-3.6-8.7v-4.8c0-3.2,1.1-5.9,3.2-8.3c0.9-1,2-1.9,3.2-2.5c-2.1-1.1-3.7-2.9-4.9-5.4c-0.6-1.3-0.9-2.9-0.9-4.9V27
		c0-3.3,1-6.1,3-8.3c2.2-2.5,5.1-3.7,8.7-3.7h0.6c3.7,0,6.6,1.2,8.8,3.7c2,2.2,3,5,3,8.3v2.8c0,3.2-1,5.9-2.9,8
		c-0.9,0.9-1.8,1.7-2.8,2.2c2.3,1.3,4.1,3.2,5.4,5.9c0.7,1.3,1,3,1,4.9V55.7z M319.8,29.1c0-3.6-1.1-5.8-3.3-6.7
		c-0.5-0.2-1.1-0.3-1.8-0.3c-1.3,0-2.4,0.4-3.3,1.1c-0.7,0.6-1.2,1.4-1.5,2.3c-0.3,0.9-0.4,2.1-0.3,3.6c0.1,2.2,0.4,3.9,1.1,4.8
		c0.8,1.3,2.2,2,4,2c1.9,0,3.2-0.7,4.1-2.1C319.5,32.7,319.8,31.1,319.8,29.1z M319.6,51.9c0-3.1-0.7-5.1-2.1-6.2
		c-0.7-0.5-1.6-0.7-2.8-0.7c-2.1,0-3.5,0.9-4.2,2.6c-0.5,1.1-0.7,2.5-0.7,4.3v2.6c0,1.7,0.5,3.1,1.6,4.1c0.9,0.9,2,1.4,3.3,1.4
		c2.1-0.1,3.6-1.2,4.4-3.1c0.3-0.7,0.5-1.5,0.5-2.4V51.9z"/>
</g>
</svg>
