<svg xmlns="http://www.w3.org/2000/svg" x="0" y="0" version="1.1" viewBox="0 0 1200 180.9" xml:space="preserve">
    <linearGradient id="a" x1="0" x2="1200" y1="90.3315" y2="90.3315" gradientUnits="userSpaceOnUse">
      <stop offset="0" stop-color="#b71c1c"/>
      <stop offset="1" stop-color="#e53935"/>
    </linearGradient>
    <path fill="url(#a)" d="M36.1 97.1c0 27 21.4 49.8 47.1 49.8 15.7 0 35.6-4.9 44.4-29.1H86.5V91.3h79.6v5.4c0 45.4-36.8 82.2-82.9 82.2C37.5 178.9 0 141.8 0 96.7s37.5-82.2 83.2-82.2c35.6 0 67.7 23 78.9 56.2h-39.2c-7.8-16.9-24-23.3-39.7-23.3-25.7-.1-47.1 22.7-47.1 49.7z"/>
    <path fill="url(#a)" d="M188.7 176.6V.3h35.6v176.2h-35.6z"/>
    <path fill="url(#a)" d="M366.4 124.9c0 33.1-26.4 53.8-59.6 53.8-33.5 0-59.9-20.7-59.9-53.8 0-32.4 27.1-54 59.9-54 32.5-.1 59.6 21.5 59.6 54zm-35.4.2c0-12.9-5.7-26.8-24.2-26.8-18.8 0-24.5 13.9-24.5 26.8 0 13.2 5.2 27 24.5 27 19 0 24.2-13.8 24.2-27z"/>
    <path fill="url(#a)" d="M389 176.6V.3h35.6v85.3c9.3-11.3 22.3-15 35.9-15 29.7 0 52 25.6 52 54.3 0 28.7-22.3 54-52 54-13.5 0-28.8-4.2-35.9-14.8v12.5H389zm60.6-25.9c14.3 0 25-12.2 25-25.8 0-13.6-10.7-25.9-25-25.9s-25 12.2-25 25.9c0 13.6 10.7 25.8 25 25.8z"/>
    <path fill="url(#a)" d="M652.8 176.6h-35.6v-12.5c-7.1 10.6-22.6 14.8-35.9 14.8-29.7 0-52-25.4-52-54 0-28.7 22.3-54.3 52-54.3 13.3 0 26.6 3.8 35.9 15V73.2h35.6v103.4zM592.2 99c-14.3 0-25 12.2-25 25.9 0 13.6 10.7 25.8 25 25.8s25-12.2 25-25.8c-.1-13.7-10.8-25.9-25-25.9z"/>
    <path fill="url(#a)" d="M681.3 176.6V.3h35.6v176.2h-35.6z"/>
    <path fill="url(#a)" d="M901.8 122.3c-10.9 32.9-42.3 56.6-79.1 56.6-45.9 0-83.2-36.9-83.2-82.2 0-45.4 37.3-82.2 83.2-82.2 36.8 0 68 23.5 78.9 56.2h-39.7c-6.7-14.3-22.8-23.3-39.2-23.3-26.1 0-47.1 22.3-47.1 49.3 0 27.3 20.9 49.3 47.1 49.3 16.6 0 32.8-9.6 39.4-23.7h39.7z"/>
    <path fill="url(#a)" d="M1013.5 132.9c0-31-93.4-11-93.4-70 0-32.9 30.9-48.4 60.4-48.4 33.3 0 63.2 14.6 64.4 51h-34.5c-1.9-16.7-11.6-22.1-29.5-22.1-10 0-24 4.7-24 16.7 0 28.4 93.4 8 93.4 68.9 0 37.6-34 51.5-67 51.5-35.6 0-68.2-17.4-68.4-56.4H951c1 19 16.2 27.7 33.7 27.7 11.2-.1 28.8-4.6 28.8-18.9z"/>
    <path fill="url(#a)" d="M1163.2 132.9c0-31-93.4-11-93.4-70 0-32.9 30.9-48.4 60.4-48.4 33.3 0 63.2 14.6 64.4 51h-34.5c-1.9-16.7-11.6-22.1-29.5-22.1-10 0-24 4.7-24 16.7 0 28.4 93.4 8 93.4 68.9 0 37.6-34 51.5-67 51.5-35.6 0-68.2-17.4-68.4-56.4h36.1c1 19 16.2 27.7 33.7 27.7 11.2-.1 28.8-4.6 28.8-18.9z"/>
</svg>