<?xml version="1.0" encoding="utf-8"?>
<!-- Generator: Adobe Illustrator 22.1.0, SVG Export Plug-In . SVG Version: 6.00 Build 0)  -->
<svg version="1.1" id="Слой_1" xmlns="http://www.w3.org/2000/svg" xmlns:xlink="http://www.w3.org/1999/xlink" x="0px" y="0px"
	 viewBox="0 0 100 17" style="enable-background:new 0 0 100 17;" xml:space="preserve">
<style type="text/css">
	.st0{fill-rule:evenodd;clip-rule:evenodd;fill:#73C384;}
</style>
<g>
	<path class="st0" d="M45.3,9.6l-8.7,0V7.9c0-0.4,0.3-0.7,0.7-0.7l7.3,0c0.4,0,0.7,0.3,0.7,0.7V9.6L45.3,9.6z M49,7.7
		c0-1.3-0.4-1.9-0.8-2.3c-0.4-0.4-1.1-0.5-2.1-0.5c-0.4,0-9.1,0-9.5,0c-2.1,0-2.4,0.3-2.8,0.6c-0.5,0.4-0.9,1.1-0.9,2.2V14
		c0,1.3,0.4,2.1,1.3,2.4c0.4,0.2,1.1,0.3,3.6,0.3l10.7,0v-2.4H37.3c-0.4,0-0.7-0.3-0.7-0.7l0-1.7H49L49,7.7L49,7.7z"/>
	<polygon class="st0" points="0,16.7 3.7,16.7 3.7,4.8 0,4.8 0,16.7 	"/>
	<polygon class="st0" points="50.6,16.7 54.3,16.7 54.3,0 50.6,0 50.6,16.7 	"/>
	<polygon class="st0" points="55.9,16.7 59.6,16.7 59.6,0 55.9,0 55.9,16.7 	"/>
	<path class="st0" d="M26.9,7.1h4.4V4.8l-4.4,0V0h-3.7v14c0,1.3,0.4,2.1,1.2,2.5c0.6,0.3,1.1,0.3,3.6,0.3l3.2,0l0-2.4
		c0,0-3.3,0.1-3.8-0.1c-0.4-0.1-0.5-0.4-0.5-0.9V7.1L26.9,7.1z"/>
	<polygon class="st0" points="0,2.4 3.7,2.4 3.7,0 0,0 0,2.4 	"/>
	<path class="st0" d="M21.2,5.8c-0.6-0.7-0.9-1-4.4-0.9H5.3v11.9l3.7,0V7.2h8.2c0.4,0,0.7,0.3,0.7,0.7v8.8h3.7V9.4
		C21.6,8.1,21.7,6.4,21.2,5.8L21.2,5.8z"/>
	<path class="st0" d="M77.8,14.4l-6.9,0c-0.3,0-0.7-0.3-0.7-0.6v-1.1c0-0.3,0.3-0.7,0.7-0.7l7.6,0l0,1.7
		C78.5,14.1,78.2,14.4,77.8,14.4L77.8,14.4z M80.7,5.1c-0.4-0.1-0.7-0.3-3.2-0.3H67v2.4c0,0,10.7,0,10.7,0c0.4,0,0.8,0.4,0.8,0.8
		l0,1.6H68.2c-1.2,0-1.8,0.7-1.8,2.3c0,0,0,1.4,0,2.4c0,0.6,0,1.2,0.2,1.6c0.3,0.5,0.7,0.8,1.6,0.8c0,0,14,0,14,0v-9
		C82.3,6.4,81.5,5.4,80.7,5.1L80.7,5.1z"/>
	<path class="st0" d="M100,12.8c0-0.1,0-0.3,0-0.4v0c0-0.8-0.1-1.6-0.7-2.3c-0.6-0.6-1.5-0.5-1.5-0.5h-9.5c-0.3,0-0.6-0.2-0.6-0.5
		c0,0,0-0.2,0-0.3V7.8c0-0.1,0-0.2,0.1-0.2c0.1-0.2,0.3-0.4,0.6-0.4l11.2,0l0-2.4l-10.7,0c-2.5,0-3.1,0.1-3.6,0.3
		c-0.8,0.4-1.3,1.2-1.3,2.5v1c0,0.8,0,1.7,0.8,2.5c0.7,0.7,1.4,0.8,2.4,0.8l8.7,0c0.3,0,0.6,0.3,0.6,0.6l0,1.1
		c0,0.3-0.3,0.6-0.6,0.6c0,0-11.2,0-11.2,0v2.4l10.9,0c0.4,0,0.7,0,1,0c1.8,0,2.2-0.1,2.5-0.2c1-0.5,1.2-1.1,1.2-2.3
		C100,14.2,100,12.9,100,12.8L100,12.8z"/>
	<polygon class="st0" points="61.2,2.4 64.9,2.4 64.9,0 61.2,0 61.2,2.4 	"/>
	<polygon class="st0" points="61.2,16.7 64.9,16.7 64.9,4.8 61.2,4.8 61.2,16.7 	"/>
</g>
</svg>
