<?xml version="1.0" encoding="utf-8"?>
<!-- Generator: Adobe Illustrator 22.1.0, SVG Export Plug-In . SVG Version: 6.00 Build 0)  -->
<svg version="1.1" id="Слой_1" xmlns="http://www.w3.org/2000/svg" xmlns:xlink="http://www.w3.org/1999/xlink" x="0px" y="0px"
	 viewBox="0 0 199.7 30.7" style="enable-background:new 0 0 199.7 30.7;" xml:space="preserve">
<style type="text/css">
	.st0{clip-path:url(#SVGID_2_);}
	.st1{clip-path:url(#SVGID_4_);fill:#0E1238;}
	.st2{clip-path:url(#SVGID_6_);}
	.st3{clip-path:url(#SVGID_8_);fill:#49C7EB;}
</style>
<g>
	<g>
		<defs>
			<path id="SVGID_1_" d="M179.7,20.4h10.9l-4.8-14.2c-0.1-0.2-0.1-0.4-0.2-0.5c-0.1-0.1-0.2-0.2-0.3-0.2H185
				c-0.1,0-0.2,0.1-0.3,0.2c-0.1,0.1-0.1,0.3-0.2,0.5L179.7,20.4z M192.2,25.3h-14.3l-1.1,3.2c-0.3,0.8-0.5,1.3-0.8,1.8
				c-0.3,0.4-0.6,0.7-1,0.9c-0.4,0.2-0.7,0.3-1.2,0.4c-0.4,0-0.9,0.1-1.5,0.1c-0.4,0-0.8-0.1-1.2-0.2c-0.4-0.1-0.6-0.4-0.8-0.7
				c-0.2-0.3-0.3-0.8-0.3-1.3c0-0.5,0.1-1.2,0.4-2L178.7,4c0.4-1,0.8-1.8,1.2-2.4c0.5-0.5,1-0.9,1.5-1.2c0.5-0.2,1-0.4,1.6-0.4
				c0.6,0,1.1-0.1,1.7-0.1h0.8c0.6,0,1.1,0,1.7,0.1c0.6,0,1.1,0.2,1.6,0.4c0.5,0.2,1,0.6,1.5,1.2c0.5,0.5,0.9,1.3,1.2,2.4l8.2,23.3
				c0.3,0.8,0.4,1.5,0.4,2c0,0.5-0.1,1-0.3,1.3c-0.2,0.3-0.5,0.6-0.8,0.7c-0.4,0.1-0.7,0.2-1.2,0.2c-0.6,0-1,0-1.5-0.1
				c-0.4,0-0.8-0.2-1.2-0.4c-0.4-0.2-0.7-0.5-1-0.9c-0.3-0.4-0.5-1-0.8-1.8L192.2,25.3z M167.6,0.2c0.5,0,0.8,0,1.1,0.1
				c0.3,0.1,0.5,0.2,0.6,0.4c0.1,0.2,0.2,0.5,0.2,0.8c0,0.3,0,0.8,0,1.3c0,0.7-0.1,1.2-0.3,1.5c-0.2,0.4-0.4,0.6-0.7,0.8
				c-0.3,0.2-0.5,0.3-0.8,0.3c-0.3,0-0.5,0-0.6,0h-8v24.4c0,0.4-0.1,0.6-0.3,0.9s-0.4,0.4-0.7,0.5c-0.3,0.1-0.6,0.2-1,0.2
				c-0.4,0-0.8,0-1.1,0c-0.4,0-0.8,0-1.2-0.1c-0.4,0-0.7-0.1-1-0.2c-0.3-0.1-0.5-0.3-0.7-0.5c-0.2-0.2-0.3-0.5-0.3-0.8V5.6h-7.7
				c-0.1,0-0.3,0-0.6-0.1c-0.3-0.1-0.5-0.2-0.7-0.4c-0.2-0.2-0.5-0.5-0.6-0.8C143.1,4,143,3.6,143,3c0-0.6,0-1,0.1-1.4
				c0-0.4,0.1-0.6,0.3-0.8c0.1-0.2,0.3-0.3,0.6-0.4c0.2-0.1,0.6-0.1,1-0.1H167.6z M139.4,30.1c0,0.4-0.1,0.6-0.3,0.9
				c-0.2,0.2-0.4,0.4-0.7,0.5c-0.3,0.1-0.6,0.2-1,0.2c-0.4,0-0.8,0-1.1,0c-0.4,0-0.8,0-1.2-0.1c-0.4,0-0.7-0.1-1-0.2
				c-0.3-0.1-0.5-0.3-0.7-0.5c-0.2-0.2-0.3-0.5-0.3-0.8V2c0-0.3,0.1-0.6,0.2-0.9c0.2-0.3,0.4-0.5,0.7-0.6c0.3-0.2,0.6-0.3,1-0.4
				c0.4-0.1,0.8-0.1,1.2-0.1c0.4,0,0.8,0,1.2,0.1c0.4,0.1,0.7,0.2,1,0.3c0.3,0.1,0.5,0.3,0.7,0.6c0.2,0.3,0.2,0.6,0.2,1V30.1z
				 M115.8,5.7h-5.4c-4.2,0-6.3,0.1-6.3,0.1V5.4c0,0,0-0.9,0-2.6c0-0.1,0-0.2,0-0.2c0-0.2,0.1-0.5,0.2-0.7s0.3-0.5,0.5-0.7
				c0.2-0.2,0.6-0.4,0.9-0.6c0.4-0.2,0.9-0.2,1.4-0.2h8.3c0.8,0,1.6,0,2.6,0c1,0.1,2,0.2,3,0.4c1,0.2,2,0.6,3,1c1,0.4,1.8,1,2.6,1.8
				c0.8,0.7,1.4,1.7,1.8,2.8c0.5,1.1,0.7,2.4,0.7,3.9v0.1c0,1.3-0.2,2.4-0.5,3.4c-0.3,1-0.8,1.8-1.4,2.5c-0.6,0.7-1.2,1.3-2,1.8
				c-0.8,0.5-1.6,0.9-2.4,1.2l5.9,10.1c0.2,0.3,0.2,0.6,0.2,0.9c0,0.2-0.2,0.5-0.4,0.6c-0.2,0.2-0.5,0.3-0.8,0.5
				c-0.3,0.1-0.6,0.2-1,0.3c-0.3,0.1-0.7,0.1-1,0.2c-0.3,0-0.6,0-0.8,0c-0.5,0-1.1-0.1-1.6-0.3c-0.5-0.2-0.9-0.5-1.2-1l-5.8-10.2
				h-3.2c-0.6,0-1.1-0.3-1.3-0.8c-0.3-0.5-0.4-1.2-0.4-1.9c0-0.4,0-0.7,0.1-1.1c0-0.3,0.1-0.6,0.3-0.9c0.1-0.2,0.3-0.4,0.5-0.6
				c0.2-0.1,0.5-0.2,0.9-0.2h2.6c1.4,0,2.6-0.1,3.5-0.3c0.9-0.2,1.6-0.5,2.1-0.8c0.5-0.4,0.9-0.8,1-1.3c0.2-0.5,0.3-1.1,0.3-1.8
				v-0.2c0-0.7-0.1-1.4-0.3-1.9c-0.2-0.6-0.5-1-1-1.4c-0.5-0.4-1.2-0.7-2.2-0.9C118.5,5.8,117.3,5.7,115.8,5.7z M96.7,31.4h-17
				c-0.4,0-0.8,0-1.2-0.1c-0.4,0-0.7-0.1-1-0.2c-0.3-0.1-0.5-0.3-0.7-0.5c-0.2-0.2-0.3-0.5-0.3-0.8V3.1c0-0.1,0-0.3,0-0.3
				c0-0.2,0.1-0.5,0.2-0.7c0.1-0.3,0.3-0.5,0.5-0.7c0.2-0.2,0.6-0.4,0.9-0.6c0.4-0.2,0.9-0.2,1.4-0.2h14.4c0.8,0,1.5,0,1.9,0
				c0.5,0,0.8,0,1,0c0.2,0,0.4,0,0.4,0c0.3,0,0.5,0.1,0.7,0.3c0.2,0.2,0.4,0.4,0.5,0.6c0.1,0.2,0.3,0.5,0.3,0.8
				c0.1,0.3,0.1,0.6,0.1,0.9c0,0.7-0.1,1.3-0.4,1.7c-0.2,0.4-0.6,0.7-0.9,0.8c-0.4,0.2-0.8,0.2-1.3,0.2c-0.5,0-1,0-1.4,0H82.8v6.9
				h9.3c0.5,0,0.9,0,1.2,0c0.3,0,0.5,0,0.6,0c0.1,0,0.2,0,0.3,0c0.3,0,0.5,0.1,0.7,0.2c0.2,0.1,0.4,0.3,0.6,0.6
				c0.2,0.2,0.3,0.5,0.4,0.8c0.1,0.3,0.1,0.6,0.1,1c0,0.5-0.1,0.9-0.2,1.2s-0.3,0.6-0.4,0.9c-0.2,0.2-0.4,0.4-0.6,0.5
				c-0.2,0.1-0.5,0.2-0.7,0.2H82.8V26h12.4c0.5,0,0.9,0,1.4,0c0.5,0,0.9,0.1,1.3,0.2c0.4,0.2,0.7,0.4,0.9,0.8
				c0.2,0.4,0.4,0.9,0.4,1.7c0,0.3,0,0.6-0.1,0.9c-0.1,0.3-0.2,0.6-0.3,0.8c-0.1,0.2-0.3,0.4-0.5,0.6c-0.2,0.2-0.5,0.2-0.7,0.3
				c-0.1,0-0.3,0-0.4,0C97.1,31.4,96.9,31.4,96.7,31.4z M66.5,3.2c0.3-0.8,0.5-1.3,0.8-1.8c0.3-0.4,0.6-0.7,1-0.9
				c0.4-0.2,0.7-0.3,1.2-0.4C69.8,0,70.3,0,70.9,0c0.4,0,0.8,0.1,1.2,0.2c0.4,0.1,0.6,0.4,0.8,0.7c0.2,0.3,0.3,0.8,0.3,1.3
				c0,0.5-0.1,1.2-0.4,2l-8.2,23.3c-0.4,1-0.8,1.8-1.2,2.4c-0.5,0.5-1,0.9-1.5,1.2s-1,0.4-1.6,0.4c-0.6,0-1.1,0.1-1.7,0.1h-1
				c-0.6,0-1.1,0-1.7-0.1c-0.6,0-1.1-0.2-1.6-0.4c-0.5-0.2-1-0.6-1.5-1.2c-0.5-0.5-0.9-1.3-1.2-2.4L43.4,4.3c-0.3-0.8-0.4-1.5-0.4-2
				c0-0.5,0.1-1,0.3-1.3c0.2-0.3,0.5-0.6,0.8-0.7C44.5,0.1,44.9,0,45.3,0c0.6,0,1,0,1.5,0.1c0.4,0,0.8,0.2,1.2,0.4
				c0.4,0.2,0.7,0.5,1,0.9c0.3,0.4,0.6,1,0.8,1.8l7.6,22.4c0.1,0.2,0.1,0.4,0.2,0.5c0.1,0.1,0.2,0.2,0.3,0.2h0.5
				c0.1,0,0.2-0.1,0.3-0.2c0.1-0.1,0.1-0.3,0.2-0.5L66.5,3.2z M39.6,30.1c0,0.4-0.1,0.6-0.2,0.9c-0.1,0.2-0.3,0.4-0.5,0.5
				c-0.2,0.1-0.5,0.2-0.8,0.2c-0.3,0-0.7,0-1,0c-0.3,0-0.7,0-1,0c-0.4,0-0.7-0.1-1-0.2s-0.6-0.2-0.9-0.3c-0.3-0.1-0.5-0.3-0.6-0.5
				c0,0,0,0,0,0l0,0L18.9,11.6v18.3c0,0.4-0.1,0.6-0.4,0.9c-0.2,0.2-0.6,0.4-0.9,0.5c-0.4,0.1-0.8,0.2-1.2,0.3
				c-0.4,0.1-0.8,0.1-1.2,0.1c-0.4,0-0.8,0-1.1-0.1c-0.3,0-0.6-0.1-0.8-0.2c-0.2-0.1-0.4-0.3-0.5-0.5s-0.2-0.5-0.2-0.8V2
				c0-0.7,0.2-1.2,0.6-1.5C13.6,0.2,14.2,0,15.1,0c0.6,0,1.2,0.1,1.8,0.2C17.5,0.4,18,0.6,18.4,1l0.1,0l14.8,19.3V3
				c0-0.4,0.1-0.8,0.3-1.2c0.2-0.4,0.5-0.7,0.8-1c0.4-0.3,0.8-0.5,1.2-0.7C36.1,0.1,36.6,0,37.1,0C38,0,38.6,0.1,39,0.4
				c0.4,0.3,0.6,0.8,0.6,1.6V30.1z M6.3,30.1c0,0.4-0.1,0.6-0.3,0.9c-0.2,0.2-0.4,0.4-0.7,0.5c-0.3,0.1-0.6,0.2-1,0.2
				c-0.4,0-0.8,0-1.1,0c-0.4,0-0.8,0-1.2-0.1c-0.4,0-0.7-0.1-1-0.2c-0.3-0.1-0.5-0.3-0.7-0.5C0.1,30.7,0,30.4,0,30.1V2
				c0-0.3,0.1-0.6,0.2-0.9c0.2-0.3,0.4-0.5,0.7-0.6c0.3-0.2,0.6-0.3,1-0.4C2.3,0,2.7,0,3.2,0S4,0,4.4,0.1c0.4,0.1,0.7,0.2,1,0.3
				C5.6,0.5,5.9,0.7,6,1c0.2,0.3,0.2,0.6,0.2,1V30.1z"/>
		</defs>
		<clipPath id="SVGID_2_">
			<use xlink:href="#SVGID_1_"  style="overflow:visible;"/>
		</clipPath>
		<g class="st0">
			<defs>
				<rect id="SVGID_3_" x="-4.8" y="-4.8" width="213.8" height="45"/>
			</defs>
			<clipPath id="SVGID_4_">
				<use xlink:href="#SVGID_3_"  style="overflow:visible;"/>
			</clipPath>
			<rect x="-1.2" y="-1.2" class="st1" width="202.4" height="34"/>
		</g>
	</g>
	<g>
		<defs>
			<circle id="SVGID_5_" cx="106.5" cy="17.2" r="2.6"/>
		</defs>
		<clipPath id="SVGID_6_">
			<use xlink:href="#SVGID_5_"  style="overflow:visible;"/>
		</clipPath>
		<g class="st2">
			<defs>
				<rect id="SVGID_7_" x="5.2" y="-2.8" width="193.4" height="40.7"/>
			</defs>
			<clipPath id="SVGID_8_">
				<use xlink:href="#SVGID_7_"  style="overflow:visible;"/>
			</clipPath>
			<rect x="102.8" y="13.6" class="st3" width="7.3" height="7.3"/>
		</g>
	</g>
</g>
</svg>
