<svg xmlns="http://www.w3.org/2000/svg" viewBox="0 0 200 30">
<linearGradient id="a" x1="0" x2="200" y1="15" y2="15" gradientUnits="userSpaceOnUse">
	<stop offset="0" stop-color="#4c2e86"/>
	<stop offset="1" stop-color="#892886"/>
</linearGradient>
<path fill="url(#a)" d="M0 29.6V0h5.7v29.6H0z"/>
<path fill="url(#a)" d="M20.8 29.6H14L7.6 12.2h5.8l4 12.4 4-12.4h5.8l-6.4 17.4z"/>
<path fill="url(#a)" d="M32.1 2.8c1.8 0 3.4 1.5 3.4 3.5 0 1.9-1.5 3.5-3.4 3.5s-3.4-1.6-3.4-3.5c.1-2 1.6-3.5 3.4-3.5zm-2.8 26.8V12.2H35v17.4h-5.7z"/>
<path fill="url(#a)" d="M50.2 29.6h-6.7l-6.4-17.4h5.8l4 12.4 4-12.4h5.8l-6.5 17.4z"/>
<path fill="url(#a)" d="M61.6 23.1c1.8 0 3.4 1.5 3.4 3.5 0 1.9-1.5 3.4-3.4 3.4s-3.4-1.5-3.4-3.4c0-2 1.5-3.5 3.4-3.5z"/>
<path fill="url(#a)" d="M86.2 29.6h-5.7V20c0-1.7-.5-3.4-2.4-3.4S75 19.2 75 20.9v8.7h-5.7V12.2H75v2.1c1.1-1.5 2.8-2.5 4.6-2.5 2.1 0 4 1 5.2 3 1.6-2.2 3.5-3 6.1-3 4.4 0 6.5 3.7 6.5 8.2v9.6h-5.7V20c0-1.7-.5-3.4-2.4-3.4-2.2 0-3.1 2.2-3.1 4.2v8.8z"/>
<path fill="url(#a)" d="M104.4 2.8c1.8 0 3.4 1.5 3.4 3.5 0 1.9-1.5 3.5-3.4 3.5S101 8.2 101 6.3c.1-2 1.6-3.5 3.4-3.5zm-2.8 26.8V12.2h5.7v17.4h-5.7z"/>
<path fill="url(#a)" d="M129.2 29.6h-5.7v-9.9c0-2.1-.8-3.2-2.6-3.2s-3.2 2-3.2 4.3v8.7H112V12.2h5.7v2.1c1.1-1.5 2.9-2.5 5.1-2.5 4.5 0 6.3 3.2 6.3 7.9v9.9z"/>
<path fill="url(#a)" d="M136.3 23.1c1.8 0 3.4 1.5 3.4 3.5 0 1.9-1.5 3.4-3.4 3.4s-3.4-1.5-3.4-3.4c0-2 1.5-3.5 3.4-3.5z"/>
<path fill="url(#a)" d="M149.1 21c0 2 .8 4.5 3.4 4.5 1.8 0 3.1-.8 3.3-2.4h5.6c-.6 3.9-4 6.9-9.1 6.9-5.8 0-9.3-4.1-9.3-9.1s3.7-9.1 9.3-9.1c5.4 0 8.9 3.4 9.2 7.4h-5.7c-.1-1.7-1.3-2.8-3.3-2.8-2.6 0-3.4 2.6-3.4 4.6z"/>
<path fill="url(#a)" d="M174.9 17.5c-.2-1.6-1.6-2-2.7-2s-2.3.6-2.3 1.6c0 2.4 10.9 0 10.9 7.3 0 4.1-3.4 5.6-8.3 5.6-5 0-8.8-1.9-9.1-6.9h5.7c0 2.6 2.2 2.8 3.5 2.8 1.3 0 2.4-.5 2.4-1.5 0-3.7-10.9-.8-10.9-7.1 0-3.6 2.6-5.5 8.2-5.5 4.4 0 7.7 1.7 8.2 5.7h-5.6z"/>
<path fill="url(#a)" d="M194.1 17.5c-.2-1.6-1.6-2-2.7-2s-2.3.6-2.3 1.6c0 2.4 10.9 0 10.9 7.3 0 4.1-3.4 5.6-8.3 5.6-5 0-8.8-1.9-9.1-6.9h5.7c0 2.6 2.2 2.8 3.5 2.8 1.3 0 2.4-.5 2.4-1.5 0-3.7-10.9-.8-10.9-7.1 0-3.6 2.6-5.5 8.2-5.5 4.4 0 7.7 1.7 8.2 5.7h-5.6z"/>
</svg>