<?xml version="1.0" encoding="utf-8"?>
<!-- Generator: Adobe Illustrator 22.1.0, SVG Export Plug-In . SVG Version: 6.00 Build 0)  -->
<svg version="1.1" id="Слой_1" xmlns="http://www.w3.org/2000/svg" xmlns:xlink="http://www.w3.org/1999/xlink" x="0px" y="0px"
	 viewBox="0 0 100 44" style="enable-background:new 0 0 100 44;" xml:space="preserve">
<style type="text/css">
	.st0{clip-path:url(#SVGID_4_);}
	.st1{clip-path:url(#SVGID_6_);fill:#FFFFFF;}
	.st2{clip-path:url(#SVGID_8_);}
	.st3{clip-path:url(#SVGID_10_);fill:#FFFFFF;}
	.st4{clip-path:url(#SVGID_12_);}
	.st5{clip-path:url(#SVGID_14_);fill:#FFFFFF;}
	.st6{clip-path:url(#SVGID_16_);}
	.st7{clip-path:url(#SVGID_18_);fill:#FFFFFF;}
	.st8{clip-path:url(#SVGID_20_);}
	.st9{clip-path:url(#SVGID_22_);fill:#FFFFFF;}
	.st10{clip-path:url(#SVGID_24_);}
	.st11{clip-path:url(#SVGID_26_);fill:#FFFFFF;}
	.st12{clip-path:url(#SVGID_28_);}
	.st13{clip-path:url(#SVGID_30_);fill:#FFFFFF;}
	.st14{clip-path:url(#SVGID_32_);}
	.st15{clip-path:url(#SVGID_34_);fill:#FFFFFF;}
</style>
<g>
	<g>
		<defs>
			<path id="SVGID_1_" d="M80.2,44H19.6c-3,0-5.5-2.5-5.5-5.5c0-3,2.5-5.5,5.5-5.5h60.5c3,0,5.5,2.5,5.5,5.5
				C85.6,41.5,83.2,44,80.2,44z"/>
		</defs>
		<use xlink:href="#SVGID_1_"  style="overflow:visible;fill:#EB6524;"/>
		<clipPath id="SVGID_2_">
			<use xlink:href="#SVGID_1_"  style="overflow:visible;"/>
		</clipPath>
	</g>
	<g>
		<defs>
			<path id="SVGID_3_" d="M30.1,37.2h-0.7v1.2h0.7c0.2,0,0.3-0.1,0.4-0.2c0.1-0.1,0.2-0.3,0.2-0.4c0-0.1,0-0.2,0-0.2
				c0-0.1-0.1-0.1-0.1-0.2c-0.1-0.1-0.1-0.1-0.2-0.1C30.2,37.2,30.1,37.2,30.1,37.2z M28.5,40.4v-3.8c0-0.1,0-0.1,0.1-0.1h1.6
				c0.2,0,0.4,0,0.5,0.1c0.2,0.1,0.3,0.2,0.4,0.3c0.1,0.1,0.2,0.3,0.3,0.4c0.1,0.2,0.1,0.3,0.1,0.5s0,0.3-0.1,0.5
				c-0.1,0.2-0.2,0.3-0.3,0.4c-0.1,0.1-0.2,0.2-0.4,0.3c-0.2,0.1-0.3,0.1-0.5,0.1h-0.9v1.3c0,0.1,0,0.1-0.1,0.1h-0.6
				C28.6,40.5,28.5,40.5,28.5,40.4z"/>
		</defs>
		<clipPath id="SVGID_4_">
			<use xlink:href="#SVGID_3_"  style="overflow:visible;"/>
		</clipPath>
		<g class="st0">
			<defs>
				<rect id="SVGID_5_" x="-101.4" y="-55.6" width="302.9" height="215.4"/>
			</defs>
			<clipPath id="SVGID_6_">
				<use xlink:href="#SVGID_5_"  style="overflow:visible;"/>
			</clipPath>
			<rect x="27.5" y="35.4" class="st1" width="5" height="6.2"/>
		</g>
	</g>
	<g>
		<defs>
			<path id="SVGID_7_" d="M35.3,37.5l-0.6,1.5h1.2L35.3,37.5z M33.4,40.4l1.5-3.8c0-0.1,0.1-0.1,0.1-0.1h0.5c0.1,0,0.1,0,0.1,0.1
				l1.5,3.8c0,0,0,0.1,0,0.1c0,0,0,0-0.1,0h-0.6c-0.1,0-0.1,0-0.1-0.1l-0.3-0.7h-1.7l-0.3,0.7c0,0.1-0.1,0.1-0.1,0.1h-0.6
				C33.3,40.5,33.3,40.5,33.4,40.4z"/>
		</defs>
		<clipPath id="SVGID_8_">
			<use xlink:href="#SVGID_7_"  style="overflow:visible;"/>
		</clipPath>
		<g class="st2">
			<defs>
				<rect id="SVGID_9_" x="-101.4" y="-55.6" width="302.9" height="215.4"/>
			</defs>
			<clipPath id="SVGID_10_">
				<use xlink:href="#SVGID_9_"  style="overflow:visible;"/>
			</clipPath>
			<rect x="32.3" y="35.4" class="st3" width="5.9" height="6.2"/>
		</g>
	</g>
	<g>
		<defs>
			<path id="SVGID_11_" d="M41.3,37.2h-0.8v1.2h0.8c0.2,0,0.3-0.1,0.5-0.2c0.1-0.1,0.2-0.3,0.2-0.4c0-0.1,0-0.2,0-0.2
				c0-0.1-0.1-0.1-0.1-0.2c-0.1-0.1-0.1-0.1-0.2-0.1C41.5,37.2,41.4,37.2,41.3,37.2z M39.6,40.4v-3.8c0,0,0-0.1,0-0.1c0,0,0,0,0.1,0
				h1.7c0.2,0,0.4,0,0.5,0.1c0.2,0.1,0.3,0.2,0.4,0.3c0.1,0.1,0.2,0.3,0.3,0.4c0.1,0.2,0.1,0.3,0.1,0.5c0,0.2-0.1,0.4-0.2,0.6
				c-0.1,0.2-0.3,0.4-0.5,0.5l0.7,1.5c0,0,0,0.1,0,0.1s0,0-0.1,0H42c-0.1,0-0.1,0-0.1-0.1l-0.6-1.3h-0.8v1.3c0,0.1,0,0.1-0.1,0.1
				h-0.6C39.7,40.5,39.6,40.5,39.6,40.4z"/>
		</defs>
		<clipPath id="SVGID_12_">
			<use xlink:href="#SVGID_11_"  style="overflow:visible;"/>
		</clipPath>
		<g class="st4">
			<defs>
				<rect id="SVGID_13_" x="-101.4" y="-55.6" width="302.9" height="215.4"/>
			</defs>
			<clipPath id="SVGID_14_">
				<use xlink:href="#SVGID_13_"  style="overflow:visible;"/>
			</clipPath>
			<rect x="38.6" y="35.4" class="st5" width="5.3" height="6.2"/>
		</g>
	</g>
	<g>
		<defs>
			<path id="SVGID_15_" d="M45.1,37.1v-0.5c0-0.1,0-0.1,0.1-0.1H48c0.1,0,0.1,0,0.1,0.1v0.5c0,0.1,0,0.1-0.1,0.1h-1v3.2
				c0,0.1,0,0.1-0.1,0.1h-0.6c-0.1,0-0.1,0-0.1-0.1v-3.2h-1C45.1,37.2,45.1,37.2,45.1,37.1z"/>
		</defs>
		<clipPath id="SVGID_16_">
			<use xlink:href="#SVGID_15_"  style="overflow:visible;"/>
		</clipPath>
		<g class="st6">
			<defs>
				<rect id="SVGID_17_" x="-101.4" y="-55.6" width="302.9" height="215.4"/>
			</defs>
			<clipPath id="SVGID_18_">
				<use xlink:href="#SVGID_17_"  style="overflow:visible;"/>
			</clipPath>
			<rect x="44" y="35.4" class="st7" width="5.2" height="6.2"/>
		</g>
	</g>
	<g>
		<defs>
			<path id="SVGID_19_" d="M50.7,36.6C50.7,36.6,50.7,36.5,50.7,36.6c0.1-0.1,0.1-0.1,0.1-0.1h0.6c0,0,0.1,0,0.1,0
				c0,0,0.1,0,0.1,0.1l1.8,2.6v-2.6c0,0,0-0.1,0.1-0.1c0,0,0,0,0.1,0H54c0,0,0.1,0,0.1,0c0,0,0,0.1,0,0.1v3.8c0,0.1,0,0.1-0.1,0.1
				h-0.5c0,0-0.1,0-0.1,0c0,0,0,0-0.1-0.1l-1.9-2.7v2.7c0,0.1,0,0.1-0.1,0.1h-0.5c-0.1,0-0.1,0-0.1-0.1V36.6z"/>
		</defs>
		<clipPath id="SVGID_20_">
			<use xlink:href="#SVGID_19_"  style="overflow:visible;"/>
		</clipPath>
		<g class="st8">
			<defs>
				<rect id="SVGID_21_" x="-101.4" y="-55.6" width="302.9" height="215.4"/>
			</defs>
			<clipPath id="SVGID_22_">
				<use xlink:href="#SVGID_21_"  style="overflow:visible;"/>
			</clipPath>
			<rect x="49.6" y="35.4" class="st9" width="5.6" height="6.2"/>
		</g>
	</g>
	<g>
		<defs>
			<path id="SVGID_23_" d="M57.1,40.4v-3.8c0-0.1,0-0.1,0.1-0.1h2.7c0.1,0,0.1,0,0.1,0.1v0.5c0,0.1,0,0.1-0.1,0.1h-2V38h1.5
				c0.1,0,0.1,0,0.1,0.1v0.5c0,0.1,0,0.1-0.1,0.1h-1.5v1h2c0.1,0,0.1,0,0.1,0.1v0.5c0,0.1,0,0.1-0.1,0.1h-2.7
				C57.1,40.5,57.1,40.5,57.1,40.4z"/>
		</defs>
		<clipPath id="SVGID_24_">
			<use xlink:href="#SVGID_23_"  style="overflow:visible;"/>
		</clipPath>
		<g class="st10">
			<defs>
				<rect id="SVGID_25_" x="-101.4" y="-55.6" width="302.9" height="215.4"/>
			</defs>
			<clipPath id="SVGID_26_">
				<use xlink:href="#SVGID_25_"  style="overflow:visible;"/>
			</clipPath>
			<rect x="56" y="35.4" class="st11" width="5" height="6.2"/>
		</g>
	</g>
	<g>
		<defs>
			<path id="SVGID_27_" d="M64.3,37.2h-0.8v1.2h0.8c0.2,0,0.3-0.1,0.5-0.2c0.1-0.1,0.2-0.3,0.2-0.4c0-0.1,0-0.2,0-0.2
				c0-0.1-0.1-0.1-0.1-0.2c-0.1-0.1-0.1-0.1-0.2-0.1C64.5,37.2,64.4,37.2,64.3,37.2z M62.6,40.4v-3.8c0,0,0-0.1,0-0.1c0,0,0,0,0.1,0
				h1.7c0.2,0,0.4,0,0.5,0.1c0.2,0.1,0.3,0.2,0.4,0.3c0.1,0.1,0.2,0.3,0.3,0.4c0.1,0.2,0.1,0.3,0.1,0.5c0,0.2-0.1,0.4-0.2,0.6
				s-0.3,0.4-0.5,0.5l0.7,1.5c0,0,0,0.1,0,0.1s0,0-0.1,0H65c-0.1,0-0.1,0-0.1-0.1l-0.6-1.3h-0.8v1.3c0,0.1,0,0.1-0.1,0.1h-0.6
				C62.7,40.5,62.6,40.5,62.6,40.4z"/>
		</defs>
		<clipPath id="SVGID_28_">
			<use xlink:href="#SVGID_27_"  style="overflow:visible;"/>
		</clipPath>
		<g class="st12">
			<defs>
				<rect id="SVGID_29_" x="-101.4" y="-55.6" width="302.9" height="215.4"/>
			</defs>
			<clipPath id="SVGID_30_">
				<use xlink:href="#SVGID_29_"  style="overflow:visible;"/>
			</clipPath>
			<rect x="61.6" y="35.4" class="st13" width="5.3" height="6.2"/>
		</g>
	</g>
	<g>
		<defs>
			<path id="SVGID_31_" d="M68.3,39.9C68.2,39.9,68.2,39.8,68.3,39.9c-0.1-0.1-0.1-0.2,0-0.2l0.4-0.4c0,0,0.1,0,0.1,0
				c0,0,0.1,0,0.1,0.1c0.1,0.1,0.1,0.1,0.2,0.2c0.1,0.1,0.1,0.1,0.2,0.2c0.1,0,0.2,0.1,0.3,0.1c0.1,0,0.2,0,0.3,0c0.1,0,0.2,0,0.3,0
				c0.1,0,0.2-0.1,0.2-0.1c0.1,0,0.1-0.1,0.1-0.2c0-0.1,0-0.1,0-0.2c0-0.1,0-0.2-0.1-0.2c-0.1-0.1-0.1-0.1-0.2-0.2
				c-0.1,0-0.2-0.1-0.2-0.1c-0.1,0-0.2-0.1-0.2-0.1c-0.4-0.1-0.8-0.3-1-0.5c-0.2-0.2-0.3-0.4-0.3-0.8c0-0.2,0-0.3,0.1-0.5
				s0.2-0.3,0.3-0.4c0.1-0.1,0.3-0.2,0.5-0.2c0.2-0.1,0.4-0.1,0.6-0.1c0.2,0,0.5,0.1,0.7,0.2c0.2,0.1,0.4,0.3,0.6,0.4
				c0.1,0.1,0.1,0.1,0,0.2l-0.3,0.3c0,0-0.1,0-0.1,0c0,0-0.1,0-0.1-0.1c0,0-0.1-0.1-0.1-0.1c-0.1,0-0.1-0.1-0.2-0.1
				c-0.1,0-0.1-0.1-0.2-0.1c-0.1,0-0.2,0-0.2,0c-0.1,0-0.1,0-0.2,0c-0.1,0-0.1,0-0.2,0.1c-0.1,0-0.1,0.1-0.1,0.1
				c0,0.1-0.1,0.1-0.1,0.2c0,0.1,0,0.1,0.1,0.2c0,0.1,0.1,0.1,0.2,0.1c0.1,0,0.2,0.1,0.2,0.1c0.1,0,0.2,0.1,0.3,0.1
				c0.2,0.1,0.4,0.1,0.5,0.2c0.2,0.1,0.3,0.2,0.4,0.2c0.1,0.1,0.2,0.2,0.3,0.4c0.1,0.1,0.1,0.3,0.1,0.5c0,0.2,0,0.4-0.1,0.5
				c-0.1,0.2-0.2,0.3-0.3,0.4c-0.1,0.1-0.3,0.2-0.5,0.3c-0.2,0.1-0.4,0.1-0.6,0.1c-0.3,0-0.6-0.1-0.8-0.2
				C68.7,40.3,68.4,40.1,68.3,39.9z"/>
		</defs>
		<clipPath id="SVGID_32_">
			<use xlink:href="#SVGID_31_"  style="overflow:visible;"/>
		</clipPath>
		<g class="st14">
			<defs>
				<rect id="SVGID_33_" x="-101.4" y="-55.6" width="302.9" height="215.4"/>
			</defs>
			<clipPath id="SVGID_34_">
				<use xlink:href="#SVGID_33_"  style="overflow:visible;"/>
			</clipPath>
			<rect x="67.1" y="35.3" class="st15" width="5.2" height="6.3"/>
		</g>
	</g>
	<g>
		<defs>
			<path id="SVGID_35_" d="M75.2,5.1c0,0-1,1.5-2,1.2C69.7,5.5,74.4,0,74.4,0s-5.9,1.6-7.1,5.3c-0.5,1.5,0,3.2,1.1,4.2
				c0.8,0.7,1.8,1.1,2.9,1.1C75.7,10.6,75.2,5.1,75.2,5.1z"/>
		</defs>
		<use xlink:href="#SVGID_35_"  style="overflow:visible;fill:#EB6524;"/>
		<clipPath id="SVGID_36_">
			<use xlink:href="#SVGID_35_"  style="overflow:visible;"/>
		</clipPath>
	</g>
	<g>
		<defs>
			<path id="SVGID_37_" d="M0,12.3c0.7-0.2,1.7-0.4,2.8-0.6c1.2-0.2,2.5-0.3,4.1-0.3c1.4,0,2.5,0.2,3.4,0.6c0.9,0.4,1.6,0.9,2.2,1.6
				c0.5,0.7,0.9,1.5,1.1,2.5c0.2,1,0.3,2.1,0.3,3.2v9.8h-3.1v-9.1c0-1.1-0.1-2-0.2-2.7c-0.1-0.8-0.4-1.4-0.7-1.8
				c-0.3-0.5-0.8-0.8-1.3-1c-0.6-0.2-1.2-0.3-2.1-0.3c-0.3,0-0.7,0-1,0c-0.4,0-0.7,0.1-1,0.1c-0.3,0-0.6,0.1-0.9,0.1
				c-0.3,0-0.4,0.1-0.5,0.1v14.7H0V12.3z"/>
		</defs>
		<use xlink:href="#SVGID_37_"  style="overflow:visible;fill:#676868;"/>
		<clipPath id="SVGID_38_">
			<use xlink:href="#SVGID_37_"  style="overflow:visible;"/>
		</clipPath>
	</g>
	<g>
		<defs>
			<path id="SVGID_39_" d="M27.8,18.8c0-1.4-0.3-2.6-1-3.5C26,14.5,25,14,23.7,14c-0.7,0-1.3,0.1-1.9,0.4c-0.5,0.3-1,0.6-1.4,1.1
				c-0.4,0.4-0.7,1-0.9,1.5c-0.2,0.6-0.3,1.2-0.4,1.8L27.8,18.8L27.8,18.8z M15.9,20.5c0-1.5,0.2-2.9,0.7-4c0.4-1.1,1-2.1,1.8-2.9
				c0.7-0.8,1.6-1.3,2.5-1.7c1-0.4,1.9-0.6,2.9-0.6c2.3,0,4.1,0.7,5.4,2.2c1.2,1.5,1.9,3.7,1.9,6.7c0,0.1,0,0.3,0,0.5s0,0.4,0,0.6
				H19.1c0.1,1.8,0.7,3.2,1.6,4.1c0.9,0.9,2.3,1.4,4.3,1.4c1.1,0,2-0.1,2.7-0.3c0.7-0.2,1.3-0.4,1.7-0.6l0.4,2.6
				c-0.4,0.2-1,0.4-2,0.6c-0.9,0.2-2,0.3-3.2,0.3c-1.5,0-2.8-0.2-3.9-0.7c-1.1-0.5-2-1.1-2.7-1.9c-0.7-0.8-1.2-1.8-1.6-2.9
				C16.1,23.1,15.9,21.9,15.9,20.5z"/>
		</defs>
		<use xlink:href="#SVGID_39_"  style="overflow:visible;fill:#676868;"/>
		<clipPath id="SVGID_40_">
			<use xlink:href="#SVGID_39_"  style="overflow:visible;"/>
		</clipPath>
	</g>
	<g>
		<defs>
			<path id="SVGID_41_" d="M47.8,29.2c-0.6-1.6-1.3-3.4-2-5.5c-0.7-2.1-1.3-4.2-1.9-6.4c-0.6,2.2-1.2,4.4-1.9,6.4
				c-0.7,2.1-1.3,3.9-2,5.5h-2.7c-1-2.3-2-4.9-3-7.9c-1-2.9-1.9-6.1-2.8-9.5h3.3c0.2,1,0.5,2.2,0.8,3.4c0.3,1.2,0.6,2.5,1,3.7
				c0.3,1.2,0.7,2.4,1.1,3.5c0.4,1.1,0.7,2.1,1.1,3c0.4-1,0.7-2.2,1.1-3.3c0.4-1.2,0.7-2.4,1-3.5c0.3-1.2,0.6-2.4,0.9-3.5
				c0.3-1.1,0.6-2.2,0.8-3.2h2.6c0.2,1,0.4,2.1,0.7,3.2c0.3,1.1,0.6,2.3,0.9,3.5c0.3,1.2,0.7,2.4,1,3.5c0.4,1.2,0.7,2.3,1.1,3.3
				c0.3-0.8,0.7-1.8,1-3c0.4-1.1,0.7-2.3,1.1-3.5c0.4-1.2,0.7-2.5,1-3.7c0.3-1.2,0.6-2.4,0.8-3.4h3.2c-0.9,3.4-1.8,6.6-2.8,9.5
				c-1,2.9-2,5.6-3,7.9H47.8z"/>
		</defs>
		<use xlink:href="#SVGID_41_"  style="overflow:visible;fill:#676868;"/>
		<clipPath id="SVGID_42_">
			<use xlink:href="#SVGID_41_"  style="overflow:visible;"/>
		</clipPath>
	</g>
	<g>
		<defs>
			<path id="SVGID_43_" d="M71.3,12.1c-0.5,0-1.1-0.1-1.7-0.2l-0.3-0.1c0,0,0,0,0,0v17.3h3.1V12C72,12.1,71.7,12.1,71.3,12.1z"/>
		</defs>
		<use xlink:href="#SVGID_43_"  style="overflow:visible;fill:#676868;"/>
		<clipPath id="SVGID_44_">
			<use xlink:href="#SVGID_43_"  style="overflow:visible;"/>
		</clipPath>
	</g>
	<g>
		<defs>
			<path id="SVGID_45_" d="M96.8,18.8c0-1.4-0.3-2.6-1-3.5C95,14.5,94,14,92.7,14c-0.7,0-1.3,0.1-1.9,0.4c-0.5,0.3-1,0.6-1.4,1.1
				c-0.4,0.4-0.7,1-0.9,1.5c-0.2,0.6-0.3,1.2-0.4,1.8L96.8,18.8L96.8,18.8z M84.9,20.5c0-1.5,0.2-2.9,0.7-4c0.4-1.1,1-2.1,1.8-2.9
				c0.7-0.8,1.6-1.3,2.5-1.7c1-0.4,1.9-0.6,2.9-0.6c2.3,0,4.1,0.7,5.4,2.2c1.2,1.5,1.9,3.7,1.9,6.7c0,0.1,0,0.3,0,0.5s0,0.4,0,0.6
				H88.1c0.1,1.8,0.7,3.2,1.6,4.1s2.3,1.4,4.3,1.4c1.1,0,2-0.1,2.7-0.3c0.7-0.2,1.3-0.4,1.7-0.6l0.4,2.6c-0.4,0.2-1,0.4-2,0.6
				c-0.9,0.2-2,0.3-3.2,0.3c-1.5,0-2.8-0.2-3.9-0.7c-1.1-0.5-2-1.1-2.7-1.9c-0.7-0.8-1.2-1.8-1.6-2.9C85.1,23.1,84.9,21.9,84.9,20.5
				z"/>
		</defs>
		<use xlink:href="#SVGID_45_"  style="overflow:visible;fill:#676868;"/>
		<clipPath id="SVGID_46_">
			<use xlink:href="#SVGID_45_"  style="overflow:visible;"/>
		</clipPath>
	</g>
	<g>
		<defs>
			<path id="SVGID_47_" d="M83.8,14.4c0.6-1.2,1.4-2.5,1.4-2.5c-0.1,0-0.3-0.1-0.6-0.2c-0.3-0.1-0.6-0.1-0.9-0.2
				c-0.3-0.1-0.7-0.1-1-0.1c-0.3,0-0.6-0.1-0.9-0.1c-1.4,0-2.6,0.1-3.7,0.4c-1.1,0.2-2,0.5-2.7,0.8v16.7h3.1V14.6
				c0.2,0,0.5-0.1,1.1-0.3c0.6-0.1,1.1-0.2,1.7-0.2c0.9,0,1.6,0.1,2.2,0.2C83.6,14.4,83.7,14.4,83.8,14.4z"/>
		</defs>
		<use xlink:href="#SVGID_47_"  style="overflow:visible;fill:#676868;"/>
		<clipPath id="SVGID_48_">
			<use xlink:href="#SVGID_47_"  style="overflow:visible;"/>
		</clipPath>
	</g>
	<g>
		<defs>
			<path id="SVGID_49_" d="M61.2,10.3c0-1.3,0.3-2.4,0.9-3.2c0.6-0.8,1.6-1.2,3-1.2c0.3,0,0.3,0,0.5,0c0-0.4,0.1-0.7,0.2-1.1
				c0.2-0.5,0.4-1,0.7-1.5c-0.5-0.1-0.9-0.1-1.7-0.1c-2.3,0-4,0.6-5.1,1.8c-1.1,1.2-1.6,2.9-1.6,5.2v19h3.1V14.4H67v-2.6h-5.8
				L61.2,10.3L61.2,10.3z"/>
		</defs>
		<use xlink:href="#SVGID_49_"  style="overflow:visible;fill:#676868;"/>
		<clipPath id="SVGID_50_">
			<use xlink:href="#SVGID_49_"  style="overflow:visible;"/>
		</clipPath>
	</g>
</g>
</svg>
