<svg xmlns="http://www.w3.org/2000/svg" viewBox="0 0 283.5 79.4"><path d="M95.5 78.5v-1.3h.1c.6.2 2.1.5 3.1.5h.5c1.5 0 2.6-.6 2.6-2.1 0-1.3-.7-1.8-1.8-2.1l-1.7-.5c-1.2-.3-2.7-1.1-2.7-3.3 0-2 1.5-3.3 4-3.3h.4c.9 0 2.3.3 2.8.5v1.3h-.1c-.6-.2-1.9-.5-2.7-.5h-.4c-1.5 0-2.4.6-2.4 2 0 1.3.8 1.6 1.8 1.9l1.6.5c1.3.4 2.8 1 2.8 3.4 0 2.1-1.5 3.5-4.1 3.5h-.5c-1.2 0-2.8-.3-3.3-.5zM105.6 74.3c0-2.7 1.3-4.5 3.9-4.5 2.8 0 3.9 1.8 3.9 4.5 0 2.9-1.3 4.8-3.9 4.8-2.8-.1-3.9-1.9-3.9-4.8zm6.4 0c0-2-.6-3.2-2.5-3.2s-2.5 1.2-2.5 3.2.6 3.5 2.5 3.5c1.9-.1 2.5-1.5 2.5-3.5zM116.7 71.2h-1.4v-1.3h1.4v-.4c0-1.9 1.2-3 3-3h1v1.3h-1c-1.2 0-1.5.5-1.5 1.7v.4h2.3v1.3h-2.3v7.7h-1.4l-.1-7.7zM126.4 78.9c-1.9 0-3.1-.9-3.1-3.1v-4.6h-1.4v-1.3h1.4v-2.1h1.4v2.1h2.6v1.3h-2.6v4.4c0 1.7.5 2.1 1.9 2.1h.9V79h-1.1v-.1zM129.5 72.2v-2.3h1.4v2.3c0 2.6.8 4.7 1.6 5.6.8-1 1.6-3.1 1.6-5.6v-2.3h1.4v2.3c0 2.6.8 4.7 1.6 5.6.8-1 1.6-3.1 1.6-5.6v-2.3h1.4v2.3c0 3.1-1.3 5.8-2.2 6.7h-1.5c-.5-.5-1.4-2.1-1.6-3.1-.2 1-1.2 2.6-1.6 3.1h-1.5c-1-.9-2.2-3.6-2.2-6.7zM142.5 75.9v-1.4c0-2.8 2.3-4.6 4.8-4.6h2.4v9h-1.4v-1.7l-.6.6c-.7.6-1.4 1.2-2.6 1.2-1.5 0-2.6-.9-2.6-3.1zm5.7-.1v-4.6h-1c-1.9 0-3.3 1.3-3.3 3.3v1.4c0 1.4.6 1.8 1.4 1.8.9 0 1.9-.9 2.4-1.4l.5-.5zM153.2 69.9h1.4v2l.1-.2c.7-1 1.5-1.8 2.6-1.8h.6v1.5h-.6c-.6 0-1.3.2-1.7.6l-1 1v5.8h-1.4v-8.9zM159.7 75.4v-1.8c0-2.4 1.7-3.9 3.8-3.9 1.8 0 3.1.8 3.1 2.6 0 1.6-1 2.6-2.8 2.6h-2.7v.5c0 1.7 1 2.3 2.4 2.3 1 0 2.1-.4 2.4-.6h.1v1.3c-.4.2-1.5.6-2.6.6-2 0-3.7-1-3.7-3.6zm1.4-1.7h2.3c1.4 0 1.8-.5 1.8-1.4 0-1-.7-1.3-1.7-1.3-1.5 0-2.4.8-2.4 2.6v.1zM94.6 56.4h25c5.3 0 9.6-4.1 9.6-9.1v-1.7c0-4.9-4.1-8.9-9.3-9.1H102.8c-1.5 0-2.7-1.1-2.7-2.5v-1.6c0-1.4 1.2-2.5 2.7-2.5h24.5v-6.6h-24.5c-5.3 0-9.6 4.1-9.6 9.1V34c0 5 4.3 9.1 9.6 9.1h16.7c1.5 0 2.7 1.1 2.7 2.5v1.7c0 1.4-1.2 2.5-2.7 2.5h-25l.1 6.6zM137.5 56.4h7v-33h-7v33zM235.3 56.4h7V32.5c0-5-4.3-9.1-9.6-9.1h-34.8v33h6.9V30h11.6v26.4h7V30h9.3c1.5 0 2.7 1.1 2.7 2.5l-.1 23.9zM283.5 32.4c0-5-4.3-9.1-9.6-9.1h-22.2v6.6h22.2c1.5 0 2.7 1.1 2.7 2.5v4.1H259c-5.3 0-9.6 4.1-9.6 9.1v1.7c0 5 4.3 9.1 9.6 9.1h24.6l-.1-24zm-7 17.4h-17.6c-1.5 0-2.7-1.1-2.7-2.5v-1.7c0-1.4 1.2-2.5 2.7-2.5h17.6v6.7zM153.9 47.3c0 5 4.3 9.1 9.6 9.1h24.6V36.6h-18.4v6.6h11.4v6.7h-17.6c-1.5 0-2.7-1.1-2.7-2.5V32.5c0-1.4 1.2-2.5 2.7-2.5h24.6v-6.6h-24.6c-5.3 0-9.6 4.1-9.6 9.1v14.8zM39.7 79.4c-6 0-10.9-10.6-12.7-27-16.4-1.8-27-6.7-27-12.7S10.6 28.8 27 27c1.8-16.4 6.8-27 12.7-27 5.8 0 10.8 10.4 12.7 26.5 0 .2 0 .3.1.5 16.4 1.8 27 6.8 27 12.7 0 6-10.6 10.9-27 12.7-1.9 16.5-6.8 27-12.8 27zm0-77.2c-4.6 0-9.1 10.9-10.6 25.9l-.1.9-.9.1c-15 1.5-25.9 6-25.9 10.7s10.9 9.1 25.9 10.7l.9.1.1.9c1.5 15 6 25.9 10.6 25.9s9.1-10.9 10.7-25.9l.1-.5.1-.1.1-.3.7-.1c15-1.5 25.9-6 25.9-10.6 0-4.5-10.5-9-25.1-10.6l-.8-.1h-.9l-.1-1c0-.4-.1-.9-.1-1.3-1.7-14.6-6.1-24.7-10.6-24.7z"/></svg>