<svg xmlns="http://www.w3.org/2000/svg" id="Слой_1" viewBox="0 0 100 32.3"><style>.st0{fill:#263a4b}</style><path d="M15.5 8.7c-1.2-2.2-2.9-2.8-4.4-2.8-1.8 0-3.7.9-3.8 3.3-.1 2.3 2.7 3.4 4.5 3.9 4.8 1.3 10 3.7 9.7 10.8-.3 6.2-5.7 9.1-10.8 9.1-3.5 0-8.1-1.5-10.7-7.6l4.9-2.8c1.5 3.3 4.1 4.6 6 4.6 2.4 0 4.2-1.6 4.3-3.7.2-3-2.7-4.2-4.9-4.8C7 17.9.9 15.7 1 9.2 1.1 2.8 6.3 0 11.1 0c3.7 0 7.1 1.8 9.2 5.9l-4.8 2.8zM47 9.4h6.1v22.9H47zM67 32.3c-5.5.9-10.2-1.3-10-7.4V9.4l5.9-5.9v5.9H67v4.9h-4.1v10.5c0 1.5 1.5 2.6 4.1 2.3v5.2zM78.6 32.4c-5.1.9-9.2-1-9.2-7.4V.7h6.1V25c0 1.2.6 2.5 3.1 2.3v5.1zM94.4 32.3v-2c-1.4 1.8-3.6 2.5-5.4 2.5-5.9 0-9-3.6-9-7.9 0-5.1 4.9-7.7 9.7-7.6 1.5 0 2.9.4 4.3.9-.1-3.2-2.1-4.3-4.4-4.4-2.2 0-4.8.7-6.1 1.8l-2.3-4c2.9-2.2 5.9-2.7 8.9-2.7 5.1 0 9.9 2.8 9.9 9.4v14h-5.6zm-.3-6.1v-3.6c-1.1-.5-2.5-.8-3.9-.8-2.3 0-4.4.8-4.5 3-.1 4.1 6.1 3.8 8.4 1.4M38 9.4h6.3l-7.7 22.9H29L21.2 9.4h6.3l5.2 16.7L38 9.4z" class="st0"/><path fill="#f47920" d="M50 0c-3.4 0-6.5 1.4-8.8 3.7l4.2 4.2C46.6 6.7 48.2 6 50 6c1.8 0 3.4.7 4.6 1.9l4.2-4.2C56.6 1.4 53.5 0 50 0z"/></svg>