<?xml version="1.0" encoding="utf-8"?>
<!-- Generator: Adobe Illustrator 22.1.0, SVG Export Plug-In . SVG Version: 6.00 Build 0)  -->
<svg version="1.1" id="Слой_1" xmlns="http://www.w3.org/2000/svg" xmlns:xlink="http://www.w3.org/1999/xlink" x="0px" y="0px"
	 viewBox="0 0 100 67" style="enable-background:new 0 0 100 67;" xml:space="preserve">
<style type="text/css">
	.st0{fill:#20303C;}
</style>
<path class="st0" d="M11.2,61.6v0.8h-10V47.6h9.9v0.8H2v5.9h8.5v0.8H2v6.5H11.2z M12.6,51.8h0.8v2.3h0c0.1-0.4,0.3-0.8,0.6-1.1
	c0.3-0.3,0.6-0.6,0.9-0.8c0.3-0.2,0.7-0.4,1.1-0.5c0.4-0.1,0.8-0.2,1.2-0.2c0.6,0,1.1,0.1,1.6,0.2c0.4,0.2,0.8,0.4,1.1,0.6
	c0.3,0.2,0.5,0.5,0.7,0.8c0.2,0.3,0.3,0.6,0.3,0.9c0.1,0.3,0.1,0.6,0.1,0.9c0,0.3,0,0.6,0,0.8v6.6h-0.8v-6.7c0-0.3,0-0.6-0.1-1
	c0-0.4-0.2-0.8-0.4-1.1c-0.2-0.4-0.5-0.7-0.9-0.9c-0.4-0.3-1-0.4-1.7-0.4c-0.6,0-1.1,0.1-1.6,0.3c-0.5,0.2-0.9,0.5-1.2,0.9
	c-0.3,0.4-0.6,0.9-0.8,1.4c-0.2,0.5-0.3,1.1-0.3,1.8v5.8h-0.8V51.8z M32.2,51.8v10.1c0,0.1,0,0.4,0,0.6c0,0.3-0.1,0.6-0.1,1
	c-0.1,0.4-0.2,0.7-0.4,1.1c-0.2,0.4-0.4,0.7-0.8,1c-0.3,0.3-0.8,0.5-1.3,0.7c-0.5,0.2-1.2,0.3-1.9,0.2c-0.6,0-1.1-0.1-1.6-0.2
	c-0.5-0.1-0.9-0.3-1.3-0.6c-0.4-0.3-0.7-0.6-0.9-1c-0.2-0.4-0.4-0.9-0.4-1.6h0.8c0,0.5,0.2,0.9,0.4,1.2s0.4,0.6,0.8,0.8
	c0.3,0.2,0.7,0.4,1,0.5c0.4,0.1,0.8,0.1,1.2,0.1c0.6,0,1.1-0.1,1.6-0.2c0.4-0.2,0.8-0.3,1.1-0.6c0.3-0.2,0.5-0.5,0.7-0.8
	c0.2-0.3,0.3-0.6,0.3-0.8c0.1-0.3,0.1-0.5,0.1-0.8c0-0.2,0-0.4,0-0.5v-2.4h0c-0.4,0.8-0.9,1.4-1.5,1.8c-0.6,0.4-1.4,0.6-2.3,0.6
	c-0.8,0-1.5-0.1-2-0.4c-0.6-0.3-1-0.6-1.4-1.1c-0.4-0.5-0.7-1-0.8-1.7c-0.2-0.6-0.3-1.3-0.3-2.1c0-0.7,0.1-1.4,0.3-2
	c0.2-0.6,0.5-1.2,0.9-1.7c0.4-0.5,0.9-0.9,1.4-1.1c0.6-0.3,1.2-0.4,2-0.4c0.4,0,0.8,0.1,1.2,0.2c0.4,0.1,0.8,0.3,1.1,0.5
	c0.3,0.2,0.6,0.5,0.9,0.8c0.3,0.3,0.5,0.7,0.6,1.1h0v-2.2H32.2z M27.5,52.2c-0.6,0-1.2,0.1-1.7,0.4c-0.5,0.3-0.9,0.6-1.2,1
	c-0.3,0.4-0.5,0.9-0.7,1.5c-0.2,0.5-0.2,1.1-0.2,1.7c0,0.6,0.1,1.2,0.2,1.8c0.2,0.6,0.4,1,0.7,1.5c0.3,0.4,0.7,0.7,1.2,1
	c0.5,0.2,1,0.4,1.6,0.4c0.6,0,1.2-0.1,1.7-0.4c0.5-0.2,0.9-0.6,1.2-1c0.3-0.4,0.6-0.9,0.7-1.5c0.2-0.5,0.2-1.1,0.2-1.7
	c0-0.6-0.1-1.2-0.2-1.7c-0.2-0.6-0.4-1-0.7-1.5c-0.3-0.4-0.7-0.8-1.2-1C28.7,52.3,28.1,52.2,27.5,52.2z M34.7,49.8v-2.1h0.8v2.1
	H34.7z M34.7,62.4V51.8h0.8v10.6H34.7z M38,51.8h0.8v2.3h0c0.1-0.4,0.3-0.8,0.6-1.1c0.3-0.3,0.6-0.6,0.9-0.8
	c0.3-0.2,0.7-0.4,1.1-0.5c0.4-0.1,0.8-0.2,1.2-0.2c0.6,0,1.1,0.1,1.6,0.2c0.4,0.2,0.8,0.4,1.1,0.6c0.3,0.2,0.5,0.5,0.7,0.8
	c0.2,0.3,0.3,0.6,0.3,0.9c0.1,0.3,0.1,0.6,0.1,0.9c0,0.3,0,0.6,0,0.8v6.6h-0.8v-6.7c0-0.3,0-0.6-0.1-1c0-0.4-0.2-0.8-0.4-1.1
	c-0.2-0.4-0.5-0.7-0.9-0.9c-0.4-0.3-1-0.4-1.7-0.4c-0.6,0-1.1,0.1-1.6,0.3c-0.5,0.2-0.9,0.5-1.2,0.9c-0.3,0.4-0.6,0.9-0.8,1.4
	c-0.2,0.5-0.3,1.1-0.3,1.8v5.8H38V51.8z M49,57.2c0,0.6,0.1,1.2,0.2,1.8c0.2,0.6,0.4,1.1,0.7,1.5c0.3,0.4,0.7,0.8,1.2,1.1
	c0.5,0.3,1.1,0.4,1.7,0.4c1,0,1.8-0.3,2.5-0.8c0.7-0.6,1.1-1.3,1.3-2.3h0.8c-0.2,1.3-0.7,2.2-1.5,2.9c-0.8,0.7-1.8,1-3.1,1
	c-0.8,0-1.5-0.1-2.1-0.4c-0.6-0.3-1.1-0.7-1.5-1.2c-0.4-0.5-0.7-1.1-0.9-1.7c-0.2-0.7-0.3-1.3-0.3-2.1c0-0.7,0.1-1.4,0.3-2.1
	s0.5-1.3,0.9-1.8c0.4-0.5,0.9-1,1.5-1.3c0.6-0.3,1.3-0.5,2.1-0.5c0.8,0,1.5,0.2,2.2,0.5c0.6,0.3,1.1,0.7,1.5,1.2
	c0.4,0.5,0.7,1.1,0.8,1.8c0.2,0.7,0.2,1.4,0.2,2.2H49z M56.8,56.5c0-0.6-0.1-1.1-0.3-1.6c-0.2-0.5-0.4-1-0.8-1.4
	c-0.3-0.4-0.7-0.7-1.2-1c-0.5-0.2-1-0.4-1.6-0.4c-0.6,0-1.1,0.1-1.6,0.4c-0.5,0.2-0.9,0.6-1.2,1c-0.3,0.4-0.6,0.9-0.8,1.4
	c-0.2,0.5-0.3,1-0.4,1.6H56.8z M59.8,57.2c0,0.6,0.1,1.2,0.2,1.8c0.2,0.6,0.4,1.1,0.7,1.5c0.3,0.4,0.7,0.8,1.2,1.1
	c0.5,0.3,1.1,0.4,1.7,0.4c1,0,1.8-0.3,2.5-0.8c0.7-0.6,1.1-1.3,1.3-2.3h0.8c-0.2,1.3-0.7,2.2-1.5,2.9c-0.8,0.7-1.8,1-3.1,1
	c-0.8,0-1.5-0.1-2.1-0.4c-0.6-0.3-1.1-0.7-1.5-1.2c-0.4-0.5-0.7-1.1-0.9-1.7C59.1,58.7,59,58,59,57.3c0-0.7,0.1-1.4,0.3-2.1
	c0.2-0.7,0.5-1.3,0.9-1.8c0.4-0.5,0.9-1,1.5-1.3c0.6-0.3,1.3-0.5,2.1-0.5c0.8,0,1.5,0.2,2.2,0.5c0.6,0.3,1.1,0.7,1.5,1.2
	c0.4,0.5,0.7,1.1,0.8,1.8c0.2,0.7,0.2,1.4,0.2,2.2H59.8z M67.6,56.5c0-0.6-0.1-1.1-0.3-1.6c-0.2-0.5-0.4-1-0.8-1.4
	c-0.3-0.4-0.7-0.7-1.2-1c-0.5-0.2-1-0.4-1.6-0.4c-0.6,0-1.1,0.1-1.6,0.4c-0.5,0.2-0.9,0.6-1.2,1c-0.3,0.4-0.6,0.9-0.8,1.4
	c-0.2,0.5-0.3,1-0.4,1.6H67.6z M71,54.1L71,54.1c0.2-0.3,0.3-0.7,0.6-1c0.3-0.3,0.6-0.6,0.9-0.8c0.4-0.2,0.8-0.4,1.2-0.5
	c0.4-0.1,0.9-0.2,1.4-0.2v0.8c-0.4-0.1-0.9,0-1.4,0.1c-0.5,0.1-1,0.4-1.5,0.9c-0.2,0.2-0.4,0.4-0.5,0.6c-0.1,0.2-0.3,0.4-0.4,0.6
	c-0.1,0.2-0.2,0.5-0.2,0.8c-0.1,0.3-0.1,0.6-0.1,1v5.8h-0.8V51.8H71V54.1z M76.2,49.8v-2.1h0.8v2.1H76.2z M76.2,62.4V51.8h0.8v10.6
	H76.2z M79.5,51.8h0.8v2.3h0c0.1-0.4,0.3-0.8,0.6-1.1c0.3-0.3,0.6-0.6,0.9-0.8c0.3-0.2,0.7-0.4,1.1-0.5c0.4-0.1,0.8-0.2,1.2-0.2
	c0.6,0,1.1,0.1,1.6,0.2c0.4,0.2,0.8,0.4,1.1,0.6c0.3,0.2,0.5,0.5,0.7,0.8c0.2,0.3,0.3,0.6,0.3,0.9c0.1,0.3,0.1,0.6,0.1,0.9
	c0,0.3,0,0.6,0,0.8v6.6h-0.8v-6.7c0-0.3,0-0.6-0.1-1c0-0.4-0.2-0.8-0.4-1.1c-0.2-0.4-0.5-0.7-0.9-0.9c-0.4-0.3-1-0.4-1.7-0.4
	c-0.6,0-1.1,0.1-1.6,0.3c-0.5,0.2-0.9,0.5-1.2,0.9c-0.3,0.4-0.6,0.9-0.8,1.4c-0.2,0.5-0.3,1.1-0.3,1.8v5.8h-0.8V51.8z M99,51.8v10.1
	c0,0.1,0,0.4,0,0.6c0,0.3-0.1,0.6-0.1,1c-0.1,0.4-0.2,0.7-0.4,1.1s-0.4,0.7-0.8,1c-0.3,0.3-0.8,0.5-1.3,0.7
	c-0.5,0.2-1.2,0.3-1.9,0.2c-0.6,0-1.1-0.1-1.6-0.2c-0.5-0.1-0.9-0.3-1.3-0.6c-0.4-0.3-0.7-0.6-0.9-1c-0.2-0.4-0.4-0.9-0.4-1.6H91
	c0,0.5,0.2,0.9,0.4,1.2c0.2,0.3,0.4,0.6,0.8,0.8c0.3,0.2,0.7,0.4,1,0.5c0.4,0.1,0.8,0.1,1.2,0.1c0.6,0,1.1-0.1,1.6-0.2
	c0.4-0.2,0.8-0.3,1.1-0.6c0.3-0.2,0.5-0.5,0.7-0.8c0.2-0.3,0.3-0.6,0.3-0.8c0.1-0.3,0.1-0.5,0.1-0.8c0-0.2,0-0.4,0-0.5v-2.4h0
	c-0.4,0.8-0.9,1.4-1.5,1.8C96,61.8,95.2,62,94.3,62c-0.8,0-1.5-0.1-2-0.4c-0.6-0.3-1-0.6-1.4-1.1c-0.4-0.5-0.7-1-0.8-1.7
	c-0.2-0.6-0.3-1.3-0.3-2.1c0-0.7,0.1-1.4,0.3-2c0.2-0.6,0.5-1.2,0.9-1.7c0.4-0.5,0.9-0.9,1.4-1.1c0.6-0.3,1.2-0.4,2-0.4
	c0.4,0,0.8,0.1,1.2,0.2c0.4,0.1,0.8,0.3,1.1,0.5c0.3,0.2,0.6,0.5,0.9,0.8c0.3,0.3,0.5,0.7,0.6,1.1h0v-2.2H99z M94.3,52.2
	c-0.6,0-1.2,0.1-1.7,0.4c-0.5,0.3-0.9,0.6-1.2,1c-0.3,0.4-0.5,0.9-0.7,1.5c-0.2,0.5-0.2,1.1-0.2,1.7c0,0.6,0.1,1.2,0.2,1.8
	c0.2,0.6,0.4,1,0.7,1.5c0.3,0.4,0.7,0.7,1.2,1c0.5,0.2,1,0.4,1.6,0.4c0.6,0,1.2-0.1,1.7-0.4c0.5-0.2,0.9-0.6,1.2-1
	c0.3-0.4,0.6-0.9,0.7-1.5c0.2-0.5,0.2-1.1,0.2-1.7c0-0.6-0.1-1.2-0.2-1.7c-0.2-0.6-0.4-1-0.7-1.5c-0.3-0.4-0.7-0.8-1.2-1
	C95.5,52.3,95,52.2,94.3,52.2z M57.2,0.7c-2,1-2.7,2.8-2.7,7.6c0,0,1-1,2.5-1.5c1.1-0.4,2-1,2.5-1.4c1.7-1.2,1.9-2.8,1.9-5.5
	C61.5,0,58.7-0.1,57.2,0.7z M45.5,1.9c-1.6,1.4-2.1,3.7-2.1,3.7L38,26.3l-4.4-17c-0.4-1.8-1.2-4-2.5-5.5c-1.6-1.9-4.8-2-5.1-2
	c-0.3,0-3.5,0.1-5.1,2c-1.2,1.5-2,3.7-2.5,5.5l-4.4,17L8.6,5.6c0,0-0.5-2.3-2.1-3.7C3.9-0.4,0,0,0,0l10.2,38.7c0,0,3.4,0.2,5.1-0.6
	c2.2-1.1,3.3-2,4.6-7.3c1.2-4.7,4.5-18.5,4.9-19.5c0.2-0.5,0.4-1.6,1.2-1.6c0.9,0,1.1,1.2,1.2,1.6c0.3,1,3.7,14.8,4.9,19.5
	c1.3,5.3,2.4,6.1,4.6,7.3c1.7,0.9,5.1,0.6,5.1,0.6L52,0C52,0,48.1-0.4,45.5,1.9z M61.5,6.4c0,0-0.6,1-2.1,1.8
	c-0.9,0.5-1.8,0.9-2.8,1.3c-1.6,0.8-2.1,1.6-2.1,3v0.4v2V15v0.5v23.3c0,0,2.6,0.3,4.3-0.5c2.2-1.1,2.7-2.2,2.7-7V7.8l0,0V6.4z
	 M87,19.5l13-19.3c0,0-5.5-0.9-8.2,1.5c-1.7,1.6-3.7,4.4-3.7,4.4L83.3,13c-0.2,0.4-0.5,0.7-1,0.7s-0.8-0.4-1-0.7l-4.8-6.9
	c0,0-1.9-2.8-3.7-4.4c-2.7-2.5-8.2-1.5-8.2-1.5l13,19.3l-13,19.3c0,0,5.7,0.7,8.4-1.8c1.7-1.6,3.4-4.2,3.4-4.2l4.8-6.9
	c0.2-0.4,0.5-0.7,1-0.7s0.8,0.4,1,0.7l4.8,6.9c0,0,1.8,2.6,3.5,4.2c2.7,2.5,8.3,1.8,8.3,1.8L87,19.5z"/>
</svg>
